<svg xmlns="http://www.w3.org/2000/svg" xml:space="preserve" width="1101.584" height="1123.226" version="1.1" viewBox="0 0 291.461 297.187"><g display="inline"><path d="M52.388 83.056V94.29h182.849V83.056zm127.833-63.024v11.899h11.618V20.032zm-42.313-.594v11.899h12.212V19.438z" fill="#fc0" display="inline"/><path d="M134.088 30.284V49.43h20.44V30.284z" fill="#00ecff" fill-opacity="1" display="inline"/><g display="inline"><path d="M63.457 19.455v11.899h11.618V19.455zm149.169.024v11.899h11.618V19.479zm-127.838-.024v11.899h11.618V19.455zm106.598.263v11.899h11.618V19.718z" fill="#fc0" display="inline"/><path d="M180.179 8.191V20.09h11.618V8.191z" fill="#fc0" display="inline"/><path d="M169.154 19.935v11.899h11.618V19.935zM96.235 7.894v11.899h11.618V7.894z" fill="#fc0" display="inline"/><path d="M107.591 19.513v11.899h11.618V19.513zm30.348-11.916v11.899h11.618V7.597z" fill="#fc0" display="inline"/><path d="M126.731 18.976v11.899h11.618V18.976zm22.861.297v11.899h11.618V19.273zM52.617 7.752h11.376v77.466H52.617zm171.064-.707h11.376v77.466h-11.376z" fill="#fc0" display="inline"/><path d="M62.259 30.206V42.62h161.654V30.206z" fill="#fc0" display="inline"/><path d="M95.743 19.289v11.899h12.212V19.289z" fill="#fc0" display="inline"/><path d="M63.247 41.719h163.315v45.877H63.247z" fill="#fc0" fill-opacity="1"/><path d="M180.405 26.818v11.899h11.618V26.818zm.945 43.797v11.899h11.618V70.615zm-84.442.945v11.899h11.618V71.56zm-.945-44.742v11.899h11.618V26.818zM202.46 47.929v11.899h11.618V47.929zm-127.608 1.26v11.899H86.47V49.189z" fill="#00ecff" fill-opacity="1" display="inline"/><path d="M132.947 27.258h22.372v46.03h-22.372z" fill="#00ecff" fill-opacity="1"/></g></g></svg>