<svg xmlns="http://www.w3.org/2000/svg" xml:space="preserve" width="1101.584" height="1123.226" version="1.1" viewBox="0 0 291.461 297.187"><g display="inline"><path d="M97.943 221.052v11.899H84.101v-11.899zm80.601 18.785v13.482h-12.949v-13.482zm-56.935 1.694v13.165h-11.683v-13.165z" fill="#000"/><path d="M190.419 228.606v13.798h-13.625v-13.798z" fill="#000"/><path d="M204.092 217.947v13.165H190.25v-13.165zm-82.749 46.71v-13.798h45.866v13.798zm91.344-222.905v12.762H188.36V41.752z" fill="#000"/><path d="M211.535 51.034h12.256v25.057h-12.256zm-8.789 168.034v-12.064h21.847v12.064zM75.007 41.533v12.762h24.327V41.533z" fill="#000"/><path d="M76.791 50.815H63.902v25.69h12.889z" fill="#000"/><path d="M65.221 73.181h-12.5v138.287h12.5zm169.707-2.534h-12.5v138.287h12.5z" fill="#000"/><path d="M86.175 221.914v-11.748h-22.48v11.748zM190.331 30.995v13.333H96.073V30.995zM111.22 232.344v11.899H97.595v-11.899z" fill="#000"/><path d="M121.677 247.48v-4.899H109.82v-10.312H97.96v-11.342H84.556V210.1H64.448V75.017h10.827V53.363h22.686V43.05h91.773v10.312h22.686v21.654h10.827v131.99h-19.592v11.858H190.25v11.31l-6.058.145-6.058.145-.148 5.285-.146 5.284h-11.307v11.343h-44.856z" fill="red"/></g></svg>