<svg xmlns="http://www.w3.org/2000/svg" xml:space="preserve" width="1101.584" height="1123.226" version="1.1" viewBox="0 0 291.461 297.187"><g display="inline"><path d="M97.943 221.052v11.899H84.101v-11.899zm80.601 20.368v11.899h-11.683V241.42zm-56.935 1.377v11.899h-11.683v-11.899z" fill="#000"/><path d="M190.419 230.505v11.899h-12.042v-11.899z" fill="#000"/><path d="M204.092 219.213v11.899H190.25v-11.899zm-82.749 45.444v-11.899h45.866v11.899zm91.344-222.905v11.496h-22.745V41.752zm.114 9.282h10.99v23.791h-10.99z" fill="#000"/><g fill="#000"><path d="M264.451 100.626h11.376v38.014h-11.376z"/><path d="M266.909 137.028v11.899h-11.618v-11.899zm.307-39.784v11.899h-11.618V97.244z" display="inline"/><path d="M256.445 145.376v11.899h-11.618v-11.899z" display="inline"/><path d="M245.521 118.824v11.899h-11.618v-11.899z"/><path d="M256.547 107.913v11.899h-11.618v-11.899z" display="inline"/><path d="M245.521 153.231v11.899h-11.618v-11.899z"/></g><g fill="#000" display="inline"><path d="M23.112 100.725H11.736v38.014h11.376z"/><path d="M20.654 137.127v11.899h11.618v-11.899zm-.307-39.784v11.899h11.618V97.343z" display="inline"/><path d="M31.118 145.475v11.899h11.618v-11.899z" display="inline"/><path d="M42.042 118.923v11.899H53.66v-11.899z"/><path d="M31.016 108.012v11.899h11.618v-11.899z" display="inline"/><path d="M42.042 153.33v11.899H53.66V153.33z"/></g><path d="M204.012 219.068V207.32h20.581v11.748zM75.007 41.533v11.496h22.745V41.533zm-.115 9.282h-10.99v23.791h10.99z" fill="#000"/><path d="M63.955 73.181H52.721v138.287h11.234zm170.973-2.534h-11.234v138.287h11.234z" fill="#000"/><path d="M84.276 221.914v-11.748H63.695v11.748zM190.331 30.995v11.751H96.073V30.995zm-80.694 201.349v11.899H97.595v-11.899z" fill="#000"/><path d="M235.04 142.032v-11.126h10.779v-10.778h10.778v-10.779h7.65v27.468h-9.04v8.345h-10.431v7.997h-9.736zM42.766 149.16v-3.998h-10.43v-8.345h-9.04V109.35h7.649v10.778h10.778v10.779h10.779v22.252h-9.736z" fill="#ffe680"/></g></svg>