<svg xmlns="http://www.w3.org/2000/svg" xml:space="preserve" width="1101.584" height="1123.226" version="1.1" viewBox="0 0 291.461 297.187"><g fill="#000" display="inline"><path d="M188.325 275.225h23.04v22.627h-23.04zm-112.496-.69h24.306v22.627H75.829z" fill="red"/><g fill="#000" display="inline"><path d="M76.292 285.292v11.899H64.25v-11.899z"/><path d="M88.166 274.191v12.462H75.561v-12.462z"/><path d="M100.04 262.709v11.899H87.998v-11.899zm123.103 22.63v11.899h-12.042v-11.899z"/><path d="M211.989 273.671v11.899h-12.042v-11.899z"/><path d="M200.834 263.509v11.899h-12.042v-11.899z"/><path d="M99.502 252.839h13.059v44.748H99.502zm77.469-.449h12.498v45.204h-12.498z"/></g></g><path d="M111.027 275.509V253.58h10.026v10.479h46.416v-12.032h10.397v45.409h-66.84z" fill="#00f" display="inline"/></svg>