<svg xmlns="http://www.w3.org/2000/svg" xml:space="preserve" width="1101.584" height="1123.226" version="1.1" viewBox="0 0 291.461 297.187"><g display="inline"><path d="M0 0h291.461v297.187H0z" fill="#5c7034"/><path d="M279.291 198.546v11.899h-11.618v-11.899zm-9.134 55.652v11.899h-11.618v-11.899zm-31.055-19.808v11.899h-11.618V234.39zm-175.827 5.659v11.899H51.657v-11.899zM24.456 260.8v11.899H12.838V260.8zm30.598 10.376v11.899H43.436v-11.899zM25.826 16.029v11.899H14.208V16.029zm9.59 36.315v11.899H23.798V52.344zM21.715 90.073v11.899H10.097V90.073zm-.913 103.286v11.899H9.184v-11.899zm15.984 36.314v11.899H25.168v-11.899zM281.118 14.614v11.899H269.5V14.614zM241.842 4.238v11.899h-11.618V4.238zm42.016 84.42v11.899H272.24V88.658zm-29.685-39.144v11.899h-11.618V49.514zM171.055 3.767v11.899h-11.618V3.767zM79.259 9.426v11.899H67.641V9.426zm195.465 269.768v11.899h-11.618v-11.899zm-39.275-21.695v11.899h-11.618v-11.899zm24.204-87.722v11.899h-11.618v-11.899zm25.119-44.804v11.899h-11.618v-11.899zm-29.686-41.974v11.899h-11.618V82.999zM15.778 141.952v11.899H4.16v-11.899zm23.749 43.861v11.899H27.909v-11.899zM123.102 7.54v11.899h-11.618V7.54zM55.511 25.461V37.36H43.893V25.461z" fill="#a4a05c"/><path d="M213.984 16.029v11.899h-11.618V16.029z" fill="#a4a05c" display="inline"/></g></svg>