<svg xmlns="http://www.w3.org/2000/svg" xml:space="preserve" width="1101.584" height="1123.226" version="1.1" viewBox="0 0 291.461 297.187"><g display="inline"><path d="M0 0h291.461v297.187H0z" fill="#3485fd"/><path d="M279.291 198.546v11.899h-11.618v-11.899zm-9.134 55.652v11.899h-11.618v-11.899zm-31.055-19.808v11.899h-11.618V234.39zm-175.827 5.659v11.899H51.657v-11.899zM24.456 260.8v11.899H12.838V260.8zm30.598 10.376v11.899H43.436v-11.899z" fill="#81b4fe"/><path d="M25.826 16.029v11.899H14.208V16.029z" fill="#a4a05c"/><path d="M35.416 52.344v11.899H23.798V52.344zM21.715 90.073v11.899H10.097V90.073zm-.913 103.286v11.899H9.184v-11.899zm15.984 36.314v11.899H25.168v-11.899z" fill="#81b4fe"/><path d="M281.118 14.614v11.899H269.5V14.614zM241.842 4.238v11.899h-11.618V4.238z" fill="#a4a05c"/><path d="M283.858 88.658v11.899H272.24V88.658zm-29.685-39.144v11.899h-11.618V49.514z" fill="#81b4fe"/><path d="M171.055 3.767v11.899h-11.618V3.767zM79.259 9.426v11.899H67.641V9.426z" fill="#a4a05c"/><path d="M274.724 279.194v11.899h-11.618v-11.899zm-39.275-21.695v11.899h-11.618v-11.899zm24.204-87.722v11.899h-11.618v-11.899zm25.119-44.804v11.899h-11.618v-11.899zm-29.686-41.974v11.899h-11.618V82.999zM15.778 141.952v11.899H4.16v-11.899zm23.749 43.861v11.899H27.909v-11.899z" fill="#81b4fe"/><path d="M123.102 7.54v11.899h-11.618V7.54zM55.511 25.461V37.36H43.893V25.461z" fill="#a4a05c"/><path d="M213.984 16.029v11.899h-11.618V16.029z" fill="#a4a05c" display="inline"/><path d="M44.402 31.148v-5.633h10.603V36.78H44.402ZM14.58 21.87v-5.633h10.603v11.266H14.58Zm53.68-6.628V9.61h10.603v11.265H68.26zM112 13.254V7.621h10.603v11.266h-10.604zm47.715-3.313V4.308h11.266v11.266h-11.266zM202.79 21.87v-5.633h10.604v11.266H202.79zm27.834-11.93V4.309h10.604v11.266h-10.604zm39.1 10.604v-5.633h11.267v11.266h-11.266z" fill="#81b4fe"/></g></svg>