<svg id="Left_Eye" data-name="Left Eye" xmlns="http://www.w3.org/2000/svg" viewBox="0 0 600 600"><defs><style>.cls-1{fill:#1b1b1b;}.cls-2{fill:#c898ae;}.cls-3{fill:#aabe4f;}.cls-4{fill:#fff;}.cls-5{fill:#3a6d28;}</style></defs><title>Pecasso</title><polygon class="cls-1" points="225 256 223 283 258.7 350.9 321.9 353 366.1 295.8 367 254 297.3 199.9 225 256"/><polygon class="cls-2" points="362 263 300.8 242.7 226.3 270.8 299.4 225.2 362 263"/><polygon class="cls-3" points="226.3 263.8 299.4 220.3 362 258 299.4 207.6 226.3 263.8"/><polygon class="cls-4" points="300.1 245.5 272 258.2 272 284.2 299.4 296.8 323.3 283.5 327.5 256.8 300.1 245.5"/><polygon class="cls-1" points="299.4 261 289.6 267.3 299.4 277.8 308.5 270.8 299.4 261"/><polygon class="cls-2" points="232.7 275.7 299.4 302.4 362 282 302.9 315.8 232.7 275.7"/><polygon class="cls-5" points="232.7 282.8 300.1 320.7 361.9 287.7 318.4 346.7 264.3 343.9 232.7 282.8"/></svg>