<svg id="Left_Eye" data-name="Left Eye" xmlns="http://www.w3.org/2000/svg" viewBox="0 0 600 600"><defs><style>.cls-1{fill:#1b1b1b;}.cls-2{fill:#aabe4f;}.cls-3{fill:#f2f2f2;}.cls-4{fill:#c898ae;}</style></defs><title>Pecasso</title><polygon class="cls-1" points="263 233 221 288 277 329 319.5 322 353 284.5 305.3 234 263 233"/><polygon class="cls-2" points="263.3 264.1 230.4 284.5 261.6 255.6 303 250.5 347.3 282.3 301.9 261.3 263.3 264.1"/><polygon class="cls-2" points="230.4 289.6 260.5 303.8 318.4 302.7 347.3 284.5 318.4 314.1 278.6 319.7 230.4 289.6"/><polygon class="cls-3" points="321.8 273.2 319.5 298.7 343.3 284.5 321.8 273.2"/><polygon class="cls-3" points="258.8 268.6 250.8 284 258.8 300.4 232.7 285.7 258.8 268.6"/><polygon class="cls-4" points="259.9 252.7 229.2 281.7 265 239 303.6 239.7 347.3 278.9 303 247.6 259.9 252.7"/><polygon class="cls-3" points="301.9 267.5 297.4 284.5 316.1 276.6 301.9 267.5"/><polygon class="cls-3" points="275.8 288.5 259.9 294.1 262.2 300.4 275.8 288.5"/><polygon class="cls-3" points="280.3 289.1 265 301 274.1 301 280.3 289.1"/></svg>