<svg id="Left_Eye" data-name="Left Eye" xmlns="http://www.w3.org/2000/svg" viewBox="0 0 600 600"><defs><style>.cls-1{fill:#1b1b1b;}.cls-2{fill:#c898ae;}.cls-3{fill:#a7bc3b;}.cls-4{fill:#494542;}.cls-5{fill:#fff;}.cls-6{fill:#aabe4f;}.cls-7{fill:#3a6d28;}</style></defs><title>Pecasso</title><polygon class="cls-1" points="236.3 257 251.1 216.1 245.8 173 350.8 202.4 346.6 247.6 355 293.8 342.4 304.3 343.4 316.9 330.9 331.6 271 339.9 232.2 316.9 229 285.4 236.3 257"/><polygon class="cls-2" points="250 177 252 194 346.6 224.4 348.7 207.7 250 177"/><polygon class="cls-3" points="252.1 197.2 255.3 213.9 343.4 240.2 343.4 228.7 252.1 197.2"/><polygon class="cls-4" points="255.3 220.3 252.1 230.8 323.5 254.9 338.2 299 350.8 289.6 340.3 245.4 255.3 220.3"/><polygon class="cls-5" points="248.9 233.9 240.6 259.1 273.1 299 330.9 299 318.3 257 248.9 233.9"/><polygon class="cls-6" points="240.6 273.8 267.9 304.3 336.1 304.3 338.2 313.7 267.9 313.7 236.4 283.3 240.6 273.8"/><polygon class="cls-7" points="231.8 289.1 267.9 321.1 338.2 316.9 324.6 329.4 273.1 336.8 235.3 316.9 231.8 289.1"/><polygon class="cls-1" points="278.4 247.6 263.6 273.8 274.1 294.8 301.4 294.8 313 259.1 278.4 247.6"/><polygon class="cls-5" points="301.4 259.1 289.9 265.4 295.1 276.9 305.6 270.6 301.4 259.1"/><polygon class="cls-5" points="286.9 266.4 283.6 268.3 285.1 271.6 288.1 269.8 286.9 266.4"/><polygon class="cls-5" points="288.2 271 284.9 272.8 286.4 276.1 289.4 274.3 288.2 271"/></svg>