<svg id="Left_Eye" data-name="Left Eye" xmlns="http://www.w3.org/2000/svg" viewBox="0 0 600 600"><defs><style>.cls-1{fill:#1b1b1b;}.cls-2{fill:#aabe4f;}.cls-3{fill:#fff;}.cls-4{fill:#a7bc3b;}.cls-5{fill:#c898ae;}</style></defs><title>Pecasso</title><polygon class="cls-1" points="225 237 255 302 305 339 348 273 314 252 331 217 325 198 341 189 308 143 240 139 211 158 220 205 225 237"/><polygon class="cls-2" points="267 228 225 206 229 228 267 248 311 241 322 220 289 233 324 211 321 203 267 228"/><polygon class="cls-3" points="221 189 249 171 297 171 321 195 270 224 226 203 221 189"/><polygon class="cls-4" points="221 183 247 167 297 167 324 193 301 159 244 155 217 171 221 183"/><polygon class="cls-5" points="217 160 243 143 306 147 335 187 326 187 302 155 241 152 217 167 217 160"/><polygon class="cls-5" points="232 238 258 293 308 248 265 255 232 238"/><polygon class="cls-5" points="311 257 266 300 305 330 341 274 311 257"/><polygon class="cls-1" points="253 175 294 175 294 205 271 220 251 207 253 175"/><rect class="cls-3" x="277" y="179" width="12" height="12"/><rect class="cls-3" x="267" y="187" width="7" height="6"/><rect class="cls-3" x="272" y="195" width="7" height="6"/></svg>