<svg id="Left_Eye" data-name="Left Eye" xmlns="http://www.w3.org/2000/svg" viewBox="0 0 600 600"><defs><style>.cls-1{fill:#1b1b1b;}.cls-2{fill:#be424c;}.cls-3{fill:#ff958d;}.cls-4{fill:#fff;}</style></defs><title>Pecasso</title><polygon class="cls-1" points="239 215 221 269 242 320 265 325 293 366 344 361 365 324 341 277 316 211 239 215"/><polygon class="cls-2" points="244 221 228 268 244 315 253 309 239 266 255 221 244 221"/><polygon class="cls-3" points="257 312 250 317 265 322 268 317 257 312"/><polygon class="cls-4" points="287 285 336 282 357 320 340 356 293 359 268 321 287 285"/><polygon class="cls-1" points="310.2 294.3 333.9 292.9 344 311.3 335.8 328.7 313.1 330.1 301 311.7 310.2 294.3"/><rect class="cls-4" x="325" y="300" width="8" height="8" transform="translate(311.3 -143.6) rotate(45)"/><polygon class="cls-3" points="289 281 333 278 322 271 329 260 289 281"/></svg>