<svg id="Left_Eye" data-name="Left Eye" xmlns="http://www.w3.org/2000/svg" viewBox="0 0 600 600"><defs><style>.cls-1{fill:#1b1b1b;}.cls-2{fill:#ff0;}.cls-3{fill:#aabe4f;}.cls-4{fill:#3a6d28;}.cls-5{fill:#bc9800;}</style></defs><title>Pecasso</title><polygon class="cls-1" points="220 263.1 251.8 219.3 297.2 219.3 338 263.1 331.9 284.3 288.1 307 251.8 307 220 263.1"/><polygon class="cls-2" points="278 246.5 288.6 267.7 278 288.9 258.4 288.9 247.8 270.7 256.9 248 278 246.5"/><polygon class="cls-3" points="282.6 243.5 296.2 267.7 328 263.2 294.7 226.9 252.3 228.4 231.1 260.1 244.8 263.2 255.4 243.5 282.6 243.5"/><polygon class="cls-4" points="329.5 267.7 299.2 275.3 285.6 293.4 256.9 293.4 243.3 270.7 228.1 266.2 232.7 275.3 238.7 278.3 235.7 278.3 253.8 301 288.6 302.5 323.4 279.8 305.3 279.8 328 275.3 329.5 267.7"/><polygon class="cls-5" points="275.3 252.4 283 267.7 275.3 283 261.1 283 253.4 269.9 260 253.5 275.3 252.4"/><polygon class="cls-2" points="273.9 255.5 280 267.7 273.9 279.9 262.5 279.9 256.4 269.4 261.7 256.3 273.9 255.5"/></svg>