<svg id="Left_Eye" data-name="Left Eye" xmlns="http://www.w3.org/2000/svg" viewBox="0 0 600 600"><defs><style>.cls-1{fill:#1b1b1b;}.cls-2{fill:aqua;}.cls-3{fill:#c898ae;}.cls-4{fill:#aabe4f;}.cls-5{fill:#3a6d28;}.cls-6{fill:#fff;}</style></defs><title>Pecasso</title><polygon class="cls-1" points="287 216 223.8 254.5 223.8 268.5 221 281 228 305 236 304 262.1 333 310 331 347 302 358 263.3 287 216"/><polygon class="cls-2" points="330.1 280.7 330.1 289.4 321.4 298.1 312.7 289.4 307.4 292.9 302.2 287.7 295.2 292.9 285 288.8 274.3 289.4 269.1 282.4 330.1 280.7"/><polygon class="cls-3" points="342.3 285.9 269.1 247.6 230.7 277.2 230.7 266.8 270.8 233.6 344.1 277.2 342.3 285.9"/><polygon class="cls-4" points="337.1 266.8 277.8 233.6 288.3 224.9 337.1 256.3 337.1 266.8"/><polygon class="cls-3" points="337.1 291.2 330.1 292.9 319.6 301.6 312.7 292.9 307.4 298.1 302.2 291.2 295.2 294.6 284.8 291.2 272.6 291.2 267.3 282.4 227.2 285.9 232.5 296.4 265.6 296.4 310.9 306.8 335.3 299.9 337.1 291.2"/><polygon class="cls-5" points="326.6 305.1 309.2 310.3 239.4 301.6 267.3 326 307.4 326 326.6 305.1"/><polygon class="cls-6" points="284.8 259.8 284.8 277.2 320.2 275.5 284.8 259.8"/><polygon class="cls-6" points="248.2 266.8 248.2 279 234.2 280.7 248.2 266.8"/><polygon class="cls-6" points="267.3 268.5 270.8 275.5 265.6 279 262.1 275.5 267.3 268.5"/></svg>