<svg id="Left_Eye" data-name="Left Eye" xmlns="http://www.w3.org/2000/svg" viewBox="0 0 600 600"><defs><style>.cls-1{fill:#1b1b1b;}.cls-2{fill:#b3b3b3;}.cls-3{fill:gray;}.cls-4{fill:#4d4d4d;}.cls-5{fill:#fff;}.cls-6{fill:#ed1c24;}</style></defs><title>Pecasso</title><polygon class="cls-1" points="297.3 219.2 333 284.9 323.6 290.5 325.5 301.8 265.4 331.8 220.3 311.2 214.7 294.3 203.4 284.9 197.8 254.8 231.6 221 297.3 219.2"/><polygon class="cls-2" points="205.3 271.7 301.1 241.7 289.8 224.8 205.3 260.5 205.3 271.7"/><polygon class="cls-2" points="212.8 277.4 263.5 301.8 321.7 277.4 327.4 283 267.3 313.1 210.9 286.8 212.8 277.4"/><polygon class="cls-3" points="265.4 314.9 265.4 324.3 226 307.4 220.3 294.3 265.4 314.9"/><polygon class="cls-4" points="269.2 314.9 269.2 324.3 318 298 318 290.5 269.2 314.9"/><polygon class="cls-5" points="256 260.5 276.7 256.7 250.4 284.9 229.7 273.6 239.1 264.2 246.6 273.6 256 260.5"/><polygon class="cls-3" points="209.1 256.7 276.7 226.7 235.4 226.7 209.1 256.7"/><polygon class="cls-6" points="250.4 288.6 280.4 254.8 286.1 254.8 250.4 292.4 222.2 275.5 226 273.6 250.4 288.6"/></svg>