<svg id="Left_Eye" data-name="Left Eye" xmlns="http://www.w3.org/2000/svg" viewBox="0 0 600 600"><defs><style>.cls-1{fill:#1b1b1b;}.cls-2{fill:#c898ae;}.cls-3{fill:#3a6d28;}.cls-4{fill:#aabe4f;}.cls-5{fill:#fff;}</style></defs><title>Pecasso</title><polygon class="cls-1" points="209 263.2 245.1 210.8 301.1 209 337.2 254.2 339 277.6 320.9 290.3 290.3 326.4 237.9 321 212.6 283.1 209 263.2"/><polygon class="cls-2" points="328.2 263.2 330 274 290.3 297.5 245.1 279.4 219.8 275.8 216.2 265 250.5 265 290.3 286.7 328.2 263.2"/><polygon class="cls-3" points="317.3 286.7 288.4 319.2 241.5 315.6 221.6 283.1 245.1 284.9 281.2 304.7 317.3 286.7"/><polygon class="cls-4" points="326.4 256 297.5 214.4 246.9 218.1 218 250.6 248.7 227.1 290.3 223.5 326.4 256"/><polygon class="cls-5" points="257.6 232.1 286.6 230.7 322.8 259.6 288.9 279.6 254.2 262.3 257.6 232.1"/><polygon class="cls-5" points="247 235 244 241 247 246 252 241 247 235"/></svg>