<svg id="Left_Eye" data-name="Left Eye" xmlns="http://www.w3.org/2000/svg" viewBox="0 0 600 600"><defs><style>.cls-1{fill:#1b1b1b;}.cls-2{fill:#aabe4f;}.cls-3{fill:#3a6d28;}.cls-4{fill:#c898ae;}.cls-5{fill:red;}.cls-6{fill:#ff0;}.cls-7{fill:#fff;}</style></defs><title>Pecasso</title><polygon class="cls-1" points="209.4 326 282.4 363 335.3 344 349 296.4 334.2 228.7 285.5 198 213.6 240.3 209.4 326"/><polygon class="cls-2" points="285.5 206.5 216.8 243.5 327.8 228.7 285.5 206.5"/><polygon class="cls-3" points="332.1 234 217.9 248 217.8 257.2 334.2 245.6 332.1 234"/><polygon class="cls-4" points="334.2 257.2 217.8 260.4 334.2 249.8 334.2 257.2"/><polygon class="cls-4" points="216.8 302.7 213.6 321.2 280.3 356.7 330 337.6 282.4 344 216.8 302.7"/><polygon class="cls-3" points="213.6 293.3 283.1 340.8 334.7 331 343.7 301.7 286.6 321.8 217.8 276.3 213.6 293.3"/><polygon class="cls-4" points="288.7 314.6 217.8 273.1 288.7 301.7 341.6 289 343.7 294.3 288.7 314.6"/><polygon class="cls-5" points="290.8 264.6 276 277.3 288.7 296.4 306.7 282.6 290.8 264.6"/><polygon class="cls-6" points="291 269 280.3 278.2 289.4 292 302.5 282 291 269"/><polygon class="cls-7" points="291.1 273.4 284.5 279.1 290.2 287.6 298.2 281.4 291.1 273.4"/></svg>