<svg id="Left_Eye" data-name="Left Eye" xmlns="http://www.w3.org/2000/svg" viewBox="0 0 600 600"><defs><style>.cls-1{fill:#1b1b1b;}.cls-2{fill:#be424c;}.cls-3{fill:#ff958d;}.cls-4{fill:red;}.cls-5{fill:#ff0;}.cls-6{fill:#fff;}</style></defs><title>Pecasso</title><polygon class="cls-1" points="239 215 221 269 242 320 303 327 339 278 316 211 239 215"/><polygon class="cls-2" points="244 221 228 268 244 315 253 309 239 266 255 221 244 221"/><polygon class="cls-3" points="257 312 250 317 302 324 257 312"/><polygon class="cls-4" points="279 248 270 266 282 283 295 264 279 248"/><polygon class="cls-5" points="279.8 252.2 273 265.9 282.1 278.8 292 264.4 279.8 252.2"/><polygon class="cls-6" points="280.4 255 275 265.8 282.2 276 290 264.6 280.4 255"/></svg>