<svg id="Right_Eye" data-name="Right Eye" xmlns="http://www.w3.org/2000/svg" viewBox="0 0 600 600"><defs><style>.cls-1{fill:#1b1b1b;}.cls-2{fill:#234c17;}.cls-3{fill:#fff;}.cls-4{fill:#3a6d28;}.cls-5{fill:#aabe4f;}.cls-6{fill:#c898ae;}.cls-7{fill:aqua;}</style></defs><title>Pecasso</title><polygon class="cls-1" points="187 203 224 246.7 222 274 179.2 307 179 322 161 324 156.8 307 132.7 307 100 270.8 100 251.9 142 198 187 203"/><polygon class="cls-2" points="129 292 126 280 106.9 270.8 137.9 301.8 157 302 156 294 152 294 152 299 140 299 138 293 129 292"/><polygon class="cls-2" points="217.1 262.2 210.2 260.5 180 280 174 293 176 302 208.5 274.3 201.6 274.3 215.4 269.1 217.1 262.2"/><polygon class="cls-3" points="170.6 262.2 205.1 260.5 176 279 162 279 165.4 276 170.6 262.2"/><polygon class="cls-3" points="122.4 262.2 125.8 274.3 108.6 262.2 122.4 262.2"/><polygon class="cls-3" points="162 270.8 148.2 270.8 148.2 267.4 165.4 267.4 162 270.8"/><polygon class="cls-3" points="137.9 276 132.7 274.3 132.7 270.8 137.9 270.8 137.9 276"/><polygon class="cls-4" points="210.2 255.3 167.2 258.8 139.6 215.7 184.4 220.9 210.2 248.4 217.1 250.2 217.1 257.1 210.2 255.3"/><polygon class="cls-5" points="162 258.8 103.4 255.3 136.2 217.4 162 258.8"/><polygon class="cls-6" points="140 213 144 202 184 207 212 245 186 219 140 213"/><polygon class="cls-7" points="129 280 130 289 140 291 141 298 150 298 150 292 158 292 163 319 176 318 170 292 177 281 129 280"/></svg>