<svg id="Right_Eye" data-name="Right Eye" xmlns="http://www.w3.org/2000/svg" viewBox="0 0 600 600"><defs><style>.cls-1{fill:#1b1b1b;}.cls-2{fill:#ff958d;}.cls-3{fill:#be424c;}.cls-4{fill:#fff;}.cls-5{fill:#aabe4f;}</style></defs><title>Pecasso</title><polygon class="cls-1" points="169 215 232 267.4 222 287.3 202.1 283.6 145 294 127 280 133 263 125 263.7 120 245 169 215"/><polygon class="cls-2" points="225.8 273.6 222 279.8 153.6 250 136.2 252.5 136.2 256.2 128.7 261.2 125 246.2 156.1 237.5 225.8 273.6"/><polygon class="cls-3" points="220.8 282.3 199.6 272.4 167.3 279.8 153.6 291 202.1 281.1 220.8 282.3"/><polygon class="cls-4" points="154 253 139 254 132 277 145 289 152 289 172 275 154 253"/><polygon class="cls-1" points="138 266 134 276 144 285 151 285 154 274 146 264 138 266"/><polygon class="cls-5" points="228 271 159 232 135 239 169 220 228 271"/></svg>