<svg id="Right_Eye" data-name="Right Eye" xmlns="http://www.w3.org/2000/svg" viewBox="0 0 600 600"><defs><style>.cls-1{fill:#1b1b1b;}.cls-2{fill:#c898ae;}.cls-3{fill:#3a6d28;}.cls-4{fill:#aabe4f;}.cls-5{fill:#ff4e4a;}.cls-6{fill:#fff;}.cls-7{fill:#ff0;}</style></defs><title>Pecasso</title><polygon class="cls-1" points="224 269.5 221 223 178 183 133 209 124 229 100 250 118 259 96 281 145 339 223 296 224 269.5"/><polygon class="cls-2" points="124 276 148 296 214 276 148 312 102 281 126 266 124 276"/><polygon class="cls-3" points="105 289 145 330 214 291 217 281 148 314 105 289"/><polygon class="cls-3" points="108 250 217 258 122 236 108 250"/><polygon class="cls-4" points="131 232 145 210 177 193 214 225 217 250 131 232"/><polygon class="cls-5" points="169.7 258.4 133 256 129 276 148 287 166.4 282.3 169.7 258.4"/><polygon class="cls-6" points="175.6 258.7 173.3 280.6 211 271 211 261 175.6 258.7"/><polygon class="cls-7" points="149 263 142 270 149 276 157 270 149 263"/></svg>