<svg id="Right_Eye" data-name="Right Eye" xmlns="http://www.w3.org/2000/svg" viewBox="0 0 600 600"><defs><style>.cls-1{fill:#1b1b1b;}.cls-2{fill:#3a6d28;}.cls-3{fill:#aabe4f;}.cls-4{fill:#fff;}.cls-5{fill:#494542;}.cls-6{fill:#a7bc3b;}.cls-7{fill:#c898ae;}</style></defs><title>Pecasso</title><polygon class="cls-1" points="161 320 117 304 107 262 130 234 134 209 131 170 225 156 225 192 257 258 245 269 243 302 161 320"/><polygon class="cls-2" points="112 272 158 295 158 315 121 300 112 272"/><polygon class="cls-2" points="166 297 166 315 230 301 239 286 166 297"/><polygon class="cls-3" points="239 275 166 293 166 286 239 269 239 275"/><polygon class="cls-3" points="158 290 160 277 130 239 114 264 158 290"/><polygon class="cls-4" points="234 266 200 221 137 214 138 239 169 278 234 266"/><polygon class="cls-1" points="197 224 166 220 158 257 170 276 192 270 206 239 197 224"/><polygon class="cls-4" points="195 227 201 238 189 246 182 236 195 227"/><polygon class="cls-4" points="180 235 178 231 174 234 177 238 180 235"/><polygon class="cls-4" points="181 238 177 241 180 244 184 242 181 238"/><polygon class="cls-5" points="237 264 206 217 137 208 137 193 219 192 250 256 237 264"/><polygon class="cls-6" points="219 187 137 190 137 183 221 175 219 187"/><polygon class="cls-7" points="221 171 137 181 137 173 222 160 221 171"/></svg>