<svg id="Right_Eye" data-name="Right Eye" xmlns="http://www.w3.org/2000/svg" viewBox="0 0 600 600"><defs><style>.cls-1{fill:#1b1b1b;}.cls-2{fill:#fff;}.cls-3{fill:#f4d659;}.cls-4{fill:#aabe4f;}.cls-5{fill:#93278f;}.cls-6{fill:#c898ae;}</style></defs><title>Pecasso</title><polygon class="cls-1" points="126.2 151.2 106.6 196.4 115 260 226.5 259.3 228 158.4 204.3 174.1 126.2 151.2"/><polygon class="cls-2" points="149.7 208.9 119 225.3 120.1 243.4 138.3 245.2 135.1 231.1 149.7 208.9"/><polygon class="cls-2" points="192.2 250.5 220.2 253.2 193.4 219.1 195.3 238.3 192.2 250.5"/><polygon class="cls-3" points="119.4 221.2 115.6 204.2 147.6 187.9 200 204.1 219.6 244.8 195 213.3 148.7 204.7 119.4 221.2"/><polygon class="cls-4" points="114.6 200 143.9 183.4 202 198.8 202.4 179.4 129.7 158.5 114.6 200"/><polygon class="cls-5" points="206.4 181.2 223.1 166.2 223.1 238.2 204.4 201.8 206.4 181.2"/><polygon class="cls-6" points="222 256 119 248 119 256 222 256"/><rect class="cls-2" x="175" y="219" width="11" height="11" transform="translate(222.3 -60.5) rotate(47.1)"/></svg>