<svg id="Right_Eye" data-name="Right Eye" xmlns="http://www.w3.org/2000/svg" viewBox="0 0 600 600"><defs><style>.cls-1{fill:#1b1b1b;}.cls-2{fill:#fff;}.cls-3{fill:#3a6d28;}.cls-4{fill:#234c17;}.cls-5{fill:#aabe4f;}.cls-6{fill:#c898ae;}</style></defs><title>Pecasso</title><polygon class="cls-1" points="187 203 224 246.7 222 274 179.2 307 132.7 307 100 270.8 100 251.9 142 198 187 203"/><polygon class="cls-2" points="170.6 262.2 205.1 260.5 169 283 158.6 282.9 165.4 276 170.6 262.2"/><polygon class="cls-2" points="122.4 262.2 125.8 274.3 108.6 262.2 122.4 262.2"/><polygon class="cls-2" points="162 270.8 148.2 270.8 148.2 267.4 165.4 267.4 162 270.8"/><polygon class="cls-2" points="137.9 276 132.7 274.3 132.7 270.8 137.9 270.8 137.9 276"/><polygon class="cls-3" points="210.2 255.3 167.2 258.8 139.6 215.7 184.4 220.9 210.2 248.4 217.1 250.2 217.1 257.1 210.2 255.3"/><polygon class="cls-4" points="210.2 260.5 217.1 262.2 215.4 269.1 201.6 274.3 208.5 274.3 175.8 300.1 137.9 301.8 106.9 270.8 129.3 281.2 168.9 286.3 210.2 260.5"/><polygon class="cls-5" points="162 258.8 103.4 255.3 136.2 217.4 162 258.8"/><polygon class="cls-6" points="140 213 144 202 184 207 212 245 186 219 140 213"/></svg>