<svg id="Right_Eye" data-name="Right Eye" xmlns="http://www.w3.org/2000/svg" viewBox="0 0 600 600"><defs><style>.cls-1{fill:#1b1b1b;}.cls-2{fill:#aabe4f;}.cls-3{fill:#3a6d28;}.cls-4{fill:#c898ae;}.cls-5{fill:red;}.cls-6{fill:#ff0;}.cls-7{fill:#fff;}</style></defs><title>Pecasso</title><polygon class="cls-1" points="202 243 164 198 111 234 125 246 125 300 111 309 135.4 326 197 303 202 243"/><polygon class="cls-2" points="197 243 162.1 205.1 121 234 197 243"/><polygon class="cls-3" points="195 250 130 246 121 237 195 250"/><polygon class="cls-3" points="193 300 118 309 128 301 193 300"/><polygon class="cls-4" points="128 292 128 298 193 298 193 290 128 292"/><polygon class="cls-5" points="146 256 133 272 148 286 164 271 146 256"/><polygon class="cls-6" points="147 261.8 139 271.6 148.2 280.2 158 271 147 261.8"/><polygon class="cls-7" points="147.6 265.7 143 271.4 148.3 276.3 154 271 147.6 265.7"/><polygon class="cls-4" points="193 303 135.3 323.5 120 312 193 303"/></svg>