<svg id="Right_Eye" data-name="Right Eye" xmlns="http://www.w3.org/2000/svg" viewBox="0 0 600 600"><defs><style>.cls-1{fill:#1b1b1b;}.cls-2{fill:#aabe4f;}.cls-3{fill:#3a6d28;}.cls-4{fill:#fff;}</style></defs><title>Pecasso</title><polygon class="cls-1" points="201.5 276.8 197.6 180 105.5 186.3 108.6 242.2 123.6 240.6 126.7 291 114.9 298.9 139.3 328 201.5 276.8"/><polygon class="cls-2" points="185.8 186.3 111 191.8 111 231.2 169.2 215.4 185.8 186.3"/><polygon class="cls-3" points="188.1 186.3 175.5 216.2 111 235.1 191.3 222.5 188.1 186.3"/><polygon class="cls-3" points="122 298.9 187.3 276.8 139.3 320.9 122 298.9"/><polygon class="cls-4" points="161.9 282 191.3 272.1 188.9 228.8 151.4 234.7 161.9 282"/><polygon class="cls-4" points="146 237 137 238 139 251 148 250 146 237"/></svg>