<svg id="Right_Eye" data-name="Right Eye" xmlns="http://www.w3.org/2000/svg" viewBox="0 0 600 600"><defs><style>.cls-1{fill:#1b1b1b;}.cls-2{fill:#aabe4f;}.cls-3{fill:#fff;}.cls-4{fill:#c898ae;}</style></defs><title>Pecasso</title><polygon class="cls-1" points="179.2 335 120.7 300.5 133.2 272.3 125.9 241 145.7 214.9 206.3 147 215.7 226.4 246 289 179.2 335"/><polygon class="cls-2" points="228.2 257.7 203.2 236.8 146.8 236.8 133.2 252.5 130.1 238.9 145.7 221.2 207.4 224.3 228.2 257.7"/><polygon class="cls-3" points="228.2 262.9 200 241 148.9 241 137.4 257.7 137.4 273.4 175 291.1 228.2 262.9"/><polygon class="cls-2" points="133.2 278.6 176 295.3 231.4 266.1 236.6 280.7 179.2 311 125.9 292.2 133.2 278.6"/><polygon class="cls-4" points="154.1 214.9 210.5 221.2 204.2 155.4 154.1 214.9"/><polygon class="cls-4" points="130.1 300.5 177.1 325.6 236.6 289 179.2 315.2 130.1 300.5"/><polygon class="cls-1" points="159.3 244.1 155.1 274.4 176 287 196.9 273.4 193.8 244.1 159.3 244.1"/><rect class="cls-3" x="178.1" y="249.4" width="13.6" height="13.58"/><rect class="cls-3" x="170.8" y="258.8" width="5.2" height="5.22"/><rect class="cls-3" x="178.1" y="265" width="5.2" height="5.22"/></svg>