<svg id="Right_Eye" data-name="Right Eye" xmlns="http://www.w3.org/2000/svg" viewBox="0 0 600 600"><defs><style>.cls-1{fill:#1b1b1b;}.cls-2{fill:#ff958d;}.cls-3{fill:#3a6d28;}.cls-4{fill:#aabe4f;}.cls-5{fill:#fff;}.cls-6{fill:#ed1c24;}.cls-7{fill:#ff0;}</style></defs><title>Pecasso</title><polygon class="cls-1" points="221 259 183 330 138 333 109 306 125 276 129 234 141 215 166 200 224 217 221 259"/><polygon class="cls-2" points="135 236 214 252 217 242 141 220 135 236"/><polygon class="cls-2" points="125 285 169 291 211 260 175 310 115 303 125 285"/><polygon class="cls-3" points="115 308 138 328 179 326 215 261 176 315 115 308"/><polygon class="cls-4" points="145 217 221 240 221 220 161 205 145 217"/><polygon class="cls-5" points="175.6 248.9 166 271 138 266 138 241 133 240 129 281 171 285 210 256 175.6 248.9"/><polygon class="cls-6" points="157 247 0 239 0 297 157 264 161 254 157 247"/><polygon class="cls-7" points="153 249 0 249 0 288 152 261 155 255 153 249"/><polygon class="cls-5" points="150 251 151 254 148 260 0 283 0 255.5 150 251"/></svg>