<svg id="Hat" xmlns="http://www.w3.org/2000/svg" viewBox="0 0 600 600"><defs><style>.cls-1{fill:#1b1b1b;}.cls-2{fill:#367d2f;}.cls-3{fill:#29abe2;}.cls-4{fill:#ff0;}.cls-5{fill:#ed1c24;}</style></defs><title>Pepe</title><polygon class="cls-1" points="450 120 470 112 464 93 426 78 413 66 396 18 374 15 364 35 406 78 401.5 81.9 397 74 359 62 332 39 196 48 180 67 211 126.7 379 145 409.6 193.1 423 120 410.5 97.8 417 88 450 120"/><polygon class="cls-2" points="214.8 120 188 67 197 53 330 48 352 64 379 136 214.8 120"/><polygon class="cls-3" points="391.3 82.5 391 82 360 70 375.7 110 391.3 82.5"/><polygon class="cls-4" points="403.8 103.1 394 153.1 406.5 178.4 414 120 403.8 103.1"/><path class="cls-5" d="M401.3,98.9l-6.5-10.7C395,88,378,115,378,115l9,24,4.8,9.7Z"/><polygon class="cls-5" points="410 70 391 20 376 20 368 34 406 74 410 70"/><polygon class="cls-5" points="423 81 462 95 467 110 452 116 421 86 423 81"/><polygon class="cls-2" points="414 70 407 76 416 86 423 78 414 70"/><polygon class="cls-3" points="408 80 403.8 86 408.2 93.9 414 87 408 80"/></svg>