<svg id="Hat" xmlns="http://www.w3.org/2000/svg" viewBox="0 0 600 600"><defs><style>.cls-1{fill:#1b1b1b;}.cls-2{fill:#ed1c24;}</style></defs><title>Pepe</title><polygon class="cls-1" points="187 50 173 125 200 151 221 114 197 85 187 50"/><polygon class="cls-1" points="438 73 408 114 375 141 389 189 435 145 438 73"/><polygon class="cls-2" points="379 145 391 183 426 145 412 122 379 145"/><polygon class="cls-2" points="416 120 430 136 435 83 416 120"/><polygon class="cls-2" points="217 116 196 95 182 120 202 145 217 116"/><polygon class="cls-2" points="193 89 187 62 179 109 193 89"/></svg>