<svg id="Hat" xmlns="http://www.w3.org/2000/svg" viewBox="0 0 600 600"><defs><style>.cls-1{fill:#1b1b1b;}.cls-2{fill:#2e3192;}.cls-3{fill:#fff;}.cls-4{fill:#e6e6e6;}.cls-5{fill:#ff0;}</style></defs><title>Pepe</title><polygon class="cls-1" points="386 136 406 219 471 161 421 81 388 32 240 22 181 53 191 91 168 125 239 144 386 136"/><polygon class="cls-2" points="201 94 179 120 239 136 381 125 201 94"/><polygon class="cls-3" points="384 41 240 30 189 58 192.5 68 396 100 414 86 384 41"/><polygon class="cls-4" points="416.5 91.2 400 110 417 202 461 160 416.5 91.2"/><polygon class="cls-5" points="389 120 196 89 194 73 394 105.2 414 206 389 120"/><polygon class="cls-2" points="280 40 258 47 266 71 285 76 301 58 280 40"/></svg>