<svg id="Hat" xmlns="http://www.w3.org/2000/svg" viewBox="0 0 600 600"><defs><style>.cls-1{fill:#1b1b1b;}.cls-2{fill:#e75351;}.cls-3{fill:#ff0;}.cls-4{fill:#f7931e;}</style></defs><title>Pepe</title><polygon class="cls-1" points="263 39 226 101 384 136 384 163 401 169 418 164 394 70 263 39"/><polygon class="cls-2" points="233 100 265 49 387 75 387 131 233 100"/><polygon class="cls-3" points="390 77 398 113 390 115 390 77"/><path class="cls-4" d="M390,118s-1,10,0,10,13-4,13-4l-2-9Z"/><polygon class="cls-3" points="390 131 390 159 398 161 398 148 401 161 412 159 403 128 390 131"/><polygon class="cls-3" points="290 65 278 77 280 96 292 80 290 65"/></svg>