<svg id="Hat" xmlns="http://www.w3.org/2000/svg" viewBox="0 0 600 600"><defs><style>.cls-1{fill:#1b1b1b;}.cls-2{fill:#b1bcbe;}.cls-3{fill:#859298;}.cls-4{fill:#ed1c24;}</style></defs><title>Pepe</title><polygon class="cls-1" points="191 131 423 167 443 73 426 38 253 23 222 38 202 41 191 131"/><polygon class="cls-2" points="199 120 208 48 358 59 350 145 199 120"/><polygon class="cls-3" points="358 145 373 54 235 41 259 31 423 48 433 73 416 152 358 145"/><polygon class="cls-1" points="279.5 68 260.6 66 249.3 81.3 257.1 98.8 276 100.8 287.2 85.4 279.5 68"/><polygon class="cls-4" points="276.4 72.2 262.7 70.8 254.6 81.9 260.2 94.5 273.9 96 282 84.9 276.4 72.2"/></svg>