<svg id="Hat" xmlns="http://www.w3.org/2000/svg" viewBox="0 0 600 600"><defs><style>.cls-1{fill:#1b1b1b;}.cls-2{fill:#fdce98;}.cls-3{fill:#bd8864;}.cls-4{fill:#995749;}</style></defs><title>Pepe</title><polygon class="cls-1" points="235 65 206 38 174 46 160 87 185 124 384 140 397 159 465 136 476 85 410 63 398 74 391 38 255 25 235 65"/><polygon class="cls-2" points="355 130 412 74 465 87 459 132 398 150 391 132 355 130"/><polygon class="cls-3" points="211 119 234 71 206 49 185 56 168 87 187 116 211 119"/><polygon class="cls-2" points="381.7 95.9 391 87 387 46 260 31 236.2 78.5 381.7 95.9"/><polygon class="cls-2" points="223.4 104.2 218 120 344 132 357 119.5 223.4 104.2"/><polygon class="cls-4" points="363 113.8 375.7 101.6 232.9 85.3 226.8 97.5 363 113.8"/></svg>