<svg id="Hat" xmlns="http://www.w3.org/2000/svg" viewBox="0 0 600 600"><defs><style>.cls-1{fill:#1b1b1b;}.cls-2{fill:#b1ad88;}.cls-3{fill:#313342;}.cls-4{fill:#9b7b5f;}.cls-5{fill:#735d46;}</style></defs><title>Pepe</title><polygon class="cls-1" points="413.7 240 385.9 176.2 221 100 186 158 135.6 74.2 175.8 20 269.4 38.9 356.1 20.8 422.7 74.2 441.4 145.7 413.7 240"/><polygon class="cls-2" points="179.9 32.5 224 95 374 163 267 47 179.9 32.5"/><polygon class="cls-3" points="174.4 32.5 217 92 186 146 146 74.2 174.4 32.5"/><polygon class="cls-2" points="275 46.5 392.9 172 349.9 29.1 275 46.5"/><polygon class="cls-4" points="356.1 29.1 396.4 165.8 432.4 142.9 414.4 79.1 356.1 29.1"/><polygon class="cls-5" points="394.3 176.2 415.8 226.8 432.4 150.5 394.3 176.2"/></svg>