<svg id="Hat" xmlns="http://www.w3.org/2000/svg" viewBox="0 0 600 600"><defs><style>.cls-1{fill:#1b1b1b;}.cls-2{fill:#fff;}.cls-3{fill:#2e3192;}</style></defs><title>Pepe</title><polygon class="cls-1" points="398 136 452 88 419 74 408 38 276 18 233 44 198 35 211 99 398 136"/><polygon class="cls-2" points="222 89 211 44 438 89 401 126 222 89"/><polygon class="cls-2" points="244 44 277 25 402 49 408 74 244 44"/><polygon class="cls-3" points="295.7 82.5 293.5 80.5 283.8 90.7 278.4 89.5 282.5 69.3 279.5 68.7 275.5 88.8 270.9 87.6 266.8 74.1 264 74.9 268.5 90.2 274.9 91.7 276 95 277.9 92.4 284.8 94 295.7 82.5"/></svg>