<svg id="Hat" xmlns="http://www.w3.org/2000/svg" viewBox="0 0 600 600"><defs><style>.cls-1{fill:#1b1b1b;}.cls-2{fill:#e1933a;}</style></defs><title>Pepe</title><polygon class="cls-1" points="436 94 327 43 238 62 214.8 106.4 367 157 412 217 436 94"/><polygon class="cls-2" points="255 66 404 109 411 183 430 95 327 49 255 66"/><polygon class="cls-2" points="355.5 102.6 324.1 93.7 307.5 126.9 340.2 136.9 355.5 102.6"/><polygon class="cls-2" points="277.7 81 259.8 112.5 299.7 124.6 316.3 91.5 277.7 81"/><polygon class="cls-2" points="399.8 122.2 371.7 151.9 408 205 399.8 122.2"/><polygon class="cls-2" points="363.5 104.3 347.9 139.2 367 145 367.1 145.2 397 113.5 363.5 104.3"/><polygon class="cls-2" points="269.8 78.8 241 71 222 101 251.9 110.1 269.8 78.8"/></svg>