<svg id="Hat" xmlns="http://www.w3.org/2000/svg" viewBox="0 0 600 600"><defs><style>.cls-1{fill:#1b1b1b;}.cls-2{fill:#e3bd96;}.cls-3{fill:#936950;}.cls-4{fill:#5e4332;}</style></defs><title>Pepe</title><path class="cls-1" d="M360,158c2,0,48,41,48,41l10-54h7l6-23-7-8,7-33L408,47l-12-4L352,13,257,33l-29-4L205,61l-2,23-10,20-15,18.4-4-.4-10,12,1.7,3.4L139,170l86-5,12,5,37-4v-3.3Z"/><polygon class="cls-2" points="213 65 405 54 414 69 211 81 213 65"/><polygon class="cls-3" points="289 55.6 386.5 50 354 18 256.9 41 289 55.6"/><polygon class="cls-3" points="288.1 81.4 213 85.9 203 101 363 149 405 189 413.2 137.6 288.1 81.4"/><polygon class="cls-3" points="417.1 114.3 422 85 411 74.2 338.8 78.5 417.1 114.3"/><polygon class="cls-2" points="278.3 56.3 234 36 228 49 248 58 278.3 56.3"/><polygon class="cls-2" points="298.9 80.8 422 136 422 122 328.2 79.1 298.9 80.8"/><polygon class="cls-3" points="264 158 356 152 201 105 182 125 264 158"/><polygon class="cls-3" points="171 138 147 165 220 160 171 138"/><polygon class="cls-4" points="267 161 174.6 126.5 167.6 135 238.2 164.6 267 161"/></svg>