<svg id="Hat" xmlns="http://www.w3.org/2000/svg" viewBox="0 0 600 600"><defs><style>.cls-1{fill:#1b1b1b;}.cls-2{fill:#b07150;}.cls-3{fill:#999;}.cls-4{fill:gray;}</style></defs><title>Pepe</title><polygon class="cls-1" points="357 339 353 432 317.1 500 344 517 389 449 399 376 463 334 465 323 486 261 463 203 463 174 419 66 250 54 197 120 362 171 357 339"/><polygon class="cls-2" points="367 348 391 371 384 440 362 430 367 348"/><polygon class="cls-2" points="362 440 379 449 344 508.5 327 495 362 440"/><polygon class="cls-3" points="414 212 460 212 475 261 465 310 415.9 310 391 261 414 212"/><polygon class="cls-4" points="407 212 385 261 411 314 463 314 455 321 408 321 376 263 398 216 407 212"/><polygon class="cls-2" points="404 323 372 263 397 207 455 205.1 455 178 416 74 255 60 209.5 118.5 373 167.4 364 336 402 364 455 333 455 325.6 404 323"/></svg>