<svg id="Hat" xmlns="http://www.w3.org/2000/svg" viewBox="0 0 600 600"><defs><style>.cls-1{fill:#1b1b1b;}.cls-2{fill:#fff;}.cls-3{fill:#fe2d6c;}.cls-4{fill:#4c4422;}.cls-5{fill:#685d31;}.cls-6{fill:#4f4620;}.cls-7{fill:#8a6449;}.cls-8{fill:#5e422e;}</style></defs><title>Pepe</title><polygon class="cls-1" points="437 188 429 103 391 59 270 41 221 62 204 106 189 131 164 162 365 205 442 268 436 222 437 188"/><polygon class="cls-2" points="364.3 102.8 335.7 130.8 379 140 395 123 364.3 102.8"/><polygon class="cls-2" points="325 160 359 176 365 167 325 160"/><polygon class="cls-3" points="353 134 357 126 351 125 360 123 362 130 366 125 376 124 370 128 368 133 376 132 378 135 374 135 369.9 138.1 353 134"/><polygon class="cls-4" points="386.9 109.4 403 120 387.6 136 387.8 142.9 387.8 142.9 432 188 426 105 390 64 385.6 63.4 386.9 109.4"/><polygon class="cls-5" points="381 106 381 62 268 46 228 65 211 109 329.7 129.6 365 95 381 106"/><polygon class="cls-5" points="377 170 369 169 361 182 319.9 160.2 188 136 172 160 371 200 377 170"/><polygon class="cls-6" points="376.5 205 429 252 426 224 380.7 173 376.5 205"/><polygon class="cls-7" points="383 147.1 204.2 114.3 193 132.2 378.2 166.7 383 147.1"/><polygon class="cls-8" points="387.1 147.9 386.6 147.8 381.4 169.4 426 219 432 194 387.1 147.9"/></svg>