<svg id="Hat" xmlns="http://www.w3.org/2000/svg" viewBox="0 0 600 600"><defs><style>.cls-1{fill:#1b1b1b;}.cls-2{fill:#ff8894;}.cls-3{fill:#fff;}</style></defs><title>Pepe</title><polygon class="cls-1" points="394 145 476 -1 348 -1 321 115 289 109 283 -1 145 -1 115 27 150 43 190.3 28.9 237 105 384 136 394 145"/><path class="cls-2" d="M254,105c-1-4-30-93-30-93L200,22l43,77Z"/><polygon class="cls-2" points="344 120 389 0 443 0 372 128 344 120"/><polygon class="cls-3" points="336 120 375 0 355 0 327 120 336 120"/><polygon class="cls-3" points="384 128 453 0 470 0 391 136 384 128"/><polygon class="cls-3" points="280 105 274 0 237.5 0 238 -0.4 151 0 125 27 151 37 229.8 5.3 264 105 280 105"/></svg>