<svg id="Hat" xmlns="http://www.w3.org/2000/svg" viewBox="0 0 600 600"><defs><style>.cls-1{fill:#1b1b1b;}.cls-2{fill:#fff;}.cls-3{fill:#ccc;}.cls-4{fill:#ed1c24;}</style></defs><title>Pepe</title><polygon class="cls-1" points="384 145.6 198 119 179 167 367 200 408 205 483 202 487 167 496 166 483 114 408 169 384 145.6"/><polygon class="cls-2" points="202 127 185 163 364 190 373 154 202 127"/><polygon class="cls-3" points="384 159 372 190.6 414 200 384 159"/><polygon class="cls-3" points="408 179 477 123 487 161 414 187 408 179"/><polygon class="cls-3" points="414 194 479 197 483 167 414 194"/><polygon class="cls-4" points="259 138 239 150 254 167 274 156 259 138"/></svg>