<svg id="Clothes" xmlns="http://www.w3.org/2000/svg" viewBox="0 0 600 600"><defs><style>.cls-1{fill:#1b1b1b;}.cls-2{fill:#fff;}.cls-3{fill:#e8504a;}.cls-4{fill:#fcee21;}.cls-5{fill:#ceb538;}</style></defs><title>Pepe</title><polygon class="cls-1" points="259 495 158 522 144 600 507.6 600 497 510 385.2 495 350 531 294 532 259 495"/><polygon class="cls-2" points="458.4 600 497 600 492.7 528.1 458.4 600"/><polygon class="cls-2" points="166.2 534.5 154 600 192 600 166.2 534.5"/><polygon class="cls-2" points="203.6 600 452.4 600 492 517.1 492 517 390 503 351 535 292 538 257 503 168 525 203.6 600"/><polygon class="cls-3" points="416 535 437 509 425 503 413 533 416 535"/><polygon class="cls-1" points="434 563 421 536 442.6 510.2 427 498 409 493 390 495 387 530 365 551 370 573 342.5 600 437 600 424 579 434 563"/><polygon class="cls-4" points="388 533 411 536 423 563 406 585 376 579 370 554 388 533"/><polygon class="cls-5" points="414 536 425 563 408 586 376 581 378 584 409 590 430 563 417.4 537.8 414 536"/><polygon class="cls-3" points="391 531 394 497 405 497 401 533 391 531"/><polygon class="cls-3" points="404 532 409 498 424 501 411 533 404 532"/><polygon class="cls-3" points="372 576 376 585 372 600 354.2 600 372 576"/><polygon class="cls-3" points="380 586 376 600 398 600 394 588 380 586"/><polygon class="cls-3" points="397 590 400.2 600 411.8 600 408 592 397 590"/><polygon class="cls-3" points="410 592 414.8 600 432.5 600 420 581 410 592"/><polygon class="cls-5" points="250 508 289 544 353 539 386 515 386 525 353 545 287 550 238 513 250 508"/></svg>