<svg id="Clothes" xmlns="http://www.w3.org/2000/svg" viewBox="0 0 600 600"><defs><style>.cls-1{fill:#1b1b1b;}.cls-2{fill:#ff0;}.cls-3{fill:#c1272d;}</style></defs><title>Pepe</title><polygon class="cls-1" points="231 487 259 526 369 530 405 487 465 495 465 503 498 513 498 600 145 600 153 522 231 487"/><polygon class="cls-2" points="228 495 258 533 372 533 414 495 454 500 391 562 250 565 206 508 228 495"/><polygon class="cls-3" points="197 513 240 568 217 600 153 600 164 530 197 513"/><polygon class="cls-3" points="398 565 423 600 486 600 491.7 517 454 508.5 398 565"/><polygon class="cls-3" points="390 568 401.7 600 242.9 600 249 571 390 568"/><rect class="cls-3" x="309.3" y="540.3" width="18.4" height="18.38" transform="translate(481.8 -64.3) rotate(45)"/><rect class="cls-3" x="391.3" y="520.3" width="18.4" height="18.38" transform="translate(491.7 -128.1) rotate(45)"/><rect class="cls-3" x="231.3" y="521.3" width="18.4" height="18.38" transform="translate(445.6 -14.7) rotate(45)"/></svg>