<svg id="Clothes" xmlns="http://www.w3.org/2000/svg" viewBox="0 0 600 600"><defs><style>.cls-1{fill:#1b1b1b;}.cls-2{fill:#333;}.cls-3{fill:#ed1c24;}.cls-4{fill:#ff8894;}</style></defs><title>Pepe</title><polygon class="cls-1" points="240 495 250 600 153 600 164 526 202 511 210 503 240 495"/><polygon class="cls-1" points="383 487 375 600 492 600 498 511 433 500 431 494 383 487"/><polygon class="cls-2" points="235 500 243 600 224 600 210 509 235 500"/><polygon class="cls-2" points="389 492 384 600 419 600 427 498 389 492"/><polygon class="cls-3" points="432 503 426 600 470 600 492 514 432 503"/><polygon class="cls-3" points="204 517 217 600 179 600 174 528 204 517"/><polygon class="cls-4" points="170 533 173 600 160 599.9 170 533"/><polygon class="cls-4" points="474.2 600 495 522 486 600 474.2 600"/></svg>