<svg id="Clothes" xmlns="http://www.w3.org/2000/svg" viewBox="0 0 600 600"><defs><style>.cls-1{fill:#1b1b1b;}.cls-2{fill:#fda5a3;}.cls-3{fill:#ff94a3;}.cls-4{fill:#fff;}</style></defs><title>Pepe</title><polygon class="cls-1" points="364 511 321 530.2 315 569 300 536 264 503 263 471 235 472 217 503 168 524 154 600 486 600 492 514 435 500 390 456 352 454 364 511"/><polygon class="cls-2" points="259 475 257 508 296 545 316 588 327 542 382 517 361 459 389 464 426 504 410 534 352 559 321 600 307 600 280 559 236 551 229 508 245 478 259 475"/><polygon class="cls-2" points="218 511 224 543 162 600 173 529 218 511"/><polygon class="cls-3" points="230 555 174 600 296 600 276 564 230 555"/><polygon class="cls-3" points="336 600 355 564 410 538 471 600 336 600"/><polygon class="cls-2" points="478 595 416 534 437 509 486 517 478 595"/><polygon class="cls-4" points="240 477 226 508 233 551 218 506 240 477"/><polygon class="cls-4" points="328 536 376 517 359 464 369 514 328 536"/></svg>