<svg id="Clothes" xmlns="http://www.w3.org/2000/svg" viewBox="0 0 600 600"><defs><style>.cls-1{fill:#1b1b1b;}.cls-2{fill:#e57cb2;}</style></defs><title>Pepe</title><polyline class="cls-1" points="459.4 600 459 585 438 580 441.6 506 463 497 449 473 432 494 413 475 402 492 424 504 412 573 368 563 314 583 260 560 224 572 230.9 506.6 252 495 240 477 222 497 206 477 192 495 214 506 203 574 174 581 168.5 600"/><polygon class="cls-2" points="453.2 586.7 369 569 319.7 586.7 321 600 453.2 600 453.2 586.7"/><polygon class="cls-2" points="308 585 260 569 179.5 585 174 600 312 600 308 585"/><polygon class="cls-2" points="218 574 226 507 219 507 208 577 218 574"/><polygon class="cls-2" points="222 506 198 495 206 484 222 506"/><polygon class="cls-2" points="223 506 247 495 239 484 223 506"/><polygon class="cls-2" points="433 581 436 504 429 504 416 577 433 581"/><polygon class="cls-2" points="432 503 408 492 416 481 432 503"/><polygon class="cls-2" points="433 503 457 492 449 481 433 503"/></svg>