<svg id="Clothes" xmlns="http://www.w3.org/2000/svg" viewBox="0 0 600 600"><defs><style>.cls-1{fill:#1b1b1b;}.cls-2{fill:#ff8436;}.cls-3{fill:#b44521;}.cls-4{fill:#db6429;}</style></defs><title>Pepe</title><polygon class="cls-1" points="166 517 157 600 278 600 255 489 166 517"/><polygon class="cls-1" points="499 513 384 489 349 600 492 600 499 513"/><polygon class="cls-2" points="250 495 271 600 226 567 244 547 226 524 250 495"/><polygon class="cls-2" points="391 495 358 600 410 564 389 544 417 535 391 495"/><polygon class="cls-3" points="228 508 166 600 175 525 228 508"/><polygon class="cls-3" points="401 500 477 600 492 517 401 500"/><polygon class="cls-4" points="426 540 405 545 417 563 367 600 474 600 426 540"/><polygon class="cls-4" points="220 532 174 600 255 600 220 570 228 547 220 532"/><polygon class="cls-1" points="413 579 408 590 440 591 445 580 413 579"/></svg>