<svg id="Clothes" xmlns="http://www.w3.org/2000/svg" viewBox="0 0 600 600"><defs><style>.cls-1{fill:#1b1b1b;}.cls-2{fill:#0cbbd0;}.cls-3{fill:#fff;}.cls-4{fill:#0097cc;}.cls-5{fill:#ff0;}</style></defs><title>Pepe</title><polygon class="cls-1" points="497.9 600 495 511 393 491 391 465 322 474 327 521 286 517 270 503 270 483 239 465 233 500 164 525 149.2 600 497.9 600"/><polygon class="cls-2" points="167.7 535 180.5 600 157 600 167.7 535"/><polygon class="cls-2" points="490 519 461.3 600 492 600 490 519"/><path class="cls-3" d="M328,524l-12.3-.9L309.9,537l2.7-14.1-13.3-.9c-1.4,5.8-4.3,18.2-4.3,19V521.6l-9-.6-10,36v43h58Z"/><polygon class="cls-3" points="283 521 267 506 272 552 283 521"/><polygon class="cls-4" points="389 495 389 470 328.5 478.4 333.1 521.6 387 537 377.6 600 453.1 600 486 516 389 495"/><polygon class="cls-4" points="265 487 243 470 237 503 173 525.7 184.6 600 234.3 600 222 532 266.3 512 265 487"/><polygon class="cls-5" points="379 564 361 561 359 556 352 561 356 568 360 565 378 569 379 564"/><polygon class="cls-5" points="375 588 357 585 355 580 348 585 352 592 356 589 374 593 375 588"/><polygon class="cls-5" points="233 567 251 564 253 559 260 564 256 571 252 568 234 572 233 567"/><polygon class="cls-2" points="357.2 594.4 350.5 599.4 341.4 583.6 354 574.6 345.4 559.6 361.3 548.2 364.6 556.5 378.3 558.8 382 539 333.8 527.6 341.5 600 370.7 600 371.2 597.5 357.2 594.4"/><polygon class="cls-2" points="357.6 573 360.6 580.5 373.9 582.8 375.6 573.6 361.2 570.4 357.6 573"/><polygon class="cls-2" points="254.4 576 250.8 573.4 237.4 576.4 239.3 585.6 251.4 583.5 254.4 576"/><polygon class="cls-2" points="254.8 597.4 243.1 600 258.3 600 254.8 597.4"/><polygon class="cls-2" points="247.4 559.5 250.7 551.2 266.6 562.6 258 577.6 270.3 586.3 266.7 519.1 229 535 234.4 561.7 247.4 559.5"/><polygon class="cls-2" points="262.9 600 271 600 270.3 587 262.9 600"/><polygon class="cls-5" points="237 591 255 588 257 583 264 588 260 595 256 592 238 596 237 591"/></svg>