<svg id="Clothes" xmlns="http://www.w3.org/2000/svg" viewBox="0 0 600 600"><defs><style>.cls-1{fill:#1b1b1b;}.cls-2{fill:#bb6440;}.cls-3{fill:#f7931e;}.cls-4{fill:gray;}.cls-5{fill:#ed1c24;}</style></defs><title>Pepe</title><polygon class="cls-1" points="357 600 379 548 381 490 416 500 434 550 441 600 357 600"/><polygon class="cls-1" points="258 600 250 552 258 490 227 503 199 558 197 600 258 600"/><polygon class="cls-2" points="255 495 243 552 252 600 202 600 205 556 234 503 255 495"/><polyline class="cls-2" points="384 495 384 550 364 600 435 600 428 551 410 500"/><polygon class="cls-3" points="225 542 211 561 223 588 240 562 225 542"/><polygon class="cls-4" points="399 551 390 565 394 588 414 588 420 566 414 551 399 551"/><polygon class="cls-5" points="402 519 395 532 412 533 402 519"/></svg>