<svg id="Clothes" xmlns="http://www.w3.org/2000/svg" viewBox="0 0 600 600"><defs><style>.cls-1{fill:#1b1b1b;}.cls-2{fill:#8cc63f;}.cls-3{fill:#006837;}.cls-4{fill:#7a8fba;}</style></defs><title>Pepe</title><polygon class="cls-1" points="257 482 228 487 209 508 164 523 153 600 496 600 496 508 423 500 411 470 365 470 361 499 326 513 309 571 289 517 270 514 257 482"/><path class="cls-2" d="M236,495l27,33h17l6,26V521s-21,0-21-4-10-29-10-29Z"/><polygon class="cls-3" points="228 495 256 534 274 534 283 560 256 560 217 511.2 228 495"/><polygon class="cls-3" points="335 527 331 560 390 554 417 500 411 478 384 519 335 527"/><polygon class="cls-2" points="327 550 331 517 369 501 371 476 406 475 379 514 335 523 327 550"/><polygon class="cls-4" points="445.6 508.5 492 514 486 600 431.7 600 445.6 508.5"/><polygon class="cls-4" points="181.7 522.8 192.1 600 159.5 600 173 527 181.7 522.8"/><polygon class="cls-4" points="292 536 292 600 318.2 600 322 536 309 581 292 536"/><polygon class="cls-3" points="271 595 285.1 590.3 283 567 250 567 209.5 513.7 188.5 520.6 197.9 589.4 230 594 198.6 594.7 199.3 600 286 600 285.5 595 271 595"/><path class="cls-3" d="M392,595l30.1-4.4L438,508l-15.4-5L397,563l-66,7s-2.6,11-3.9,19.7L349,595H326.4c-.3,3-.2,5,.6,5h93.2l1-5Z"/></svg>