<svg id="Clothes" xmlns="http://www.w3.org/2000/svg" viewBox="0 0 600 600"><defs><style>.cls-1{fill:#1b1b1b;}.cls-2{fill:#c7b299;}.cls-3{fill:#a67c52;}</style></defs><title>Pepe</title><polygon class="cls-1" points="253 514 234 550 224 553 230 572 236 571 240 577 255 574 255 559 273 529 287 534 280 560 335 592 331 565 336 542 352 538 352 543 364 541 373 565 361 572 376 592 408 579 403 561 389 558 385 537 391 529 389 522 410 501 404 495 382 514 356 519 350 526 340 529 338 525 294 520 291 525 282 521 282 509 273 505 271 500 259 501 253 495 244 499 253 514"/><polygon class="cls-2" points="296 526 285 557 329 584 327 563 335 531 296 526"/><polygon class="cls-2" points="369 525 360 522 354 528 356 538 369 536 379 566 370 574 379 586 387 579 387 574 394 576 403 574 399 563 387 563 378 536 387 527 379 517 373 519 369 525"/><polygon class="cls-2" points="259 514 237 553 228 558 233 567 240 565 240 571 250 571 250 558 270 525 278 521 278 510 270 512 267 503 256 508 259 514"/><polygon class="cls-3" points="252 506 257 503 252 498 248 500 252 506"/><polygon class="cls-3" points="280 523 275 526 288 531 289 526 280 523"/><polygon class="cls-3" points="340 532 338 538 351 535 350 529 340 532"/><polygon class="cls-3" points="384 516 387 518 407 501 403 498 384 516"/></svg>