<svg id="Clothes" xmlns="http://www.w3.org/2000/svg" viewBox="0 0 600 600"><defs><style>.cls-1{fill:#1b1b1b;}.cls-2{fill:#404153;}</style></defs><title>Pepe</title><polygon class="cls-1" points="260 468 260 476 321 482 360 462 354 454 391 449 395 492 495 514 486 600 153 600 164 525 236 498 228 473 260 468"/><polygon class="cls-2" points="237 503 168 530 160 600 249 509 237 503"/><polygon class="cls-2" points="258 509 327 517 382 506 471 600 168 600 258 509"/><polygon class="cls-2" points="387 503 479 600 486 517 389 498 387 503"/><polygon class="cls-2" points="375 485 385.8 468.8 384 454 360 454 373.7 459 322 488 243 479 255 471 234 478 238.1 489.5 261 493 240 494.6 243 503 327 509 389 495 386.9 477.4 375 485"/></svg>