<svg id="Clothes" xmlns="http://www.w3.org/2000/svg" viewBox="0 0 600 600"><defs><style>.cls-1{fill:#1b1b1b;}.cls-2{fill:#d6dfee;}.cls-3{fill:#7797da;}</style></defs><title>Pepe</title><polyline class="cls-1" points="259 492 126 546 126 600 510 600 510 522 386.4 495"/><polygon class="cls-2" points="370 533.8 387 562 314 600 370 533.8"/><polygon class="cls-2" points="373.4 529.7 383.5 546 398 546 406 505 396 503 373.4 529.7"/><polygon class="cls-2" points="276 600 257.6 530.5 228 555 276 600"/><polygon class="cls-2" points="239 540 256.2 525.4 250 503 232.7 508 228 540 239 540"/><polygon class="cls-2" points="456.1 600 498 600 498 531.9 456.1 600"/><polygon class="cls-2" points="446.4 600 498 523 408.4 505.4 404 550 387 550 396 564 323 600 446.4 600"/><polygon class="cls-2" points="183.2 600 270 600 221 558 234 544 222 543 228 510 135 548 135 548.1 183.2 600"/><polygon class="cls-2" points="133 553 133 600 171.6 600 133 553"/><polygon class="cls-3" points="370.6 525.6 391 503 328 505 338 534 370.6 525.6"/><polygon class="cls-3" points="285 539 289.5 503 257 503 264.7 531.4 285 539"/><polygon class="cls-3" points="335 540 323.5 509.6 305 534 295.7 511.7 290 545 266.7 538.6 288 617 365.1 531.6 335 540"/></svg>