<svg id="Clothes" xmlns="http://www.w3.org/2000/svg" viewBox="0 0 600 600"><defs><style>.cls-1{fill:#1b1b1b;}.cls-2{fill:#666;}.cls-3{fill:#333;}.cls-4{fill:#fff;}</style></defs><title>Pepe</title><polygon class="cls-1" points="166 517 157 600 278 600 255 489 166 517"/><polygon class="cls-1" points="499 513 384 489 349 600 492 600 499 513"/><polygon class="cls-2" points="250 495 271 600 226 567 244 547 226 524 250 495"/><polygon class="cls-2" points="391 495 358 600 410 564 389 544 417 535 391 495"/><polygon class="cls-3" points="228 508 166 600 175 525 228 508"/><polygon class="cls-3" points="401 500 477 600 492 517 401 500"/><polygon class="cls-3" points="426 540 405 545 417 563 367 600 474 600 426 540"/><polygon class="cls-3" points="220 532 174 600 255 600 220 570 228 547 220 532"/><rect class="cls-4" x="231" y="520" width="7" height="7" transform="translate(438.9 -12.5) rotate(45)"/><rect class="cls-4" x="231" y="562" width="7" height="7" transform="translate(468.6 -0.2) rotate(45)"/><rect class="cls-4" x="403.9" y="527.8" width="7" height="7" transform="translate(495 -132.4) rotate(45)"/><rect class="cls-4" x="394.9" y="558.8" width="7" height="7" transform="translate(514.3 -117) rotate(45)"/></svg>