<svg id="Clothes" xmlns="http://www.w3.org/2000/svg" viewBox="0 0 600 600"><defs><style>.cls-1{fill:#1b1b1b;}.cls-2{fill:#bda6ae;}.cls-3{fill:#fff;}.cls-4{fill:#ccc;}.cls-5{fill:#2e3192;}.cls-6{fill:#ff4e4a;}</style></defs><title>Pepe</title><polygon class="cls-1" points="259 472 259 489 335 495 371 481 361 466 409 462 414 498 492 514 486 600 155 600 164 522 224 501 224 476 259 472"/><polygon class="cls-2" points="249 476 250 481 238 486 273 495 335 500 389 476 379 476 372 466 403 466 409 500 338 536 265 530 228 512 231 481 249 476"/><polygon class="cls-3" points="221 509 171 526 161 600 243 527 221 509"/><polygon class="cls-3" points="248 529 263 536 338 542 389 522 465 600 375 600 375 555 255 555 250 600 170 600 248 529"/><polygon class="cls-4" points="258.5 561 256 600 347 600 347 561 258.5 561"/><rect class="cls-5" x="351" y="561" width="20" height="39"/><polygon class="cls-3" points="484.1 551.1 489 517 409 503 390 517 477 600 480.6 575.1 444 565 449 545 484.1 551.1"/><polygon class="cls-5" points="451 548 449 556 460 558 462 550 451 548"/><polygon class="cls-6" points="464 551 463 555 483 560 484 554 464 551"/><polygon class="cls-6" points="461 560 482 565 483 562 462 556 461 560"/><polygon class="cls-6" points="446 564 481 573 482 567 448 559 446 564"/></svg>