<svg id="Clothes" xmlns="http://www.w3.org/2000/svg" viewBox="0 0 600 600"><defs><style>.cls-1{fill:#1b1b1b;}.cls-2{fill:#42210b;}.cls-3{fill:#f7c14e;}.cls-4{fill:#fcee21;}.cls-5{fill:#f7931e;}.cls-6{fill:#fff;}</style></defs><title>Pepe</title><polygon class="cls-1" points="255 600 255 570 289 585 344 583 377 574 377 600 484 600 492 514 406 495 358 460 363 530 339 550 292 550 285 541 257 534 257 479 217 503 168 519 155 600 255 600"/><polygon class="cls-2" points="365 471 379 561 404 503 365 471"/><polygon class="cls-2" points="255 483 249 561 221 509 255 483"/><polygon class="cls-3" points="210 509 250 571 250 600 188 600 176 522 210 509"/><polygon class="cls-3" points="414 503 385 561 384 600 445 600 486 517 414 503"/><polygon class="cls-4" points="258 541 255 559 271 566 263 543 258 541"/><polygon class="cls-5" points="268 543 275 569 289 574 281 546 268 543"/><polygon class="cls-4" points="289 553 295 578 308 579 301 557 289 553"/><polygon class="cls-5" points="305 557 315 577 330 577 318 557 305 557"/><polygon class="cls-4" points="323 555 339 574 355 573 339 553 323 555"/><polygon class="cls-5" points="349 551 367 568 377 561 359 542 349 551"/><polygon class="cls-4" points="363 540 375 555 370 530 363 540"/><polygon class="cls-6" points="347 551 342 551 361 565 347 551"/><polygon class="cls-6" points="282 546 289 570 285 546 282 546"/><polygon class="cls-3" points="487 522 478.6 600 452.1 600 487 522"/><polygon class="cls-3" points="183.9 600 174 525 159.4 600 183.9 600"/></svg>