<svg id="Clothes" xmlns="http://www.w3.org/2000/svg" viewBox="0 0 600 600"><defs><style>.cls-1{fill:#1b1b1b;}.cls-2{fill:#4f485a;}.cls-3{fill:#c1272d;}.cls-4{fill:#fff;}.cls-5{fill:#ff0;}</style></defs><title>Pepe</title><polygon class="cls-1" points="494 601 494 512 390 493 396 465 324 470 310 512 282 476 232 475 238 498 167 526 153 600 494 601"/><polygon class="cls-2" points="238 503 283 529 292 517 238 503"/><polygon class="cls-2" points="327 517 335 529 396 495 327 517"/><polygon class="cls-2" points="295 517 274.1 571.3 288 600 344 600 351 583.3 324 519 309 523 295 517"/><polygon class="cls-3" points="235 505 282 601 202 601 200 522 235 505"/><polygon class="cls-3" points="396 498 349 601 435 600 443 508 396 498"/><polygon class="cls-4" points="238 480 249 503 309 517 280 480 238 480"/><polygon class="cls-4" points="313 517 385 496 389 468 327 476 313 517"/><polygon class="cls-4" points="355 578 389 503 337 532 355 578"/><polygon class="cls-4" points="270 567 280 532 241 508 270 567"/><polygon class="cls-4" points="173 529 160 600 198 600 194 524 173 529"/><polygon class="cls-4" points="450 509 440 601 486 601 488 517 450 509"/><polygon class="cls-1" points="310 555 301 573 312 586 324 571 310 555"/><polygon class="cls-5" points="311.1 561.7 306 571.9 312.2 579.3 319 570.8 311.1 561.7"/></svg>