<svg id="Clothes" xmlns="http://www.w3.org/2000/svg" viewBox="0 0 600 600"><defs><style>.cls-1{fill:#1b1b1b;}.cls-2{fill:#fff;}.cls-3{fill:none;}.cls-4{fill:#2e3192;}</style></defs><title>Pepe</title><polygon class="cls-1" points="241 492 164 524 146 600 492 600 496 512 392 490 313 546 241 492"/><polygon class="cls-2" points="397 500 312 555 241 500 174 528 161 600 201.4 600 183 543 207.1 600 426.6 600 473 529 437.3 600 480 600 486 517 397 500"/><polygon class="cls-3" points="452.7 560 457.4 560 466 543 463.8 543 452.7 560"/><polygon class="cls-3" points="188.5 560 190.2 560 183 543 188.5 560"/><polygon class="cls-2" points="183 543 171.3 543 168.2 560 188.5 560 183 543"/><polygon class="cls-2" points="466 543 457.4 560 482.9 560 484.1 543 466 543"/><polygon class="cls-4" points="447.8 579 481.5 579 482.9 560 457.4 560 447.8 579"/><polygon class="cls-4" points="190.2 560 198.2 579 440.3 579 452.7 560 190.2 560"/><polygon class="cls-4" points="168.2 560 164.8 579 194.6 579 188.5 560 168.2 560"/><polygon class="cls-4" points="296.5 543 272 524 183.6 524 174 528 171.3 543 183 543 296.5 543"/><polygon class="cls-4" points="463.8 543 473 529 466 543 484.1 543 485.5 524 359.9 524 330.5 543 463.8 543"/><polygon class="cls-4" points="241 500 225.7 506.4 312 569 413.2 503.1 397 500 312 555 241 500"/></svg>