<svg id="Clothes" xmlns="http://www.w3.org/2000/svg" viewBox="0 0 600 600"><defs><style>.cls-1{fill:#1b1b1b;}.cls-2{fill:#009245;}.cls-3{fill:aqua;}.cls-4{fill:#93278f;}.cls-5{fill:#f7931e;}.cls-6{fill:#ff4e4a;}.cls-7{fill:#ff0;}.cls-8{fill:#fff;}</style></defs><title>Pepe</title><polygon class="cls-1" points="183 519 190.1 590.7 187 592 191 600 239 600 237 580 233 581 224 505 183 519"/><polygon class="cls-1" points="429 600 431 584 422 581 431 497 393 492 383 575 377 578 377 594 385 597 385 600 429 600"/><polygon class="cls-2" points="398 495 387 578 398 580 405 495 398 495"/><polygon class="cls-3" points="408 495 399 580 408 580 416 497 408 495"/><polygon class="cls-4" points="418 497 411 581 418 581 426 500 418 497"/><polygon class="cls-5" points="380 584 427 589 425 596 419 596 419 600 391 600 389 593 381 592 380 584"/><polygon class="cls-6" points="203 588 197 517 187 521 195 589 203 588"/><polygon class="cls-5" points="206 587 215 586 210 514 201 517 206 587"/><polygon class="cls-7" points="230 585 219 586 212 513 220 510 230 585"/><polygon class="cls-5" points="192 596 234 589 234 600 194 600 192 596"/><polygon class="cls-8" points="234 586 190 593 191.1 595 234 588 234 586"/><polygon class="cls-8" points="380 580 380 583 427 588 428 585 380 580"/></svg>