<svg id="Clothes" xmlns="http://www.w3.org/2000/svg" viewBox="0 0 600 600"><defs><style>.cls-1{fill:#1b1b1b;}.cls-2{fill:#333;}.cls-3{fill:#fff;}</style></defs><title>Pepe</title><polygon class="cls-1" points="393 484 318 550 245 490 185 514 188 517 168 524 153 600 510 600 492 514 456 508 458 500 393 484"/><polygon class="cls-2" points="300 554 202 511 191 515 300 554"/><polygon class="cls-2" points="340 555 441 500 451 503 340 555"/><polygon class="cls-2" points="245 495 213 507 313 552 245 495"/><polygon class="cls-2" points="396 490 322 552 425 497 396 490"/><polygon class="cls-2" points="300 583 332 583 339 558 296 558 300 583"/><polygon class="cls-2" points="313 587 321 600 346 600 330 587 313 587"/><polygon class="cls-2" points="300 587 292 600 312 600 313 594 307 587 300 587"/><polygon class="cls-3" points="193 521 174 527 211 600 286 600 292 583 286 552 193 521"/><polygon class="cls-3" points="447 508 346 558 339 583 355 600 459 600 485 517 447 508"/><polygon class="cls-3" points="164 600 202 600 173 535 164 600"/><polygon class="cls-3" points="489 517 464 600 502 600 489 517"/><polygon class="cls-3" points="428 498 332 552 338 554 436 500 428 498"/><polygon class="cls-3" points="205 510 305 554 311 553 210 508 205 510"/></svg>