<svg id="Mouth" xmlns="http://www.w3.org/2000/svg" viewBox="0 0 600 600"><defs><style>.cls-1{fill:#1b1b1b;}.cls-2{fill:#ff958d;}.cls-3{fill:#be424c;}.cls-4{fill:#a67c52;}.cls-5{fill:#754c24;}</style></defs><title>Pepe</title><polygon class="cls-1" points="262.7 370.3 202.2 359.6 138.3 338.1 102 347 107.2 368.5 130.6 386.1 63 444 114 484 188 489 189.9 391.8 195.3 391.8 240.3 413.3 273.1 407.9 280 391.8 262.7 370.3"/><polygon class="cls-2" points="188.4 363.2 259.3 375.7 257.5 388.2 188.4 370.3 188.4 363.2"/><polygon class="cls-3" points="262.7 377.5 259.3 395.4 245.4 397.2 245.4 406.1 266.2 406.1 273.1 391.8 262.7 377.5"/><polygon class="cls-3" points="244 396 243 407 204 388.2 218 388 244 396"/><polygon class="cls-3" points="204 382.9 187.5 380.8 188.4 386.1 198.8 386.4 215 387 204 382.9"/><polygon class="cls-3" points="136 383 145 375 121 370.3 136 383"/><polygon class="cls-2" points="185 361.4 185 370.3 115 351 136.6 347 185 361.4"/><polygon class="cls-2" points="133.1 357.8 137.7 368.5 117.6 366.7 114.1 352.4 133.1 357.8"/><polygon class="cls-4" points="125.5 459.5 184 459.5 184 373 159 366 86.7 432.4 125.5 459.5"/><polygon class="cls-5" points="124.5 462.5 84.4 434.5 73 445 121 475 184 481 184 462.5 124.5 462.5"/><polygon class="cls-1" points="139.1 416.8 122.9 409.8 108.6 420.3 110.6 437.9 126.8 445 141.1 434.4 139.1 416.8"/><polygon class="cls-3" points="136.5 418 124.1 412.5 113.2 420.6 114.7 434 127.1 439.5 138 431.4 136.5 418"/><polygon class="cls-1" points="175.2 404.8 163.6 399.8 153.4 407.3 154.8 419.9 166.4 425 176.7 417.5 175.2 404.8"/><polygon class="cls-3" points="172.7 405.7 164.6 402.2 157.5 407.5 158.5 416.3 166.6 419.8 173.7 414.5 172.7 405.7"/></svg>