<svg id="Mouth" xmlns="http://www.w3.org/2000/svg" viewBox="0 0 600 600"><defs><style>.cls-1{fill:#1b1b1b;}.cls-2{fill:#be424c;}.cls-3{fill:#ff958d;}.cls-4{fill:#fff;}.cls-5{fill:#ed9d8c;}</style></defs><title>Pepe</title><polygon class="cls-1" points="242.2 327.8 293 381.8 277.1 412 199.3 421.5 131 402.5 132.6 354.8 167.5 321.5 242.2 327.8"/><polygon class="cls-2" points="272.4 388.2 232.6 346.9 239 332.6 286.6 385 272.4 388.2"/><path class="cls-3" d="M235.8,331s-4.7,14.3-6.3,14.3-60.4-7.9-60.4-7.9l3.2-11.2Z"/><polygon class="cls-3" points="165.9 326.2 167.5 340.5 148.5 358 137.4 354.8 165.9 326.2"/><polygon class="cls-3" points="148.5 362.8 148.5 388.2 134.2 394.5 137.4 358 148.5 362.8"/><polygon class="cls-2" points="150.1 392.9 202.5 404.1 270.8 392.9 286.6 389.8 270.8 407.2 199.3 416.8 137.4 399.3 150.1 392.9"/><polygon class="cls-4" points="248.5 369.1 227.9 367.5 227.9 348.5 248.5 369.1"/><polygon class="cls-4" points="224.7 348.5 224.7 365.9 202.5 365.9 202.5 343.7 224.7 348.5"/><polygon class="cls-4" points="197.7 343.7 197.7 365.9 175.5 365.9 173.9 342.1 197.7 343.7"/><polygon class="cls-4" points="169.1 343.7 170.7 362.8 153.2 364.4 154.8 356.4 169.1 343.7"/><polygon class="cls-5" points="198 378 206 400 258.1 391.4 243.8 383.4 234.2 370.7 170.7 369.1 164.4 378.6 170.7 394.5 201.3 400.4 198 378"/></svg>