<svg id="Mouth" xmlns="http://www.w3.org/2000/svg" viewBox="0 0 600 600"><defs><style>.cls-1{fill:#1b1b1b;}.cls-2{fill:#ff958d;}.cls-3{fill:#be424c;}.cls-4{fill:#fff;}.cls-5{fill:#ed9d8c;}</style></defs><title>Pepe</title><polygon class="cls-1" points="192.8 326 215.8 371.9 182.8 412 149.8 412 131.2 391.9 135.5 360.4 149.8 326 192.8 326"/><path class="cls-2" d="M198.6,373.3l-15.8-28.7-21.5-4.3-11.4,20.1s-8.6,0-8.6-1.4,10-30.1,10-30.1l37.2,1.4L210,369Z"/><polygon class="cls-3" points="208.6 374.7 197.2 377.6 175.7 396.2 154.2 396.2 147 389.1 149.8 369 139.8 366.1 136.9 393.4 151.3 407.7 179.9 407.7 208.6 374.7"/><polygon class="cls-4" points="187.1 383.3 175.7 393.4 155.6 394.8 149.8 387.6 149.8 380.5 187.1 383.3"/><polygon class="cls-5" points="190 363.3 197.2 374.7 188.6 381.9 168.5 380.5 177.1 367.6 190 363.3"/></svg>