<svg id="Mouth" xmlns="http://www.w3.org/2000/svg" viewBox="0 0 600 600"><defs><style>.cls-1{fill:#1b1b1b;}.cls-2{fill:#ff958d;}.cls-3{fill:#be424c;}.cls-4{fill:#fff;}</style></defs><title>Pepe</title><polygon class="cls-1" points="116.5 344.2 139.7 321 188.9 351.1 249 371.5 254.5 407.1 187.5 418 158.9 405.7 127.4 405.7 120.6 387.9 123.3 368.8 116.5 344.2"/><polygon class="cls-2" points="232.6 394.8 229.9 383.8 178 363.4 145.2 341.5 131.5 348.3 123.3 341.5 139.7 326.5 183.5 352.4 242.2 374.3 246.3 400.2 232.6 394.8"/><polygon class="cls-3" points="231.3 396.1 244.9 401.6 187.5 412.5 157.5 400.2 131.5 400.2 127.4 389.3 128.8 367.5 120.6 347 132.9 351.1 138.4 366.1 137 389.3 160.2 389.3 188.9 400.2 231.3 396.1"/><polygon class="cls-4" points="227.2 393.4 212.1 394.8 209.4 378.4 224.4 385.2 227.2 393.4"/><polygon class="cls-4" points="203.9 378.4 206.7 394.8 188.9 397.5 187.5 377 203.9 378.4"/><polygon class="cls-4" points="183.5 378.4 184.8 396.1 169.8 389.3 169.8 374.3 183.5 378.4"/><polygon class="cls-4" points="168.4 374.3 167.1 387.9 153.4 387.9 156.1 371.5 168.4 374.3"/><polygon class="cls-4" points="153.4 370.2 150.7 386.6 142.5 386.6 146.6 366.1 153.4 370.2"/></svg>