<svg id="Mouth" xmlns="http://www.w3.org/2000/svg" viewBox="0 0 600 600"><defs><style>.cls-1{fill:#1b1b1b;}.cls-2{fill:#ff958d;}.cls-3{fill:#be424c;}.cls-4{fill:#fff;}</style></defs><title>Pepe</title><polygon class="cls-1" points="113 375 128 352 155 359 207 339 234 370 214 403 127 400 113 375"/><polygon class="cls-2" points="204 342 228 369 218 374 202 351 160 374 130 368 122 377 118 372 128 357 157 364 204 342"/><polygon class="cls-3" points="228 377 218 378 212 389 131 388 125 381 118 377 128 396 213 399 228 377"/><polygon class="cls-4" points="200 355 214 375 204 383 199 377 196 357 200 355"/><polygon class="cls-4" points="193 359 195 379 181 381 180 369 193 359"/><polygon class="cls-4" points="176 373 176 381 159 383 159 377 176 373"/><polygon class="cls-4" points="155 377 155 381 141 381 141 373 155 377"/><polygon class="cls-4" points="136 373 136 379 126 379 130 372 136 373"/></svg>