<svg id="Mouth" xmlns="http://www.w3.org/2000/svg" viewBox="0 0 600 600"><defs><style>.cls-1{fill:#1b1b1b;}.cls-2{fill:#fefaee;}.cls-3{fill:#ff958d;}.cls-4{fill:#be424c;}</style></defs><title>Pepe</title><polygon class="cls-1" points="218.7 318 258.7 361.1 232.2 431.3 134 437 109 389.2 115.8 378.3 102.3 362.2 119.4 337.2 218.7 318"/><polygon class="cls-2" points="178.5 348.2 163.6 351.2 163.6 373.6 181.5 371.4 178.5 348.2"/><polygon class="cls-2" points="181.7 372.9 163.6 375.2 163.6 416.8 187.1 415.2 181.7 372.9"/><polygon class="cls-2" points="234.1 366.4 205.7 369.9 220 412.1 234.1 366.4"/><polygon class="cls-2" points="144.8 376 162.1 373.8 162.1 351.5 146.9 354.5 144.8 376"/><polygon class="cls-2" points="205.2 368.4 233.3 364.9 209.9 341.9 197 344.5 205.2 368.4"/><polygon class="cls-2" points="143.1 377.8 127.2 379.8 127.2 379.8 139.4 415.8 143.1 377.8"/><polygon class="cls-2" points="162.1 375.4 144.7 377.6 140.7 418.1 162.1 416.9 162.1 375.4"/><polygon class="cls-2" points="195.5 344.8 180 347.9 183 371.2 203.6 368.6 195.5 344.8"/><polygon class="cls-2" points="218.7 413.1 204.1 370.1 183.2 372.7 188.7 415.1 218.7 413.1"/><polygon class="cls-2" points="143.2 376.2 145.3 354.8 131.9 357.5 127.6 378.2 143.2 376.2"/><path class="cls-3" d="M120,378.3l8.8-25.5,80-15.6,6.3-14-93.6,18.7s-15.1,20.8-14.5,21.8S120,378.3,120,378.3Z"/><polygon class="cls-3" points="114.2 389.2 136.6 430.2 221.8 415.7 139.2 420.9 120 378.3 114.2 389.2"/><polygon class="cls-4" points="218.7 323.2 210.9 336.7 240 363.7 224.9 418.3 140.7 432.3 229.6 426.6 253.5 361.1 218.7 323.2"/></svg>