<svg id="Mouth" xmlns="http://www.w3.org/2000/svg" viewBox="0 0 600 600"><defs><style>.cls-1{fill:#1b1b1b;}.cls-2{fill:#ff958d;}.cls-3{fill:#be424c;}.cls-4{fill:#ed9d8c;}</style></defs><title>Pepe</title><polygon class="cls-1" points="221.9 339.6 260.8 387 252.4 409 188 402.2 125.3 409 115.2 390.4 130.4 349.7 174.4 326 221.9 339.6"/><path class="cls-2" d="M250.7,383.6,240.5,387l-27.1-30.5s-33.9-11.9-35.6-11.9-32.1,13.6-32.1,13.6l-13.6,32.2-11.9-1.7,13.6-35.6,42.3-23.7,42.4,15.2Z"/><polygon class="cls-3" points="254.1 388.7 249 403.9 186.3 398.8 127 403.9 120.2 392.1 186.3 388.7 254.1 388.7"/><polygon class="cls-4" points="227 378.5 210 380.2 201.6 385.3 154.1 387 152.4 378.5 167.7 365 188 363.3 177.8 375.1 193.1 363.3 213.4 363.3 227 378.5"/></svg>