<svg id="Mouth" xmlns="http://www.w3.org/2000/svg" viewBox="0 0 600 600"><defs><style>.cls-1{fill:#1b1b1b;}.cls-2{fill:#ff958d;}.cls-3{fill:#be424c;}.cls-4{fill:#fff;}</style></defs><title>Pepe</title><polygon class="cls-1" points="174.4 332.5 278 390.6 270.7 408.8 261.6 407 248.9 416.1 236.2 408.8 178 427 136.2 416.1 119.8 381.5 118 343.4 174.4 332.5"/><polygon class="cls-2" points="139.8 379.7 139.8 361.5 158 357.9 265.3 401.5 270.7 390.6 174.4 339.7 125.3 347 125.3 376.1 139.8 379.7"/><polygon class="cls-3" points="139.8 385.2 156.2 403.4 232.5 390.6 258 403.4 248.9 408.8 236.2 401.5 176.2 419.7 139.8 410.6 130.7 388.8 139.8 385.2"/><polygon class="cls-4" points="145.3 365.2 167.1 376.1 201.6 379.7 158 359.7 145.3 365.2"/><polygon class="cls-4" points="148.9 379.7 163.5 392.5 188.9 394.3 159.8 399.7 145.3 385.2 148.9 379.7"/></svg>