<svg id="Mouth" xmlns="http://www.w3.org/2000/svg" viewBox="0 0 600 600"><defs><style>.cls-1{fill:#1b1b1b;}.cls-2{fill:#ff958d;}.cls-3{fill:#be424c;}</style></defs><title>Pepe</title><polygon class="cls-1" points="262.7 370.3 280 391.8 273.1 407.9 240.3 413.3 195.3 391.8 138.3 391.8 107.2 368.5 102 347 138.3 338.1 202.2 359.6 262.7 370.3"/><polygon class="cls-2" points="188.4 363.2 259.3 375.7 257.5 388.2 188.4 370.3 188.4 363.2"/><polygon class="cls-3" points="262.7 377.5 259.3 395.4 245.4 397.2 245.4 406.1 266.2 406.1 273.1 391.8 262.7 377.5"/><polygon class="cls-3" points="244 396 243 407 204 388.2 218 388 244 396"/><polygon class="cls-3" points="215 387 198.8 386.4 138.3 384.6 121 370.3 146.9 375.7 204 382.9 215 387"/><polygon class="cls-2" points="257 391 242 393.6 207 383 199 376 257 391"/><polygon class="cls-2" points="196 376 204 382 120 369 196 376"/><polygon class="cls-2" points="185 361.4 185 370.3 115 351 136.6 347 185 361.4"/><polygon class="cls-2" points="133.1 357.8 137.7 368.5 117.6 366.7 114.1 352.4 133.1 357.8"/></svg>