<svg id="Mouth" xmlns="http://www.w3.org/2000/svg" viewBox="0 0 600 600"><defs><style>.cls-1{fill:#1b1b1b;}.cls-2{fill:#ff958d;}.cls-3{fill:#be424c;}.cls-4{fill:#754c24;}.cls-5{fill:#ed1c24;}</style></defs><title>Pepe</title><polygon class="cls-1" points="262.7 370.3 202.2 359.6 138.3 338.1 108.6 345.4 82 333 22 341 20 375 83 387 123 380.3 138.3 391.8 195.3 391.8 240.3 413.3 273.1 407.9 280 391.8 262.7 370.3"/><polygon class="cls-2" points="188.4 363.2 259.3 375.7 257.5 388.2 188.4 370.3 188.4 363.2"/><polygon class="cls-3" points="262.7 377.5 259.3 395.4 245.4 397.2 245.4 406.1 266.2 406.1 273.1 391.8 262.7 377.5"/><polygon class="cls-3" points="244 396 243 407 204 388.2 218 388 244 396"/><polygon class="cls-3" points="215 387 198.8 386.4 138.3 384.6 123 375 146.9 375.7 204 382.9 215 387"/><polygon class="cls-2" points="257 391 242 393.6 207 383 199 376 257 391"/><polygon class="cls-2" points="196 376 204 382 145 373 196 376"/><polygon class="cls-2" points="185 361.4 185 370.3 115 351 136.6 347 185 361.4"/><polygon class="cls-4" points="143 362 84 341 36 346 36 372 79 380 145 369 143 362"/><polygon class="cls-5" points="32 347 26 346 26 370 32 371 32 347"/></svg>