<svg id="Mouth" xmlns="http://www.w3.org/2000/svg" viewBox="0 0 600 600"><defs><style>.cls-1{fill:#1b1b1b;}.cls-2{fill:#ff958d;}.cls-3{fill:#be424c;}.cls-4{fill:#fff;}.cls-5{fill:#ed9d8c;}</style></defs><title>Pepe</title><polygon class="cls-1" points="230.7 309 270.2 351.1 263.8 391.9 215.4 425 167 421.2 130 374 130 356.2 147.8 352.3 187.4 309 230.7 309"/><polygon class="cls-2" points="216.7 324.3 249.8 361.3 266.4 353.6 228.2 312.8 189.9 312.8 146.6 357.4 136.4 360 136.4 368.9 146.6 368.9 193.7 324.3 216.7 324.3"/><polygon class="cls-3" points="252.4 365.1 249.8 385.5 211.6 409.7 172.1 407.2 144 374 136.4 374 167 416.1 214.1 419.9 260 389.3 263.8 361.3 252.4 365.1"/><polygon class="cls-4" points="235.8 351.1 168.2 353.6 193.7 328.1 215.4 328.1 235.8 351.1"/><polygon class="cls-4" points="249.8 367.6 226.9 384.2 172.1 389.3 158 374 147.8 374 172.1 404.6 211.6 407.2 248.5 384.2 249.8 367.6"/><polygon class="cls-5" points="226.9 366.4 214.1 382.9 175.9 388 167 374 172.1 356.2 191.2 354.9 196.3 357.4 188.6 372.7 202.7 354.9 232 353.6 238.4 353.6 247.3 363.8 226.9 366.4"/></svg>