<svg id="Mouth" xmlns="http://www.w3.org/2000/svg" viewBox="0 0 600 600"><defs><style>.cls-1{fill:#1b1b1b;}.cls-2{fill:#be424c;}.cls-3{fill:#f2f2f2;}.cls-4{fill:#ff958d;}</style></defs><title>Pepe</title><polygon class="cls-1" points="251.2 404.6 268.9 420.5 288.4 418.8 299 401.1 265.4 356.8 146.8 344.5 129.2 358.6 115 404.6 132.7 415.2 153 404 189.3 409.9 251.2 404.6"/><polygon class="cls-2" points="277.8 406.4 256.5 374.5 187.5 365.7 150.4 365.7 192.8 355.1 261.8 362.2 293.7 402.8 290.2 411.7 277.8 406.4"/><polygon class="cls-2" points="274.2 406.4 284.8 413.5 270.7 415.2 254.8 404.6 274.2 406.4"/><polygon class="cls-3" points="270.7 401.1 260.1 401.1 253 379.8 270.7 401.1"/><polygon class="cls-3" points="249.5 376.3 254.8 401.1 231.8 401.1 226.5 374.5 249.5 376.3"/><polygon class="cls-3" points="222.9 374.5 224.7 401.1 191.1 404.6 191.1 371 222.9 374.5"/><polygon class="cls-3" points="185.8 371 185.8 401.1 159.2 399.3 161 369.2 185.8 371"/><polygon class="cls-3" points="155.7 371 153.9 395.8 134.5 392.2 139.8 374.5 155.7 371"/><polygon class="cls-4" points="189.3 355.1 146.8 363.9 136.2 371 129.2 390.5 130.9 362.2 146.8 349.8 189.3 355.1"/><polygon class="cls-2" points="134.5 394 148.6 399.3 134.5 408.2 122.1 404.6 127.4 376.3 127.4 395.8 134.5 394"/></svg>