<svg id="Mouth" xmlns="http://www.w3.org/2000/svg" viewBox="0 0 600 600"><defs><style>.cls-1{fill:#1b1b1b;}.cls-2{fill:#ff958d;}.cls-3{fill:#be424c;}.cls-4{fill:#ed9d8c;}</style></defs><title>Pepe</title><polygon class="cls-1" points="169.1 342.3 240 378.4 230 398.3 210.1 394.6 155.4 404.5 149.1 412 133 412 123 399.6 133 374.7 128 356 169.1 342.3"/><polygon class="cls-2" points="233.8 384.6 230 390.8 161.6 361 144.2 363.5 144.2 367.2 136.7 372.2 133 357.2 164.1 348.5 233.8 384.6"/><polygon class="cls-3" points="228.8 393.3 207.6 383.4 175.3 390.8 161.6 402 210.1 392.1 228.8 393.3"/><polygon class="cls-4" points="192.7 378.4 169.1 390.8 147.9 407 133 405.8 128 398.3 136.7 378.4 154.1 363.5 161.6 363.5 170.3 367.2 150.4 380.9 172.8 369.7 192.7 378.4"/></svg>