<svg id="Mouth" xmlns="http://www.w3.org/2000/svg" viewBox="0 0 600 600"><defs><style>.cls-1{fill:#1b1b1b;}.cls-2{fill:#ff958d;}.cls-3{fill:#be424c;}.cls-4{fill:#fff;}</style></defs><title>Pepe</title><polygon class="cls-1" points="237.8 344.6 267 400.3 241.9 428.2 130.5 428.2 119.4 414.2 118 393.4 140.3 389.2 209.9 341.8 237.8 344.6"/><polygon class="cls-2" points="122.2 396.1 143.1 393.4 212.7 350.2 233.6 351.6 232.2 361.3 212.7 361.3 150 403.1 123.6 403.1 122.2 396.1"/><polygon class="cls-3" points="131.9 405.9 235 410.1 244.7 401.7 233.6 365.5 237.8 353 261.4 401.7 240.5 421.2 133.3 419.8 125 412.9 131.9 405.9"/><polygon class="cls-4" points="219.7 364.1 229.4 365.5 236.4 387.8 223.8 398.9 214.1 390.6 219.7 364.1"/><polygon class="cls-4" points="214.1 366.9 209.9 390.6 177.9 390.6 214.1 366.9"/><polygon class="cls-4" points="223.8 407.3 236.4 392 240.5 398.9 235 407.3 223.8 407.3"/><path class="cls-4" d="M174.9,394.3,157,404.5l17.2.8C174.4,401.9,174.7,397.1,174.9,394.3Z"/><polygon class="cls-4" points="190.9 393.4 180.8 393.4 179 405.5 189.5 406 190.9 393.4"/><polygon class="cls-4" points="211.3 393.4 194.8 393.4 193.3 406.1 218.3 407.3 218.3 401.7 211.3 393.4"/></svg>