<svg id="Ear" xmlns="http://www.w3.org/2000/svg" viewBox="0 0 600 600"><defs><style>.cls-1{fill:#1b1b1b;}.cls-2{fill:#ff958d;}.cls-3{fill:#be424c;}</style></defs><title>Pepe</title><polygon class="cls-1" points="359.1 242.9 353.5 301 331 361 369.4 376 381.6 366.6 379.7 352.6 465 326.3 456.6 257.9 408.8 234.5 359.1 242.9"/><polygon class="cls-2" points="359.1 302.9 365.7 246.7 415.3 244.8 418.1 314.2 359.1 302.9"/><polygon class="cls-2" points="422.8 247.6 422.8 316 453.8 319.8 450 261.7 422.8 247.6"/><polygon class="cls-3" points="418.1 317.9 357.2 306.7 345.1 334.8 418.1 317.9"/><polygon class="cls-2" points="343.2 340.4 422.8 319.8 450 326.3 365.7 348.8 370.4 368.5 337.6 357.3 343.2 340.4"/></svg>