<svg id="Ear" xmlns="http://www.w3.org/2000/svg" viewBox="0 0 600 600"><defs><style>.cls-1{fill:#1b1b1b;}.cls-2{fill:#ccc;}.cls-3{fill:#be424c;}.cls-4{fill:#ff958d;}</style></defs><title>Pepe</title><polygon class="cls-1" points="368 231 351 301 333 353 425 319 437 322 443 301 449 300 451 278 432 272 432 253 368 231"/><polygon class="cls-2" points="408 275 406 283 444 294 444 282 408 275"/><polygon class="cls-2" points="401 305 430 316 434 303 406 294 401 305"/><polygon class="cls-3" points="387 303 380.5 277.2 356 302.9 356 303 351.1 318.5 387 303"/><polygon class="cls-4" points="424.9 272.6 427 259 371 237 359.9 285.7 396 261 383.4 274.2 390 306 349 325.1 342 347 418 317 418 316.8 394.2 307.8 403.3 287.9 400 286.6 404.3 269.4 424.9 272.6"/></svg>