<svg id="Ear" xmlns="http://www.w3.org/2000/svg" viewBox="0 0 600 600"><defs><style>.cls-1{fill:#1b1b1b;}.cls-2{fill:#eccba0;}.cls-3{fill:#b08d6f;}.cls-4{fill:#9d4241;}.cls-5{fill:#4a191f;}.cls-6{fill:#6b4c3f;}.cls-7{fill:#9b7b5f;}</style></defs><title>Pepe</title><polygon class="cls-1" points="366.2 226 354.5 297.3 408.4 320.4 449 290.9 454.9 243.6 419.4 214.5 366.2 226"/><polygon class="cls-2" points="373.4 231.8 401.4 252.7 419.9 222.1 373.4 231.8"/><polygon class="cls-3" points="422.8 223.5 404.9 254.5 441.5 287 446.5 245.8 422.8 223.5"/><polygon class="cls-4" points="401.9 257.4 386.7 274.4 403.8 279.4 418.7 270.3 401.9 257.4"/><polygon class="cls-5" points="398.5 255.6 384.1 270.9 388.6 247.7 398.5 255.6"/><polygon class="cls-6" points="372.2 234.1 363.6 291 382.6 272.3 386.9 245.3 372.2 234.1"/><polygon class="cls-7" points="386.1 275.5 364.4 295.1 409.3 314.3 402.3 282.3 386.1 275.5"/><polygon class="cls-7" points="419.5 271.4 406.1 282.1 411.1 310.9 440.3 289.3 419.5 271.4"/></svg>