<svg id="On_Body" data-name="On Body" xmlns="http://www.w3.org/2000/svg" viewBox="0 0 600 600"><defs><style>.cls-1{fill:#1b1b1b;}.cls-2{fill:#c898ae;}.cls-3{fill:#c1272d;}</style></defs><title>Pepe</title><polygon class="cls-1" points="333 450 358 424.7 393.4 429.9 387.4 450.2 366.2 443.9 354 468 333 450"/><polygon class="cls-2" points="345 447 353 455 364 438 384 444 387 434 360 430 345 447"/><polygon class="cls-1" points="230.4 490.2 228.6 472.5 243.6 467.5 256 474.8 276.2 471.4 282.6 488.5 256.1 495.1 230.4 490.2"/><polygon class="cls-2" points="255 480 243 473 234 476 235 486 256 490 276 485 273 477 255 480"/><polygon class="cls-1" points="380.3 369 354 369 354 354.6 362.6 347.7 397.9 353.6 404.3 374.5 383.6 380.1 380.3 369"/><polygon class="cls-2" points="394 358 364 353 359 357 359 364 384 364 387 374 398 371 394 358"/><polygon class="cls-1" points="161.5 183.6 142.1 164.2 150.2 144.7 168.3 151.2 171.2 164 190.4 169.3 199 175 197 191 193.9 190.4 194 199 185 200 185 193 178.4 190.3 177 185 161.5 183.6"/><polygon class="cls-2" points="164 155 153 151 148 163 164 179 184 183 185 173 167 168 164 155"/><polygon class="cls-3" points="354 459 342 446 337 449 353 464 354 459"/><polygon class="cls-3" points="188 172 186 184 180 184 183 190 187 191 187 196 191 196 191 190 194 189 195 175 188 172"/></svg>