<svg id="Body" xmlns="http://www.w3.org/2000/svg" viewBox="0 0 600 600"><defs><style>.cls-1{fill:#1b1b1b;}.cls-2{fill:#aa8b74;}.cls-3{fill:#7c5c47;}.cls-4{fill:#ccae9a;}.cls-5{fill:#e2d0c3;}.cls-6{fill:#ddc0ab;}</style></defs><title>Pecasso</title><polygon class="cls-1" points="257 459 257 498 169 527 157 600 484 600 492 514 386.9 497.3 332 421 327 391 437 320 396 130 221 95 133 256 137 371 163 454 257 459"/><polygon class="cls-2" points="263 456 263 495 379 495 321 424 263 456"/><polygon class="cls-3" points="263 449 321 416 314 394 263 449"/><polygon class="cls-2" points="250 449 173 443 211 391 250 449"/><polygon class="cls-2" points="259 449 224 391 307 394 259 449"/><polygon class="cls-4" points="167 440 146 371 202 387 167 440"/><polygon class="cls-4" points="146 358 211 380 149 272 146 358"/><polygon class="cls-4" points="153 268 217 376 207 263 153 268"/><polygon class="cls-2" points="224 380 312 384 217 263 224 380"/><polygon class="cls-2" points="321 380 344 305 280 248 321 380"/><polygon class="cls-2" points="312 376 228 263 270 248 312 376"/><polygon class="cls-4" points="153 256 217 256 224 120 153 256"/><polygon class="cls-2" points="234 120 224 258 274 237 234 120"/><polygon class="cls-2" points="244 109 282 234 372 131 244 109"/><polygon class="cls-2" points="379 136 292 244 349 293 379 136"/><polygon class="cls-3" points="386 145 355 298 426 312 386 145"/><polygon class="cls-3" points="352 305 327 384 423 319 352 305"/><polygon class="cls-5" points="221 109 138 256 146 256 221 109"/><polygon class="cls-5" points="145 263 142 359 138 261 145 263"/><polygon class="cls-3" points="255 503 178 529 164 600 255 503"/><polygon class="cls-2" points="263 503 173.9 600 312 600 309 520 263 503"/><polygon class="cls-2" points="313 519 321 600 465 600 379 503 313 519"/><polygon class="cls-3" points="384 500 477 600 486 519 384 500"/><polygon class="cls-6" points="373 500 311 517 271 500 373 500"/></svg>