<svg id="Background" xmlns="http://www.w3.org/2000/svg" viewBox="0 0 600 600"><defs><style>.cls-1{fill:#f44b5e;}.cls-2{fill:#88ec8c;}.cls-3{fill:#ff0;}.cls-4{fill:aqua;}</style></defs><title>Pecasso</title><rect class="cls-1" width="600" height="600"/><polygon class="cls-2" points="600 600 600 481 567 440 536 71 386 0 133 0 107 64 37 71 0 164 0 310 35 360 66 495 0 600 600 600"/><polygon class="cls-3" points="560 600 579 509 521 460 521 413 432 400 518 342 486 81 204 0 145 103 83 103 28 206 35 283 83 305 66 387 101 495 74 600 560 600"/><polygon class="cls-4" points="168 146 119 125 84 200 91 264 119 276 107 379 145 481 178 492 146 509 121 600 514 600 536 509 486 484 471 440 379 440 355 403 472 333 436 109 211 49 168 146"/></svg>