<svg id="Background" xmlns="http://www.w3.org/2000/svg" viewBox="0 0 600 600"><defs><style>.cls-1{fill:#ff9817;}.cls-2{fill:#dbcc29;}.cls-3{fill:#77b2d0;}.cls-4{fill:#ffad5c;}</style></defs><title>Pecasso</title><rect class="cls-1" width="600" height="600"/><rect class="cls-2" y="235" width="289" height="365"/><rect class="cls-3" width="289" height="65"/><rect class="cls-1" y="458" width="267" height="16"/><rect class="cls-1" y="493" width="267" height="16"/><rect class="cls-1" y="528" width="267" height="16"/><rect class="cls-1" y="563" width="267" height="16"/><rect class="cls-1" x="40" y="458" width="10" height="142"/><rect class="cls-1" x="92" y="458" width="10" height="142"/><rect class="cls-1" x="144" y="458" width="10" height="142"/><rect class="cls-1" x="196" y="458" width="10" height="142"/><rect class="cls-4" x="335" width="15" height="600"/><rect class="cls-4" x="399" width="15" height="600"/><rect class="cls-4" x="463" width="15" height="600"/><rect class="cls-4" x="527" width="15" height="600"/><rect class="cls-4" x="437.5" y="-85.5" width="15" height="310" transform="translate(514.5 -375.5) rotate(90)"/><rect class="cls-4" x="437.5" y="-21.5" width="15" height="310" transform="translate(578.5 -311.5) rotate(90)"/><rect class="cls-4" x="437.5" y="42.5" width="15" height="310" transform="translate(642.5 -247.5) rotate(90)"/><rect class="cls-4" x="437.5" y="106.5" width="15" height="310" transform="translate(706.5 -183.5) rotate(90)"/><rect class="cls-4" x="437.5" y="170.5" width="15" height="310" transform="translate(770.5 -119.5) rotate(90)"/><rect class="cls-4" x="437.5" y="234.5" width="15" height="310" transform="translate(834.5 -55.5) rotate(90)"/><rect class="cls-4" x="437.5" y="298.5" width="15" height="310" transform="translate(898.5 8.5) rotate(90)"/><rect class="cls-4" x="437.5" y="362.5" width="15" height="310" transform="translate(962.5 72.5) rotate(90)"/></svg>