<svg xmlns="http://www.w3.org/2000/svg" viewBox="0 0 2000 2000" xmlns:v="https://vecta.io/nano"><linearGradient id="A" gradientUnits="userSpaceOnUse" x1="1647" y1="614.59" x2="1608.545" y2="845.646"><stop offset=".277" stop-color="#fff100"/><stop offset=".998" stop-color="#fff000" stop-opacity="0"/></linearGradient><path d="M1602 607.1l124 29.3-26 255.3-190.5-46.5 92.5-238.1z" fill="url(#A)"/><linearGradient id="B" gradientUnits="userSpaceOnUse" x1="1247.748" y1="-483.003" x2="1676.219" y2="-483.003" gradientTransform="matrix(0.9737 0.228 -0.2983 1.2739 111.984 836.4265)"><stop offset="0" stop-color="#e80a89"/><stop offset="1" stop-color="#d9b9d8"/></linearGradient><path d="M1888.2 603.3l-229.2 39-188-136.7 229.1-39 188.1 136.7z" fill="url(#B)"/><path d="M1787.2 531.5l-104.2 8.4-89.6-53.8 118.5-69.6 75.3 115h0z" fill="#7ed3f7"/><path d="M1791.7 622.5c.9 0 107.7-18.3 107.7-18.3l-189-168s21.9 73.1 4.6 103.2c.6 1.2 49.8 2.9 83.7 3.9 7.4 16.1 16.9 45.2-7 79.2h0 0z" fill="#fff"/><path d="M1583 405.1c-108.5-106.1-247.3-183.6-406.7-217.3-446.6-94.3-884.9 191.1-979.2 637.6s191.2 884.9 637.7 979.2c446.6 94.3 884.9-191.2 979.2-637.7 35.9-170 16.8-338.6-45.3-487.8l-14.9-34.9m-142.9-210.4c-103.2-111.3-238.1-195.5-395.8-236.8-441.4-115.8-893 148.2-1008.9 589.7s148.1 893 589.6 1008.9 893-148.1 1008.9-589.6c44.2-168.1 33.1-337.5-21.7-489.5m4.9-199.9c202.2 87.4 63.4 153.9-124 104.9-189.5-39.3-284.6-160.5-64.7-149.1m187.6 60.6c-7.6 32.4-50.3 19.4-103.8 6.9s-97.6-19.9-90-52.3 63.9-77.6 117.4-65.1 84 78.1 76.4 110.5z" fill="none" stroke="#14165a" stroke-width="47.119" stroke-linecap="round" stroke-linejoin="round" stroke-miterlimit="10"/></svg>