<svg xmlns="http://www.w3.org/2000/svg" xmlns:xlink="http://www.w3.org/1999/xlink" viewBox="0 0 2000 2000" xmlns:v="https://vecta.io/nano"><g fill="#fff"><use xlink:href="#B"/><use xlink:href="#B"/></g><g fill="none" stroke="#14165a" stroke-width="47.119" stroke-linejoin="round"><path d="M1761.1 661.5c63.4 142.8 87.2 305.2 59.4 470.8-75.2 450.1-500.9 754.1-951.1 678.9s-754.1-500.9-678.9-951.1S691.4 106 1141.6 181.2c126.3 21.1 241 69.7 339.1 138.8" stroke-linecap="round" stroke-miterlimit="10"/><circle cx="1678.9" cy="442.1" r="216.7"/><circle cx="1652.5" cy="779.2" r="52.7"/><circle cx="1588.3" cy="921.3" r="20"/></g><path d="M1776.4 355.8s31.5 90.1-5.6 117.1l10 87.2-36 6-8.2-61.4-169.9 41.2-29.6-60.4 132.6-51-38.3-60.2 61.2-16.5 39.9 36.8 43.9-38.8z" fill="#ffd900"/><path d="M1783.9 355.8s11.5 48.8 5 78c-.3-.7-18.1 39.1-18.1 39.1l-56.9-20.4 18.5-57.9 51.5-38.8z" fill="#fff37a"/><g fill="none" stroke="#14165a" stroke-linejoin="round" stroke-width="35"><path d="M1651 446.4c-33.2 21.7-49.6 18.4-74.2 25.5-24.9 6.7-39 14.5-42.9 33.6-4 17.2 21.5 34.7 59.4 38.3 37.7 4.2 75-1.3 115.4-25.9" stroke-linecap="round"/><path d="M1770.8 472.9c43.6-47.9 66.9-110 40.4-124.3-13.5-7.5-23-4.1-34.7 7.3-11.9 11.2-26.1 30.3-52.2 50"/><path d="M1713.9 452.5c9.7-17 15-41.6 3-63-12.1-21.5-30.4-29.2-47.7-30.2-17.2-.8-33.3 5.1-37.9 15-6.4 15.2 75.3 24.7 20.1 71.7m64.7 8.6c19.4-2.7 44.2 1.5 59.6 20.6 15.5 19.2 15.8 39.1 10.3 55.5-5.6 16.2-17.1 29-27.9 29.6-16.5.4-.1-80.7-53-39.7" stroke-linecap="round"/></g><defs ><path id="B" d="M1678.9 225.3c-80 0-149.8 43.3-187.4 107.8l257.8 314c85.2-29.2 146.4-110 146.4-205-.1-119.7-97.1-216.8-216.8-216.8h0 0 0 0z"/></defs></svg>