<?xml version="1.0" encoding="utf-8"?>
<!-- Generator: Adobe Illustrator 27.0.1, SVG Export Plug-In . SVG Version: 6.00 Build 0)  -->
<svg version="1.1" id="Layer_1" xmlns="http://www.w3.org/2000/svg" xmlns:xlink="http://www.w3.org/1999/xlink" x="0px" y="0px"
	 viewBox="0 0 2000 2000" style="enable-background:new 0 0 2000 2000;" xml:space="preserve">
<style type="text/css">
	.st0{fill:#00AEEF;}
	.st1{fill:#94D9F8;}
	.st2{fill:none;stroke:#221F57;stroke-width:47.119;stroke-linecap:round;stroke-linejoin:round;stroke-miterlimit:10;}
	.st3{fill:#FFFFFF;}
	.st4{fill:none;stroke:#221F58;stroke-width:47.119;stroke-linecap:round;stroke-linejoin:round;stroke-miterlimit:10;}
	.st5{fill:none;stroke:#14165A;stroke-width:47.1192;stroke-linecap:round;stroke-linejoin:round;stroke-miterlimit:10;}
</style>
<path class="st0" d="M1662.4,486.2l-129.9,26.9l129.9-201.6V486.2z M1662.4,589.1l129.9-76l-129.9-26.9V589.1z M1662.4,791.2
	l129.9-188.7l-129.9,85.8V791.2z"/>
<path class="st1" d="M1662.4,311.5l129.9,201.6l-129.9-26.9V311.5z M1662.4,486.2l-129.9,26.9l129.9,76V486.2z M1662.4,688.3
	l-129.9-85.8l129.9,188.7V688.3z"/>
<path class="st2" d="M1652.2,555"/>
<polygon class="st3" points="1629.2,373.4 1739.6,543.8 1781.2,505 1662.4,329.8 "/>
<path class="st4" d="M1660.3,574.5"/>
<path class="st5" d="M1662.4,329.8l126.4,190.7l-126.4,68.6 M1788.8,605.2l-126.4,195.5 M1662.4,329.8L1536,520.6l126.4,68.6
	 M1662.4,800.8L1536,605.2 M1662.4,676.3l126.4-73.9 M1536,602.4l126.4,73.9 M1568.2,391c-111.1-103.4-251.8-177.4-412-207.2
	c-448.8-83.2-879.9,213-963.1,661.7s213,879.9,661.7,963.1c448.8,83.2,879.9-213,963.1-661.7c31.7-170.8,8.4-338.9-57.4-486.5
	 M1596.8,419c-105.9-108.7-242.9-189.5-401.5-226.9c-444.2-104.9-889.1,170.2-994,614.4s170.2,889.1,614.4,994
	s889.1-170.2,994-614.4c40-169.1,24.7-338.2-33.8-488.8"/>
</svg>
