<svg xmlns="http://www.w3.org/2000/svg" viewBox="0 0 2000 2000" xmlns:v="https://vecta.io/nano"><path d="M1579.7 407.2l181.7 218.3-14.7-111.2 52.8-84.3-114-38.5-53.1-65.9c1.1 3.3-52.7 81.6-52.7 81.6h0 0z" fill="#fff"/><linearGradient id="A" gradientUnits="userSpaceOnUse" x1="1604.671" y1="608.956" x2="1626.067" y2="407.068"><stop offset="0" stop-color="#f9ac1b"/><stop offset="1" stop-color="#f7ea2f"/></linearGradient><path d="M1622.1 599.7c4.3.5 1.8-22.7 5.2-19.1l43.7 45.5c1.4 1.6 3.4 2.7 5.6 2.9 2.1.3 4.2-.3 6.1-1.6 3.7-2.6 5.8-7.6 5-12.6l-11.4-67.3c-1.7-10.4 2.4-21.1 10.6-26.5l52.2-35.3c3.7-2.6 5.8-7.6 5-12.6-.7-4.9-4.3-8.5-8.7-9l-59.2-6.3c-9.2-1-16.5-8.6-18.3-19.1l-11.4-67.3c-.7-4.9-4.3-8.5-8.7-9-4.3-.5-8.5 2.4-10.3 6.9l-25 31.2c-3.8 9.8-18.2 24.9-27.4 24l-62.8-8.6c-4.3-.5-14 26.6-15.9 31.2-1.8 4.6 13.5 11.2 16.8 14.6l43.7 45.5c6.8 7 8.6 18.4 4.8 28.1l-25.2 63.4c-1.8 4.6-.9 9.9 2.3 13.3 1.5 1.7 3.4 2.6 5.6 2.8s4.7 16.1 6.6 14.8l58.3-26.4c3.9-2.9 8.4-4 12.8-3.5h0 0z" fill="url(#A)"/><g fill="none" stroke="#14165a" stroke-width="47.119" stroke-linejoin="round" stroke-miterlimit="10"><path d="M1747.8 633.1c71.1 145.1 100.6 312.3 75.1 484.1-66.8 451.5-486.8 763.2-938.3 696.4s-763.2-486.8-696.4-938.3S675 112.1 1126.5 178.9c161.2 23.9 304.5 92.7 419.3 192m218.7 298.5c64 148.3 85.4 316.8 51.6 487.2-88.6 447.7-523.2 738.8-970.9 650.2S106.4 1283.6 195 835.9s523.2-738.8 970.9-650.2c159.9 31.6 299.7 107.3 409.5 212.1" stroke-linecap="round"/><path d="M1703.6 642.5c-7.5-.8-14.6-3.8-20.5-9.1l-51.4-46.2-59.9 34.5c-6.7 3.9-14.3 5.4-21.9 4.6-7.7-.8-14.7-4-20.5-9.1-11.8-10.5-15.1-27.3-8.8-41.7l28.2-63.1-51.4-46.2c-11.8-10.5-15.1-27.3-8.8-41.7 6.4-14.4 21.3-22.9 36.9-21.2l68.7 7.3 28.2-63.1c6.4-14.4 21.3-22.9 36.9-21.2 15.7 1.6 28.3 13.2 31.6 28.5l14.3 67.6 68.7 7.3c15.7 1.6 28.3 13.2 31.6 28.5 3.3 15.4-3.7 31-17.4 38.9l-59.9 34.5 14.3 67.6c3.3 15.4-3.7 31-17.4 38.9-6.4 3.7-14 5.2-21.5 4.4h0 0z"/></g></svg>