<svg xmlns="http://www.w3.org/2000/svg" viewBox="0 0 2000 2000" xmlns:v="https://vecta.io/nano"><path d="M1571 416.5l114.7 257s101.7 30.9 107.9-152.8c7.5-222.4-222.6-104.2-222.6-104.2z" fill="#fff"/><linearGradient id="A" gradientUnits="userSpaceOnUse" x1="1637" y1="670.27" x2="1637" y2="403.436"><stop offset="0" stop-color="#ed78ac"/><stop offset="1" stop-color="#fbed1d"/></linearGradient><path d="M1637 402.4c-51.2 0-92.8 35.5-92.8 106.9s52.4 152.2 92.8 152.2 92.8-80.6 92.8-152.2c.1-71.4-41.6-106.8-92.8-106.9z" fill="url(#A)"/><g stroke="#14165a" stroke-linejoin="round" stroke-miterlimit="10"><path d="M1671 879.8s-57.8-23.8-12.5-66.1-9.3-71.6-9.3-71.6" fill="none" stroke-width="35" stroke-linecap="round"/><path d="M1661.7 706.2s30.3 25 25 25h-50l25-25z" fill="#14165a" stroke-width="47.121"/><g fill="none" stroke-width="47.119"><path d="M1664.3 370.9c-69.1 0-125 44.1-125 132.9 0 88.7 70.6 189.2 125 189.2s125-100.1 125-189.2c.2-88.8-56-132.7-125-132.9z"/><path d="M1747.8 633.1c71.1 145.1 100.6 312.3 75.1 484.1-66.8 451.5-486.8 763.2-938.3 696.4s-763.2-486.8-696.4-938.3S675 112.1 1126.5 178.9c161.2 23.9 304.5 92.7 419.3 192m218.7 298.5c64 148.3 85.4 316.8 51.6 487.2-88.6 447.7-523.2 738.8-970.9 650.2S106.4 1283.6 195 835.9s523.2-738.8 970.9-650.2c159.9 31.6 299.7 107.3 409.5 212.1" stroke-linecap="round"/></g></g></svg>