<svg xmlns="http://www.w3.org/2000/svg" viewBox="0 0 2000 2000" xmlns:v="https://vecta.io/nano"><path d="M1568.2 391c-111.1-103.4-251.8-177.4-412-207.2-448.8-83.2-879.9 213-963.1 661.7s213 879.9 661.7 963.1c448.8 83.2 879.9-213 963.1-661.7 31.7-170.8 8.4-338.9-57.4-486.5M1596.8 419c-105.9-108.7-242.9-189.5-401.5-226.9-444.2-104.9-889.1 170.2-994 614.4s170.2 889.1 614.4 994 889.1-170.2 994-614.4c40-169.1 24.7-338.2-33.8-488.8" fill="none" stroke="#14165a" stroke-width="47.119" stroke-linecap="round" stroke-linejoin="round" stroke-miterlimit="10"/><path d="M1615.4 493.3l166.8-45.7 6.8 251.3-163.4-127.1-10.2-78.5z" fill="#c0c1c3"/><path d="M1604.6 501.9s43 22.1 97.3 1.5c54.4-20.6 74.2-66.5 74.2-66.5l-141.9-119.5-29.6 184.5zm269.7 123.5h-67.9v-82.6h67.9v82.6zm-181.1 71.3h-70.6v-75.5h70.6v75.5z" fill="#eb7d7c"/><path d="M1753.1 670.9c28.2-224.9-81.4-321.2-81.4-321.2l138.9 137.2-43 190.2-14.5-6.2zm57.3 52l50 360.4 50-229.2-100-131.2z" fill="#fff"/><linearGradient id="A" gradientUnits="userSpaceOnUse" x1="1466.157" y1="190.636" x2="1466.157" y2="421.289" gradientTransform="matrix(0.6328 -4.759356e-02 -7.473645e-02 -0.9972 911.6152 1349.109)"><stop offset="0" stop-color="#f6aa1c"/><stop offset="1" stop-color="#fe0"/></linearGradient><path d="M1790.7 1250.2l-28.2-435.6 19.6-111.7c.4-.3.8-.5 1.2-.8 0 .3 52.3 58.2 60.9 99.8 9.5 40.5 25.5 181 15.3 256.5-8.6 76.2-50.5 178.7-69.3 191.6.2.1.3.1.5.2h0z" fill="url(#A)"/><circle cx="1677.7" cy="435.8" r="30.7" fill="#14165a"/><path d="M1793.8 1250c14.2-105 6.2-206.2-39.4-415.3-7-32.2-2.3-63.4 5.5-88.8 9-26.9 16.3-44 19.3-44.7 224.3 56.1 94.1 410.4 14.6 548.8zm-23.2-563.7c82.1-127.1 8.7-323.8-136.7-366-87.9 124.8-4 326.4 136.7 366zm31.8-50.4c25.3-4.6 58.5-6.8 92 2.1.6 1.6-4.2-92.3-84.3-119.7m-178.2 67.4c-41.9 73.6 16.7 147.1 16.1 145.5 20.6-31 49.5-52.2 72.4-65.3" fill="none" stroke="#14165a" stroke-width="47.119" stroke-linecap="round" stroke-linejoin="round" stroke-miterlimit="10"/></svg>