<?xml version="1.0" encoding="utf-8"?>
<!-- Generator: Adobe Illustrator 27.0.1, SVG Export Plug-In . SVG Version: 6.00 Build 0)  -->
<svg version="1.1" id="Layer_1" xmlns="http://www.w3.org/2000/svg" xmlns:xlink="http://www.w3.org/1999/xlink" x="0px" y="0px"
	 viewBox="0 0 2000 2000" style="enable-background:new 0 0 2000 2000;" xml:space="preserve">
<style type="text/css">
	.st0{fill:#FFFFFF;}
	.st1{fill:url(#SVGID_1_);}
	.st2{fill:none;stroke:#14165A;stroke-width:47.1192;stroke-linejoin:round;stroke-miterlimit:10;}
	.st3{fill:none;stroke:#14165A;stroke-width:47.1192;stroke-linecap:round;stroke-linejoin:round;stroke-miterlimit:10;}
	.st4{fill:none;stroke:#14165A;stroke-width:35;stroke-linecap:round;stroke-linejoin:round;stroke-miterlimit:10;}
</style>
<path class="st0" d="M1719.3,400.2c0,0,120.8,87.7,112.3,88.2s-107,157.4-147.7,166.7C1643.2,664.4,1602.3,373.5,1719.3,400.2z"/>
<linearGradient id="SVGID_1_" gradientUnits="userSpaceOnUse" x1="1643.2499" y1="1422.644" x2="1643.2499" y2="1513.4019" gradientTransform="matrix(1 0 0 -1 0 2000)">
	<stop  offset="0" style="stop-color:#57CBF5"/>
	<stop  offset="0.9994" style="stop-color:#C4E8FA"/>
</linearGradient>
<path class="st1" d="M1643.2,664.4l98.8-175.6l-49.9-88.7h-56.9h7.2h-48l-49.9,88.7L1643.2,664.4"/>
<path class="st2" d="M1733.9,613c77.9,146.4,112.4,317.5,89.2,494.4c-59.2,452.4-474,771.2-926.5,711.9
	c-452.4-59.2-771.2-474-711.9-926.5c59.2-452.4,474-771.2,926.5-711.9c193.8,25.4,363,115.8,488.5,246.7"/>
<path class="st3" d="M1673.1,664.4l-150-175.6l75.8-88.7h72.9 M1673.1,664.4l150-175.6l-75.8-88.7h-86.4"/>
<polyline class="st4" points="1799.8,506.6 1650.7,506.6 1544.4,506.6 "/>
<polyline class="st4" points="1747.3,400.2 1673.8,506.6 1598.9,400.2 "/>
</svg>
