<svg xmlns="http://www.w3.org/2000/svg" viewBox="0 0 2000 2000" xmlns:v="https://vecta.io/nano"><path d="M1829 475l-72 162.9-96-168.9 113.2-97.5z" fill="#fff"/><linearGradient id="A" gradientUnits="userSpaceOnUse" x1="1651.729" y1="637.895" x2="1651.729" y2="341.154"><stop offset="0" stop-color="#8dc540"/><stop offset="1" stop-color="#fbed21"/></linearGradient><path d="M1616 372.2c-102.5-2.9-35.2 117.5 49.4 107.2 15.8-38.1 39.7-83.4 16.3-122.5-20-30.1-61.1-12.6-65.7 15.3h0 0 0zm86.2 134c-43.3-23.1-41 60.5-44.1 90.3-2.3 42.7 47.1 61.4 55.2 11.6 61.2 9.1 39-98.3-11.1-101.9h0 0 0 0zM1562 550.5h0c7.4 131.2 109.5 13.6 94.5-56.2-75.8-65.2-173.8-1.5-94.5 56.2zm191.3-120.8c-1.9-160.5-116.9 61.9-22.8 83.3 44.6 17.2 52.3-66 22.8-83.3h0z" fill="url(#A)"/><path d="M1677.7 476.8c-110.3 2.4-164.1-107.9-54.8-103.3 57.5-98 120.7 21 54.8 103.3zm9.5 25.9c110.3-2.4 164.1 107.9 54.8 103.3-57.5 98-120.7-21-54.8-103.3h0zm-17.7-8.2c2.4 110.3-107.9 164.1-103.3 54.8-98-57.5 21-120.7 103.3-54.8h0zm25.9-9.5c-2.4-110.3 107.9-164.1 103.3-54.8 98 57.5-21 120.7-103.3 54.8zm44.9 127.4l15.7 37.9c67.7 146.7 93.4 314.5 63.9 485.7-77.2 449.8-504.3 751.7-954.2 674.5S114 1306.3 191.2 856.4s504.3-751.7 954.2-674.5c160.6 27.6 302.3 99.7 414.7 201.6m71.8 237.2s-32.5 72.1-81.3 80" fill="none" stroke="#14165a" stroke-width="47.119" stroke-linecap="round" stroke-linejoin="round" stroke-miterlimit="10"/></svg>