<svg xmlns="http://www.w3.org/2000/svg" viewBox="0 0 2000 2000" xmlns:v="https://vecta.io/nano"><path d="M1749.4 398.4l71.3 68.5-15.3 84.8-133.5 119 77.5-272.3h0 0z" fill="#fff"/><linearGradient id="A" gradientUnits="userSpaceOnUse" x1="1631.953" y1="464.973" x2="1631.953" y2="653.789"><stop offset="0" stop-color="#eb008b"/><stop offset="1" stop-color="#dbbbd9"/></linearGradient><path d="M1632.1 428.3c5.8-7.2 11.9-13.3 18.9-18.2 43.2-29.8 97.8 1.9 107.5 62.5 3.4 21.5 1 42.3-4.9 62.7-5.9 20.2-15.1 38-26.1 54.5-18.5 28-40.5 51.2-63.4 73.1l-30 27.9c-1.5 1.4-2.6 1.5-4.2.1-17.6-15.5-34.9-31.5-51.5-48.8-16.4-17.2-31.8-35.5-44.9-56.7-12.6-20.3-22.7-42.2-27.2-67.6-4.7-26.4-3.1-51.9 8.8-75.3 13.1-25.8 32-40.5 56.4-43.1 22.9-2.4 42.4 7.1 58.9 27.1.6.5 1 1 1.7 1.8h0 0z" fill="url(#A)"/><path d="M1657.5 432.3c6.9-7 14.3-12.9 22.8-17.6 52-28.8 118.1 1.8 129.9 60.2 4.1 20.7 1.2 40.9-6 60.4s-18.3 36.6-31.5 52.6c-22.4 27.1-48.9 49.3-76.5 70.6-11.9 9.2-24.2 17.9-36.2 26.9-1.8 1.4-3.1 1.5-5.1.2-21.3-15-42.3-30.4-62.1-47.2-19.7-16.6-38.3-34.3-54.2-54.7-15.2-19.7-27.4-40.8-32.8-65.2-5.7-25.5-3.8-50.1 10.6-72.7 15.9-24.9 38.7-39 68.2-41.7 27.7-2.4 51.3 6.9 71.1 26.2.5.8 1.1 1.3 1.8 2h0 0 0zm-62.9 343.3c3.3-3.4 6.8-6.2 10.9-8.4 24.8-13.7 56.4.9 62 28.8 2 9.9.6 19.5-2.8 28.9-3.4 9.3-8.7 17.5-15 25.1-10.7 12.9-23.3 23.6-36.5 33.7-5.7 4.4-11.5 8.5-17.3 12.8-.9.6-1.5.7-2.4.1-10.2-7.1-20.2-14.5-29.7-22.5-9.4-7.9-18.3-16.4-25.9-26.1-7.3-9.4-13.1-19.5-15.7-31.1-2.7-12.2-1.8-23.9 5.1-34.7 7.6-11.9 18.5-18.6 32.6-19.9 13.2-1.2 24.5 3.3 33.9 12.5.1.2.5.5.8.8h0 0 0zm153.2-142.5c71.1 145.1 100.6 312.3 75.1 484.1-66.8 451.5-486.8 763.2-938.3 696.4s-763.2-486.8-696.4-938.3S675 112.1 1126.5 178.9c161.2 23.9 304.5 92.7 419.3 192m218.7 298.5c64 148.3 85.4 316.8 51.6 487.2-88.6 447.7-523.2 738.8-970.9 650.2S106.4 1283.6 195 835.9s523.2-738.8 970.9-650.2c159.9 31.6 299.7 107.3 409.5 212.1" fill="none" stroke="#14165a" stroke-width="47.119" stroke-linecap="round" stroke-linejoin="round" stroke-miterlimit="10"/></svg>