<svg xmlns="http://www.w3.org/2000/svg" viewBox="0 0 2000 2000" xmlns:v="https://vecta.io/nano"><linearGradient id="A" gradientUnits="userSpaceOnUse" x1="1599.536" y1="476.656" x2="1685.55" y2="483.63"><stop offset="0" stop-color="#f6aa1c"/><stop offset="1" stop-color="#fe0"/></linearGradient><path d="M1538.1 434.5h217.7v92h-217.7v-92z" fill="url(#A)" stroke="#f7b21a" stroke-miterlimit="10"/><path d="M469.4 170c39.8 46.6 56.6 105 51.7 161.5-76.4 54.2-143 121.8-196.5 199.7h0c-69.4 7.1-141-18.9-189.7-76-78.8-92.4-67.8-231.2 24.6-309.9S390.6 77.6 469.4 170zm1283.2 335.5l15.2-97.2-78.7 20.9s5.5 94.4-39.2 115.4l66.1 91.2 93.3-77.4-56.7-52.9zm-102.7 39.1l-7.8 2.8c2.8-.7 5.4-1.6 7.8-2.8z" fill="#fff"/><g stroke-miterlimit="10" fill="none" stroke-linecap="round" stroke-linejoin="round"><path d="M1743.1 623.3c55.9 110.4 87.9 235.2 88.7 367.3 3.1 456.4-364.2 828.8-820.6 831.9s-828.8-364.2-831.9-820.6c-1.2-173.7 51.3-335.2 142-468.9m202.4-208.1C657.9 228.5 822.1 171.2 999.9 170c206.9-1.4 396.4 73.3 542.3 197.8M469.4 170c-78.8-92.4-217.5-103.4-309.9-24.7S56.1 362.8 134.9 455.2c62.6 73.4 163 95.4 248 61.8l106.9 23.6-4.8-106.1c53.2-79.7 49.7-188-15.6-264.5h0 0 0 0 0zm1066.3 335.1c-35.4 12.9-57.8 32-57.8 53.3 0 38.8 74.2 70.2 165.7 70.2s165.7-31.4 165.7-70.2c0-21.1-22-40-56.7-52.9m7.5-115.2c0 86.7 0 157-118 157s-118-70.3-118-157m252.9 100c33.7 0 61-18.4 61-41.1s-27.3-41.1-61-41.1m-174.9-57.5c-41.3 3.7-78 22.1-78 38.5 0 22.6 52.8 41 118 41s118-18.3 118-41m-89.5-109.9s-30.9 15.4 0 47.7c22.7 23.7 11.9 35.3 11.9 35.3m77.6 26.9s.6-7.4-9.2-15.9" stroke="#13165a" stroke-width="47.119"/><path d="M211.5 261.4c23 0 41.7 18.7 41.7 41.7s-18.7 41.7-41.7 41.7-41.7-18.7-41.7-41.7 18.7-41.7 41.7-41.7zm41.7-3.5v107.7c0 23-18.7 41.7-41.7 41.7-25.1 0-32.6-15.4-34.4-18.2M374 320.4v-31.3c0-17.2 14-31.3 31.3-31.3 17.2 0 31.3 14 31.3 31.3v58.7m-125.1 0v-58.7c0-17.2 14-31.3 31.3-31.3 17.2 0 31.3 14 31.3 31.3v58.7" stroke="#14165a" stroke-width="37"/></g></svg>