<svg xmlns="http://www.w3.org/2000/svg" viewBox="0 0 2000 2000" xmlns:v="https://vecta.io/nano"><path d="M1579 282.2l167.1 70.8v314L1565 412z" fill="#fff"/><linearGradient id="A" gradientUnits="userSpaceOnUse" x1="1600" y1="580.2" x2="1708" y2="580.2"><stop offset=".016" stop-color="#81acdb"/><stop offset="1" stop-color="#9cdbf8"/></linearGradient><ellipse cx="1654" cy="580.2" rx="54" ry="55.7" fill="url(#A)"/><path d="M324.6 531.2c53.5-77.9 120.1-145.5 196.5-199.7C526 275 509.2 216.6 469.4 170c-78.8-92.4-217.5-103.4-309.9-24.7S56.1 362.8 134.9 455.2c48.7 57.1 120.3 83.1 189.7 76h0 0 0 0 0 0z" fill="#fff"/><path d="M234.7 388v-44.2m0-114.8v132.2M384 336.5v45.4m-45.7-87.8c-25.1 0-45.5 20.3-45.5 45.5 0 25.1 20.3 45.5 45.5 45.5s45.5-20.3 45.5-45.5c.1-25.2-20.2-45.5-45.5-45.5z" fill="none" stroke="#14165a" stroke-width="39" stroke-linecap="round" stroke-linejoin="round" stroke-miterlimit="10"/><linearGradient id="B" gradientUnits="userSpaceOnUse" x1="1422" y1="508.3" x2="1533.6" y2="508.3"><stop offset=".016" stop-color="#81acdb"/><stop offset="1" stop-color="#9cdbf8"/></linearGradient><ellipse cx="1477.8" cy="508.3" rx="55.8" ry="55.7" fill="url(#B)"/><path d="M469.4 170c-78.8-92.4-217.5-103.4-309.9-24.7S56.1 362.8 134.9 455.2c62.6 73.4 163 95.4 248 61.8l106.9 23.6-4.8-106.1c53.2-79.7 49.7-188-15.6-264.5h0 0 0 0 0 0zm1208.1 354.5c37.9 0 68.7 24.9 68.7 55.7s-30.8 55.7-68.7 55.7-68.7-24.9-68.7-55.7 30.8-55.7 68.7-55.7zm59.6 87.2c59.6 113.2 93.8 242.1 94.7 378.9 3.1 456.4-364.2 828.8-820.6 831.9s-828.8-364.2-831.9-820.6c-1.2-173.7 51.3-335.2 142-468.9m202.4-208.1C657.9 228.5 822.1 171.2 999.9 170c221.2-1.5 422.6 84 571.9 224.4m-67.8 58.2c37.9 0 68.7 24.9 68.7 55.7S1541.9 564 1504 564s-68.7-24.9-68.7-55.7 30.8-55.7 68.7-55.7zm68.7 52.5V272.2l173.4 71.9v232.8M1558.7 777c22.2 0 40.2 14.6 40.2 32.6s-18 32.6-40.2 32.6-40.2-14.6-40.2-32.6 18-32.6 40.2-32.6zm40.2 32.6V697.4" fill="none" stroke="#14165a" stroke-width="47.119" stroke-linecap="round" stroke-linejoin="round" stroke-miterlimit="10"/></svg>