<svg xmlns="http://www.w3.org/2000/svg" viewBox="0 0 2000 2000" xmlns:v="https://vecta.io/nano"><path d="M1697.2 326c69.3 0 125.4 69.1 125.4 154.5S1766.5 635 1697.2 635s-125.4-69.1-125.4-154.5S1627.9 326 1697.2 326h0 0zM324.6 531.2c53.5-77.9 120.1-145.5 196.5-199.7C526 275 509.2 216.6 469.4 170c-78.8-92.4-217.5-103.4-309.9-24.7S56.1 362.8 134.9 455.2c48.7 57.1 120.3 83.1 189.7 76h0 0 0z" fill="#fff"/><linearGradient id="A" gradientUnits="userSpaceOnUse" x1="1642" y1="622.8" x2="1642" y2="341"><stop offset="0" stop-color="#fbae17"/><stop offset="1" stop-color="#f9ec31"/></linearGradient><ellipse cx="1642" cy="481.9" rx="113" ry="140.9" fill="url(#A)"/><g fill="none"><g stroke-linejoin="round" stroke-miterlimit="10"><path d="M211.5 261.4c23 0 41.7 18.7 41.7 41.7s-18.7 41.7-41.7 41.7-41.7-18.7-41.7-41.7 18.7-41.7 41.7-41.7zm41.7-3.5v107.7c0 23-18.7 41.7-41.7 41.7-10.7 0-20.5-4.1-27.9-10.7-2.5-2.2-4.7-4.7-6.5-7.5M374 320.4v-31.3c0-17.2 14-31.3 31.3-31.3 17.2 0 31.3 14 31.3 31.3v58.7m-125.1 0v-58.7c0-17.2 14-31.3 31.3-31.3 17.2 0 31.3 14 31.3 31.3v58.7" stroke="#14165a" stroke-width="37" stroke-linecap="round"/><path d="M1737.1 611.7c59.6 113.2 93.8 242.1 94.7 378.9 3.1 456.4-364.2 828.8-820.6 831.9s-828.8-364.2-831.9-820.6c-1.2-173.7 51.3-335.2 142-468.9m202.4-208.1C657.9 228.5 822.1 171.2 999.9 170c221.2-1.5 422.6 84 571.9 224.4M469.4 170c-78.8-92.4-217.5-103.4-309.9-24.7S56.1 362.8 134.9 455.2c62.6 73.4 163 95.4 248 61.8l106.9 23.6-4.8-106.1c53.2-79.7 49.7-188-15.6-264.5h0 0 0z" stroke="#13165a" stroke-width="47.119"/></g><path d="M1682.2 341c77.8 0 140.9 63.1 140.9 140.9s-63.1 140.9-140.9 140.9-140.9-63.1-140.9-140.9S1604.4 341 1682.2 341zm-22.7-114.5l3.4 37.7m38.6 435.5l3.3 37.7M1534.9 272l21.7 31m251.2 357.9l21.7 31m-379.9-318.1l34.3 16m396.6 184.3l34.2 16m-488-85.5l37.7-3.4m435.6-38.6l37.6-3.3m-465.3 170l30.9-21.7m357.9-251.3l31-21.7m-318 379.9l15.9-34.3m184.4-396.5l15.9-34.3" stroke="#13165a" stroke-width="47.119" stroke-linecap="round" stroke-miterlimit="10"/></g></svg>