<?xml version="1.0" encoding="utf-8"?>
<!-- Generator: Adobe Illustrator 27.0.1, SVG Export Plug-In . SVG Version: 6.00 Build 0)  -->
<svg version="1.1" id="Layer_1" xmlns="http://www.w3.org/2000/svg" xmlns:xlink="http://www.w3.org/1999/xlink" x="0px" y="0px"
	 viewBox="0 0 2000 2000" style="enable-background:new 0 0 2000 2000;" xml:space="preserve">
<style type="text/css">
	.st0{fill:#FFFFFF;}
	.st1{fill:none;stroke:#14165A;stroke-width:37;stroke-linecap:round;stroke-miterlimit:10;}
	.st2{fill:none;stroke:#13165A;stroke-width:47.1192;stroke-miterlimit:10;}
	.st3{fill:none;stroke:#13165A;stroke-width:47.1192;stroke-linejoin:round;stroke-miterlimit:10;}
	.st4{fill:#14155A;}
</style>
<path class="st0" d="M324.6,531.2c53.5-77.9,120.1-145.5,196.5-199.7C526,275,509.2,216.6,469.4,170
	c-78.8-92.4-217.5-103.4-309.9-24.7C67.1,224,56.1,362.8,134.9,455.2C183.6,512.3,255.2,538.3,324.6,531.2z"/>
<g>
	<path class="st1" d="M230.9,376.2v-39.7c0-21.9,17.8-39.7,39.7-39.7s39.7,17.8,39.7,39.7v39.7"/>
	<line class="st1" x1="230.9" y1="233.3" x2="230.9" y2="352.2"/>
	<line class="st1" x1="366.1" y1="289.6" x2="366.1" y2="376.1"/>
</g>
<path class="st2" d="M523.7,324.9C657.9,228.5,822.1,171.2,999.9,170c456.4-3.1,828.8,364.2,831.9,820.6s-364.2,828.8-820.6,831.9
	c-456.4,3.1-828.8-364.2-831.9-820.6c-1.2-173.7,51.3-335.2,142-468.9"/>
<g>
	<path class="st3" d="M469.4,170c-78.8-92.4-217.5-103.4-309.9-24.7S56.1,362.8,134.9,455.2c62.6,73.4,163,95.4,248,61.8l106.9,23.6
		L485,434.5C538.2,354.8,534.7,246.5,469.4,170z"/>
</g>
<circle class="st4" cx="366.3" cy="236.6" r="18.4"/>
</svg>
