<svg xmlns="http://www.w3.org/2000/svg" viewBox="0 0 2000 2000" xmlns:v="https://vecta.io/nano"><path d="M324.6 531.2c53.5-77.9 120.1-145.5 196.5-199.7C526 275 509.2 216.6 469.4 170c-78.8-92.4-217.5-103.4-309.9-24.7S56.1 362.8 134.9 455.2c48.7 57.1 120.3 83.1 189.7 76z" fill="#fff"/><g fill="none"><g stroke="#13165a" stroke-width="47.119" stroke-miterlimit="10"><path d="M523.7 324.9C657.9 228.5 822.1 171.2 999.9 170c456.4-3.1 828.8 364.2 831.9 820.6s-364.2 828.8-820.6 831.9-828.8-364.2-831.9-820.6c-1.2-173.7 51.3-335.2 142-468.9"/><path d="M469.4 170c-78.8-92.4-217.5-103.4-309.9-24.7S56.1 362.8 134.9 455.2c62.6 73.4 163 95.4 248 61.8l106.9 23.6-4.8-106.1c53.2-79.7 49.7-188-15.6-264.5z" stroke-linejoin="round"/></g><path d="M398.3 242.8v138m-193-138v138m96-79c-22.6 0-41 18.3-41 41 0 22.6 18.3 41 41 41s41-18.3 41-41c-.1-22.7-18.4-41-41-41z" stroke="#14165a" stroke-width="37" stroke-linecap="round" stroke-linejoin="round" stroke-miterlimit="10"/></g></svg>