<svg xmlns="http://www.w3.org/2000/svg" viewBox="0 0 2000 2000" xmlns:v="https://vecta.io/nano"><path d="M324.6 531.2c53.5-77.9 120.1-145.5 196.5-199.7C526 275 509.2 216.6 469.4 170c-78.8-92.4-217.5-103.4-309.9-24.7S56.1 362.8 134.9 455.2c48.7 57.1 120.3 83.1 189.7 76h0zm1321.6-221s-41 221.7 166.8 281.8c0 0-144.2 88.6-233.8-59s67-222.8 67-222.8z" fill="#fff"/><linearGradient id="A" gradientUnits="userSpaceOnUse" x1="1665.878" y1="408.432" x2="1665.878" y2="643.931"><stop offset="0" stop-color="#fbae17"/><stop offset="1" stop-color="#f9ec31"/></linearGradient><path d="M1813 592c-142.4 30.4-290.8-143.2-205-263-223.8 83.5 22 442 205 263z" fill="url(#A)"/><g fill="none"><g stroke-linecap="round" stroke-miterlimit="10"><path d="M233 261.4c54.8 1 54.8 82.4 0 83.4-54.8-1-54.8-82.4 0-83.4zm41.7-3.5v107.7c0 23-18.7 41.7-41.7 41.7-14.1-.1-26.8-6.9-34.4-18.2M333 347.8c1-31.7-10.1-85.1 37.3-86.7 47.3 1.5 36.3 55 37.3 86.7m-74.6 0v-89.9" stroke="#14165a" stroke-width="37"/><path d="M1754.1 645.8c49.1 104.7 76.9 221.5 77.7 344.8 3.1 456.4-364.2 828.8-820.6 831.9s-828.8-364.2-831.9-820.6c-1.2-173.7 51.3-335.2 142-468.9m202.4-208.1C657.9 228.5 822.1 171.2 999.9 170c212.4-1.4 406.6 77.4 553.9 208M469.4 170c-78.8-92.4-217.5-103.4-309.9-24.7S56.1 362.8 134.9 455.2c62.6 73.4 163 95.4 248 61.8l106.9 23.6-4.8-106.1c53.2-79.7 49.7-188-15.6-264.5h0 0 0z" stroke="#13165a" stroke-width="47.119" stroke-linejoin="round"/></g><path d="M1837.1 569.8c-142.4 30.4-258.2-143.5-172.4-263.3-155.7 21.9-193.1 252.9-47.6 320.5 140.2 64.7 220-57.2 220-57.2z" stroke="#13165a" stroke-width="47.119" stroke-linejoin="round" stroke-miterlimit="10"/></g></svg>