<svg xmlns="http://www.w3.org/2000/svg" viewBox="0 0 2000 2000" xmlns:v="https://vecta.io/nano"><path d="M1772.2 387.4l-161.7 91.8 11.2 247.5 171.8-133.1-100.9-71.1z" fill="#fff"/><linearGradient id="A" gradientUnits="userSpaceOnUse" x1="1553" y1="597.55" x2="1717.8" y2="597.55"><stop offset="0" stop-color="#f6aa1c"/><stop offset="1" stop-color="#f5e82b"/></linearGradient><path d="M1717.8 597.7c-48.4 62-48.5 68-96.1 129-.5-1.1-68 48.9-68.5 47.8 19.8-55.7 79.6-111.4 100.7-170.7-20.3-23.7-79.8-46.5-100.9-71.1 48.3-61.9 84.5-50.7 132.1-111.8.5 1.1 24.4-1.1 25 0-19.8 55.7-14 35.8-69.9 106.4 20.2 23.6 56.5 45.7 77.6 70.4z" fill="url(#A)"/><g fill="none" stroke="#14165a" stroke-width="47.119" stroke-linejoin="round" stroke-miterlimit="10"><path d="M1793.5 593.6l-237.7 184.1-2.5-3.2 100.6-170.7-100.9-71.1 237.7-184.1 2.6 3.2-100.6 170.7 100.8 71.1z"/><path d="M1737.5 619.7c59.2 113.9 92.6 243.3 92.6 380.5 0 456.3-369.9 826.2-826.2 826.2s-826.2-369.9-826.2-826.2S547.6 174 1003.9 174c251.6 0 476.9 112.5 628.5 289.9"/></g></svg>