<svg xmlns="http://www.w3.org/2000/svg" viewBox="0 0 2000 2000" xmlns:v="https://vecta.io/nano"><style><![CDATA[.J{stroke:#14165a}.K{stroke-linejoin:round}.L{stroke-width:47.119}.M{stroke-linecap:round}.N{stroke-miterlimit:10}]]></style><path d="M1678.9 225.3c-80 0-149.8 43.3-187.4 107.8l257.8 314c85.2-29.2 146.4-110 146.4-205-.1-119.7-97.1-216.8-216.8-216.8h0z" fill="#fff"/><path d="M1791.9 365l-206.1-24.2 129.7-44.4 76.4 68.6z" fill="#bad725"/><g fill="none" class="J K L"><path d="M1761.1 661.5c63.4 142.8 87.2 305.2 59.4 470.8-75.2 450.1-500.9 754.1-951.1 678.9s-754.1-500.9-678.9-951.1S691.4 106 1141.6 181.2c126.3 21.1 241 69.7 339.1 138.8" class="M N"/><circle cx="1678.9" cy="442.1" r="216.7"/></g><path d="M1542.7,436.2h57.1v84.1h-57.1V436.2z" fill="#c3996b"/><g fill="none" class="J K M N"><path d="M1789.5 528.3h-221.3m-36-36.2c0-13.9 2.2-27.4 6.3-39.9 16.8-51.5 65.2-88.7 122.3-88.7 12.5 0 24.5 1.8 36 5.1" class="L"/><path d="M1782.3 366c-1.2-18.7-16.1-33.2-34.2-34.6-4.6-22.3-30.6-35.4-51.5-25.5-15.8-11.9-39.9-8.2-51.4 7.6-24.6-8.9-51.3 11.4-49.2 37.6" stroke-width="35"/></g><path d="M1551.9 382.4l44.1 69.9 35-93.9-79.1 24z" fill="#e344a3"/><circle cx="1604.1" cy="402.1" r="48.5" fill="none" stroke-width="35" class="J K"/><path d="M1772.9 528.3s65.8-10.8 53-5.4 9.5-157.1-98.5-148.1c-5.4-5.9 45.5 153.5 45.5 153.5h0z" fill="#fff"/><linearGradient id="A" gradientUnits="userSpaceOnUse" x1="1670.55" y1="481.562" x2="1670.55" y2="402.147"><stop offset="0" stop-color="#f6aa1c"/><stop offset="1" stop-color="#fe0"/></linearGradient><path d="M1682.2,363.5c46.2,0,83.6,75.5,83.6,146.6l-190.5,18.2" fill="url(#A)"/><g fill="none" class="J K L"><path d="M1604.1 492.1c7-194 236.3-148.5 207.1 36.2h-236m-42.7-35.2c-.7 46.5 72.4 46.5 71.7 0" class="M N"/><circle cx="1652.5" cy="779.2" r="52.7"/><circle cx="1588.3" cy="921.3" r="20"/></g></svg>