<svg xmlns="http://www.w3.org/2000/svg" viewBox="0 0 2000 2000" xmlns:v="https://vecta.io/nano"><g stroke-miterlimit="10"><path d="M1735.4 366.2l-80.2 125.5-13.3-209.4 93.5 83.9z" fill="#fff" stroke="#000"/><path d="M1655.2 491.7c109.2 139.5 174.3 315 174.9 505.8 1.5 456.3-367.2 827.4-823.5 828.8-456.3 1.5-827.4-367.2-828.8-823.5C176.3 546.5 545 175.4 1001.3 174c195.5-.6 375.2 66.5 517 179.5" fill="none" stroke="#14165a" stroke-width="47.119" stroke-linecap="round" stroke-linejoin="round"/></g><path d="M1531.9 382l43.8-90.3 109.4 9.3-101.5 152.1-33.2-31.9-18.5-39.2h0z" fill="#fff"/><linearGradient id="A" gradientUnits="userSpaceOnUse" x1="3627.698" y1="3799.387" x2="3627.698" y2="3989.346" gradientTransform="matrix(0.818 -2.508452e-02 -6.544159e-02 -1.0094 -1103.5085 4404.2744)"><stop offset="0" stop-color="#f9ac1b"/><stop offset="1" stop-color="#f7ea2f"/></linearGradient><path d="M1640.9 526.4l-62.9-13.2c-.1-1.9-28.9-9.5-28.8-11.6 2.1-24.9 17-41.1 7.8-62.5-5.6-13.1-12.3-27.1-14.1-42.2-6.3-52.1 30.2-101.9 64.7-103.9 38.7-2.3 72.5 50.3 69.4 108.6-1.1 20.4-6.6 37.8-15.8 52.2-9.5 14.8-17.1 31.5-19.4 52.7-.7 6.4-.6 13-.9 19.9h0 0z" fill="url(#A)"/><g stroke-miterlimit="10" stroke="#14165a" stroke-width="47.119" stroke-linejoin="round"><path d="M1633.1 537.3l-97.8-31.7 1.5-6.5c9.9-25.7 7.7-51.1-1.4-76.3-5.5-15.5-9.1-31.1-7.9-47.5 3.8-56.6 58.1-100.7 114.4-93 63.2 8.7 103.5 73.7 82.9 134.2-7.2 21.1-20.8 37.9-39.4 50.4-19.3 12.8-35.8 28.2-45.4 49.9-3 6.2-4.5 13.3-6.9 20.5h0 0z" fill="none"/><g stroke-linecap="round"><path d="M1601 548.7c-3.8 13-17.5 20.5-30.6 16.6-13-3.8-20.5-17.5-16.6-30.6" fill="#14165a"/><path d="M1792.4 425l39.6 10.5m-82.6 64.4l29.1 29m-294.9-293.1l29.1 28.9m-90 124.4l40.6 6m113.3-213.4l10.8 39.5m96.8-39.8l-10.5 39.6m103.9 13.9l-29 29.1m83.1 63.9l-39.5 10.7" fill="none"/></g></g></svg>