<svg xmlns="http://www.w3.org/2000/svg" viewBox="0 0 2000 2000" xmlns:v="https://vecta.io/nano"><ellipse cx="1733.8" cy="537.8" rx="111.7" ry="143.6" fill="#fff"/><linearGradient id="A" gradientUnits="userSpaceOnUse" x1="1645.898" y1="663.675" x2="1669.995" y2="436.294"><stop offset="0" stop-color="#f6aa1c"/><stop offset="1" stop-color="#f5e82b"/></linearGradient><ellipse cx="1659.1" cy="539.1" rx="133.7" ry="155.1" fill="url(#A)"/><g fill="none" stroke="#14165a"><g stroke-width="47.119" stroke-linejoin="round"><path d="M1568.2 391c-111.1-103.4-251.8-177.4-412-207.2-448.8-83.2-879.9 213-963.1 661.7s213 879.9 661.7 963.1c448.8 83.2 879.9-213 963.1-661.7 29.7-159.9 11.1-317.5-45.3-458" stroke-linecap="round" stroke-miterlimit="10"/><circle cx="1680.3" cy="540.1" r="169.3"/></g><path d="M1622.3 478.1h92.1c17.8 0 32.2 14.4 32.2 32.2s-14.4 32.2-32.2 32.2m-57.8-.1h57.7c17.8 0 32.2 14.4 32.2 32.2s-14.4 32.2-32.2 32.2h-92.1m86.2-160.3v22m0 141.6v27.8m-52.5 0V446.5" stroke-width="35" stroke-linecap="round" stroke-linejoin="round" stroke-miterlimit="10"/></g></svg>