<svg xmlns="http://www.w3.org/2000/svg" viewBox="0 0 2000 2000" xmlns:v="https://vecta.io/nano"><style><![CDATA[.G{stroke:#14165a}.H{stroke-linejoin:round}.I{stroke-miterlimit:10}.J{stroke-linecap:round}.K{stroke-width:47.119}]]></style><path d="M1685.4 345.8l100 156.3-58.3 66.7-114.6-198 72.9-25z" fill="#fff"/><path d="M1583 405.1c-108.5-106.1-247.3-183.6-406.7-217.3-446.6-94.3-884.9 191.1-979.2 637.6s191.2 884.9 637.7 979.2c446.6 94.3 884.9-191.2 979.2-637.7 35.9-170 16.8-338.6-45.3-487.8l-14.9-34.9-24.5-46.4m-118.4-164c-103.2-111.3-238.1-195.5-395.8-236.8-441.4-115.8-893 148.2-1008.9 589.7s148.1 893 589.6 1008.9 893-148.1 1008.9-589.6c44.2-168.1 33.1-337.5-21.7-489.5" fill="none" class="G H I J K"/><linearGradient id="A" gradientUnits="userSpaceOnUse" x1="1587.652" y1="647.578" x2="1640.104" y2="432.695"><stop offset="0" stop-color="#e80a89"/><stop offset="1" stop-color="#d9b9d8"/></linearGradient><path d="M1735.4 552.1l-129 134-93.4-242.5 133-71.6 89.4 180.1z" fill="url(#A)"/><g fill="none" class="G H I K"><path d="M1794.7 507.1l-188.3 179-93.4-242.5 172.6-109.1 109.1 172.6z"/><g class="J"><path d="M1691.5,308.3l-79.7,353.8"/><path d="M1490.7,440.1l328.3,74"/></g></g><g stroke-width="39" class="G H I"><path d="M1608.6 709.7l32.5 31.8 11.3-44-43.8 12.2zm-12.9-.4l-32.5-31.8-11.2 44 43.7-12.2z" fill="#14165a"/><path d="M1601.9 724.6s-37.3 62.4 0 114.8c48.4 68 0 114.8 0 114.8" fill="none" class="J"/></g></svg>