<svg xmlns="http://www.w3.org/2000/svg" viewBox="0 0 2000 2000" xmlns:v="https://vecta.io/nano"><path d="M1678.9 225.3c-80 0-149.8 43.3-187.4 107.8l257.8 314c85.2-29.2 146.4-110 146.4-205-.1-119.7-97.1-216.8-216.8-216.8h0 0z" fill="#fff"/><g fill="none" stroke="#14165a" stroke-width="47.119" stroke-linejoin="round"><path d="M1761.1 661.5c63.4 142.8 87.2 305.2 59.4 470.8-75.2 450.1-500.9 754.1-951.1 678.9s-754.1-500.9-678.9-951.1S691.4 106 1141.6 181.2c126.3 21.1 241 69.7 339.1 138.8" stroke-linecap="round" stroke-miterlimit="10"/><circle cx="1678.9" cy="442.1" r="216.7"/><circle cx="1652.5" cy="779.2" r="52.7"/><circle cx="1588.3" cy="921.3" r="20"/></g><linearGradient id="A" gradientUnits="userSpaceOnUse" x1="1659.6" y1="535.135" x2="1659.6" y2="378.963"><stop offset="0" stop-color="#f6aa1c"/><stop offset="1" stop-color="#fe0"/></linearGradient><path d="M1676.4 520.4v-35c2.2-4.9 5.3-10.2 9.5-16 40.4-56.3 29.6-150.7 29.6-150.7h-39.1-33.6-39.1s-10.8 94.4 29.6 150.7c4.2 5.8 7.3 11.1 9.5 16v35c-8.9 12.9-27 16.3-27 16.3v44.6h27 33.6 27v-44.6c.1 0-18.1-3.4-27-16.3z" fill="url(#A)"/><g stroke="#14165a" stroke-linejoin="round" stroke-miterlimit="10"><path d="M1690.9 581.2h-79.8v-44.6s76.3-10.9 23.1-67.2-39-150.7-39-150.7h95.7m-108.4 37.9c0 .1-39.3-10.8-41.2 44.3s92.7 70.2 92.7 70.2m35 110.1h79.8v-44.6s-76.3-10.9-23.1-67.2 39-150.7 39-150.7H1669m56.9 152.5s94.6-15.1 92.7-70.2-41.2-44.3-41.2-44.3" fill="none" stroke-width="40" stroke-linecap="round"/><path d="M1681.4 368.4l8.9 17.9 19.8 2.9-14.3 14 3.4 19.8-17.8-9.3-17.8 9.3 3.4-19.8-14.3-14 19.8-2.9 8.9-17.9z" fill="#14165a" stroke-width="25"/><path d="M1711.6,499.7h-62.1" fill="none" stroke-width="47.119"/></g></svg>