<svg xmlns="http://www.w3.org/2000/svg" viewBox="0 0 2000 2000" xmlns:v="https://vecta.io/nano"><path d="M1678.9 225.3c-80 0-149.8 43.3-187.4 107.8l257.8 314c85.2-29.2 146.4-110 146.4-205-.1-119.7-97.1-216.8-216.8-216.8h0 0 0 0 0z" fill="#fff"/><g fill="none" stroke="#14165a" stroke-width="47.119" stroke-linejoin="round"><path d="M1761.1 661.5c63.4 142.8 87.2 305.2 59.4 470.8-75.2 450.1-500.9 754.1-951.1 678.9s-754.1-500.9-678.9-951.1S691.4 106 1141.6 181.2c126.3 21.1 241 69.7 339.1 138.8" stroke-linecap="round" stroke-miterlimit="10"/><circle cx="1678.9" cy="442.1" r="216.7"/><circle cx="1652.5" cy="779.2" r="52.7"/><circle cx="1588.3" cy="921.3" r="20"/></g><linearGradient id="A" gradientUnits="userSpaceOnUse" x1="1638.908" y1="527.982" x2="1702.275" y2="404.713"><stop offset="0" stop-color="#f6aa1c"/><stop offset="1" stop-color="#f5e82b"/></linearGradient><path d="M1608 574.6s222.8-144.2 220-148.4S1611.5 315 1611.5 315l-3.5 259.6z" fill="url(#A)"/><circle cx="1687.1" cy="381.7" r="29.6" fill="#f07095"/><path d="M1763 454s-45-108-156.3-94.3l-10.9-52s131.2-56.1 236.5 121.6L1763 454z" fill="#c3996b"/><g fill="#f07095"><circle cx="1706.7" cy="450.3" r="29.6"/><circle cx="1623.3" cy="428.6" r="29.6"/><circle cx="1649.5" cy="511.9" r="29.6"/></g><path d="M1618 322s148.5-6.4 169.5 67.6c-1-1-180.5 164.4-180.5 164.4l237-126-128-119-98 13z" fill="#fff"/><path d="M1608 574.6l223.5-144s-23.8-65.1-96.7-102.6-139.7-19-139.7-19l12.9 265.6h0 0 0 0z" fill="none" stroke="#14165a" stroke-width="40" stroke-linejoin="round" stroke-miterlimit="10"/></svg>