<svg xmlns="http://www.w3.org/2000/svg" viewBox="0 0 2000 2000" xmlns:v="https://vecta.io/nano"><linearGradient id="A" gradientUnits="userSpaceOnUse" x1="831.773" y1="832.376" x2="1186.123" y2="832.376"><stop offset="0" stop-color="#5acaf4"/><stop offset=".999" stop-color="#c3e7f9"/></linearGradient><path d="M1121.3 1036.5c-31-1.1-73.7-3.1-91.8 26.8-79.7 1.7-131 5.9-120.6-102 3.2-104-7.7-256.3 6.5-329.9 4.2-57.8 71.6-74.3 40.1-120.8-58.1-47-99.1 47-113.7 103.5-19.6 120-3.5 303.5-8.6 387.6-3.7 116.3 111.8 147.6 197 137.1 11.7 15.6 30.4 25.8 51.3 25.8 116 21.4 144.5-113.5 39.8-128.1z" fill="url(#A)"/><path d="M1171.1 1036.5h-89.5c-21.4 0-40.4 10.6-52.1 26.8h-59.1c-.2 0-16.9-.5-32.8-8.4-12.4-6.2-28.8-18.4-28.8-53.2h0V999v-8.3-29.3-88.7l-.1-194.3c.1-2.4.9-22.7 6.6-46.9 7.4-31.5 19.5-54.9 35-67.6 16.1-13.3 18.4-37.1 5.1-53.2s-37.1-18.4-53.2-5.1c-28.7 23.7-49.1 60.2-60.5 108.6-8 33.8-8.6 61.9-8.6 63.1v.4.4l.1 308.1-.1.1v15.6c0 55.1 25.1 98 70.6 120.7 31.9 16 63.1 16.4 66.6 16.4h59.8c11.7 15.6 30.4 25.8 51.3 25.8h89.5c35.3 0 64.1-28.8 64.1-64.1h0c.2-35.4-28.7-64.2-63.9-64.2z" fill="none" stroke="#14165a" stroke-width="47.119" stroke-linejoin="round" stroke-miterlimit="10"/></svg>