<svg xmlns="http://www.w3.org/2000/svg" viewBox="0 0 2000 2000" xmlns:v="https://vecta.io/nano"><linearGradient id="A" gradientUnits="userSpaceOnUse" x1="1302.816" y1="820.778" x2="1220.281" y2="901.14"><stop offset="0" stop-color="#8dc540"/><stop offset="1" stop-color="#fbed21"/></linearGradient><path d="M1314.4 775.1c-33.1-1.3-80.2 9.8-117.1 41.4-55.6 47.7-64.7 126-47.9 142s97.9 16.9 153.5-30.8c7.2-6.2 13.6-12.8 19.4-19.7 1.2-14.3 1.7-28.5 1.7-42.6 0-31.4-3.2-61.5-9.6-90.3z" fill="url(#A)"/><linearGradient id="B" gradientUnits="userSpaceOnUse" x1="901.56" y1="780.455" x2="1081.833" y2="958.556"><stop offset="0" stop-color="#8dc540"/><stop offset="1" stop-color="#fbed21"/></linearGradient><path d="M1037.7 813.4c47.3 49.1 55 129.8 40.8 146.2S995.3 977 948 927.9s-56.9-127.7-40.8-146.2 83.2-17.5 130.5 31.7z" fill="url(#B)"/><g fill="none" stroke="#14165a" stroke-width="47.119" stroke-linejoin="round" stroke-miterlimit="10"><path d="M1338 909.2c-5.4 6.8-11.4 13.3-18.1 19.3-53.7 48.4-131.9 47.4-148.1 31.2s-7.4-95.7 46.2-144.1c35.6-32.1 81-43.4 112.9-42" stroke-linecap="round"/><path d="M1045.2 815.7c53.7 48.4 62.4 127.9 46.2 144.1-16.1 16.2-94.4 17.2-148-31.2s-64.5-125.8-46.2-144.1c18.2-18.3 94.3-17.2 148 31.2z"/></g></svg>