<?xml version="1.0" encoding="utf-8"?>
<!-- Generator: Adobe Illustrator 27.0.1, SVG Export Plug-In . SVG Version: 6.00 Build 0)  -->
<svg version="1.1" id="Layer_1" xmlns="http://www.w3.org/2000/svg" xmlns:xlink="http://www.w3.org/1999/xlink" x="0px" y="0px"
	 viewBox="0 0 2000 2000" style="enable-background:new 0 0 2000 2000;" xml:space="preserve">
<style type="text/css">
	.st0{fill:none;stroke:#14165A;stroke-width:47.1192;stroke-linecap:round;stroke-linejoin:round;stroke-miterlimit:10;}
	.st1{fill:#14155A;}
</style>
<line class="st0" x1="767.1" y1="877.3" x2="859" y2="857"/>
<path class="st0" d="M1247.6,960.7H981c-59.3,0-107.8-48.5-107.8-107.9l0,0c0-59.3,48.5-107.8,107.8-107.8h266.5
	c59.3,0,107.8,48.5,107.8,107.8l0,0C1355.4,912.2,1306.9,960.7,1247.6,960.7z"/>
<path class="st0" d="M1174.5,960.7H1094c-59.3,0-107.9-48.5-107.9-107.9l0,0c0-59.3,48.5-107.8,107.9-107.8h80.5"/>
<path class="st1" d="M1248,891.2h-144.2c-21.2,0-38.5-17.3-38.5-38.5l0,0c0-21.2,17.3-38.5,38.5-38.5H1248
	c21.2,0,38.5,17.3,38.5,38.5l0,0C1286.4,874,1269.1,891.2,1248,891.2z"/>
</svg>
