<svg xmlns="http://www.w3.org/2000/svg" viewBox="0 0 2000 2000" xmlns:v="https://vecta.io/nano"><linearGradient id="A" gradientUnits="userSpaceOnUse" x1="1093.95" y1="941.569" x2="1093.95" y2="820.006"><stop offset="0" stop-color="#f6aa1c"/><stop offset="1" stop-color="#fe0"/></linearGradient><path d="M1210.4 761.2s68.3 3.7 68.3 90.1-22.4 121.7-67.2 121.7c-89.7 0-85.5-47.5-117.5-47.5h0c-32 0-27.8 47.5-117.5 47.5-44.8 0-67.3-35.4-67.3-121.8s68.3-90.1 68.3-90.1l232.9.1h0z" fill="url(#A)"/><g fill="none" stroke-width="47.119" stroke-linejoin="round" stroke-miterlimit="10"><path d="M1074.5 770.2L959.6 966.9" stroke="#fff" stroke-linecap="round"/><path d="M1257.2 761.2s79 3.7 79 90.1-25.9 121.7-77.7 121.7c-103.6 0-98.8-47.5-135.7-47.5h0c-37 0-32.1 47.5-135.7 47.5-51.8 0-77.7-35.4-77.7-121.8s79-90.1 79-90.1l268.8.1h0zM746.8 866l161.7-36.2" stroke="#14165a"/></g></svg>