<svg xmlns="http://www.w3.org/2000/svg" viewBox="0 0 2000 2000" xmlns:v="https://vecta.io/nano"><linearGradient id="A" gradientUnits="userSpaceOnUse" x1="1131.88" y1="827.737" x2="1131.88" y2="944.193"><stop offset="0" stop-color="#e80a89"/><stop offset="1" stop-color="#d9b9d8"/></linearGradient><path d="M1233.4 805.1c4.4-4.4 9.2-8.2 14.6-11.2 33.3-18.4 75.5 1.2 83 38.5 2.7 13.3.8 26.1-3.8 38.7-4.6 12.5-11.7 23.4-20.1 33.6-14.2 17.3-31.3 31.6-48.9 45.1-7.6 5.9-15.5 11.4-23.1 17.2-1.2.9-2 .9-3.2.1-13.6-9.6-27-19.4-39.7-30.1-12.6-10.6-24.5-21.9-34.7-35-9.7-12.5-17.5-26-21-41.7-3.6-16.3-2.4-32 6.8-46.4 10.1-15.9 24.7-25 43.5-26.6 17.7-1.5 32.8 4.4 45.5 16.7l1.1 1.1h0 0zm-203.1 0c4.4-4.4 9.2-8.2 14.6-11.2 33.3-18.4 75.5 1.2 83 38.5 2.7 13.3.8 26.1-3.8 38.7-4.6 12.5-11.7 23.4-20.1 33.6-14.2 17.3-31.3 31.6-48.9 45.1-7.6 5.9-15.5 11.4-23.1 17.2-1.2.9-2 .9-3.2.1-13.6-9.6-27-19.4-39.7-30.1-12.6-10.6-24.5-21.9-34.7-35-9.7-12.5-17.5-26-21-41.7-3.6-16.3-2.4-32 6.8-46.4 10.1-15.9 24.7-25 43.5-26.6 17.7-1.5 32.8 4.4 45.5 16.7l1.1 1.1h0 0z" fill="url(#A)"/><g fill="none" stroke-linecap="round" stroke-linejoin="round" stroke-miterlimit="10"><path d="M1016.4 795.3l-37.5 120.3M1218 795.3l-37.5 120.3" stroke="#fff" stroke-width="30"/><path d="M769.5 871.9l157.8-29.7m309.8-37.8c4.5-4.5 9.2-8.3 14.7-11.4 33.6-18.6 76.2 1.2 83.8 38.8 2.6 13.4.8 26.4-3.9 39s-11.8 23.6-20.3 33.9c-14.5 17.5-31.5 31.8-49.4 45.6l-23.4 17.4c-1.2.9-2 1-3.3.1-13.7-9.7-27.3-19.6-40.1-30.5-12.7-10.7-24.7-22.1-35-35.3-9.8-12.7-17.7-26.3-21.2-42.1-3.7-16.5-2.5-32.3 6.8-46.9 10.3-16.1 25-25.2 44-26.9 17.9-1.5 33.1 4.5 45.9 16.9l1.4 1.4zm-203.1 0c4.5-4.5 9.2-8.3 14.7-11.4 33.6-18.6 76.2 1.2 83.8 38.8 2.6 13.4.8 26.4-3.9 39s-11.8 23.6-20.3 33.9c-14.5 17.5-31.5 31.8-49.4 45.6l-23.4 17.4c-1.2.9-2 1-3.3.1-13.7-9.7-27.3-19.6-40.1-30.5-12.7-10.7-24.7-22.1-35-35.3-9.8-12.7-17.7-26.3-21.2-42.1-3.7-16.5-2.5-32.3 6.8-46.9 10.3-16.1 25-25.2 44-26.9 17.9-1.5 33.1 4.5 45.9 16.9.5.6.9.9 1.4 1.4h0 0z" stroke="#14165a" stroke-width="47.119"/></g></svg>