<?xml version="1.0" encoding="utf-8"?>
<!-- Generator: Adobe Illustrator 27.0.1, SVG Export Plug-In . SVG Version: 6.00 Build 0)  -->
<svg version="1.1" id="Layer_1" xmlns="http://www.w3.org/2000/svg" xmlns:xlink="http://www.w3.org/1999/xlink" x="0px" y="0px"
	 viewBox="0 0 2000 2000" style="enable-background:new 0 0 2000 2000;" xml:space="preserve">
<style type="text/css">
	.st0{fill:#B2DFF7;}
	.st1{fill:none;stroke:#FFFFFF;stroke-width:37;stroke-linejoin:round;stroke-miterlimit:10;}
	.st2{fill:none;stroke:#14165A;stroke-width:47.1192;stroke-linecap:round;stroke-linejoin:round;stroke-miterlimit:10;}
</style>
<path class="st0" d="M1150.6,812.5c4.7,0,62.5-32.8,171.9,0c0,0-2.4,143-82.4,143S1150.6,812.5,1150.6,812.5z"/>
<path class="st0" d="M1127.2,812.5c-4.7,0-62.5-32.8-171.9,0c0,0,2.4,143,82.4,143S1127.2,812.5,1127.2,812.5z"/>
<line class="st1" x1="1048.9" y1="796.2" x2="977" y2="929"/>
<line class="st1" x1="1253.5" y1="796.2" x2="1181.7" y2="929"/>
<g>
	<line class="st2" x1="768" y1="881.2" x2="945.9" y2="844.8"/>
	<path class="st2" d="M1149.2,812.5c4.7,0,62.5-32.8,171.9,0c0,0-2.4,143-82.4,143S1149.2,812.5,1149.2,812.5z"/>
	<path class="st2" d="M1125.8,812.5c-4.7,0-62.5-32.8-171.9,0c0,0,2.4,143,82.4,143S1125.8,812.5,1125.8,812.5z"/>
</g>
</svg>
