<?xml version="1.0" encoding="utf-8"?>
<!-- Generator: Adobe Illustrator 27.0.1, SVG Export Plug-In . SVG Version: 6.00 Build 0)  -->
<svg version="1.1" id="Layer_1" xmlns="http://www.w3.org/2000/svg" xmlns:xlink="http://www.w3.org/1999/xlink" x="0px" y="0px"
	 viewBox="0 0 2000 2000" style="enable-background:new 0 0 2000 2000;" xml:space="preserve">
<style type="text/css">
	.st0{fill:none;stroke:#14165A;stroke-width:47.1192;stroke-linecap:round;stroke-linejoin:round;stroke-miterlimit:10;}
	.st1{fill:none;stroke:#14165A;stroke-width:47.1192;stroke-linejoin:round;stroke-miterlimit:10;}
	.st2{fill:#14165A;}
</style>
<g>
	<line class="st0" x1="768" y1="881.2" x2="945.9" y2="844.8"/>
	<path class="st1" d="M1149.2,812.5c4.7,0,62.5-32.8,171.9,0c0,0-2.4,143-82.4,143S1149.2,812.5,1149.2,812.5z"/>
	<path class="st1" d="M1125.8,812.5c-4.7,0-62.5-32.8-171.9,0c0,0,2.4,143,82.4,143S1125.8,812.5,1125.8,812.5z"/>
	<g>
		<path class="st2" d="M1268,827.4c0,37.9-13.6,68.7-30.3,68.7s-30.3-30.8-30.3-68.7s13.6-36.8,30.3-36.8S1268,789.4,1268,827.4z"/>
	</g>
	<g>
		<path class="st2" d="M1068.6,827.4c0,37.9-13.6,68.7-30.3,68.7s-30.3-30.8-30.3-68.7s13.6-36.8,30.3-36.8
			S1068.6,789.4,1068.6,827.4z"/>
	</g>
</g>
</svg>
