<?xml version="1.0" encoding="utf-8"?>
<!-- Generator: Adobe Illustrator 27.0.1, SVG Export Plug-In . SVG Version: 6.00 Build 0)  -->
<svg version="1.1" id="Layer_1" xmlns="http://www.w3.org/2000/svg" xmlns:xlink="http://www.w3.org/1999/xlink" x="0px" y="0px"
	 viewBox="0 0 2000 2000" style="enable-background:new 0 0 2000 2000;" xml:space="preserve">
<style type="text/css">
	.st0{fill:none;stroke:#14155A;stroke-width:47.119;stroke-linecap:round;stroke-linejoin:round;stroke-miterlimit:10;}
	.st1{fill:#14155A;stroke:#14155A;stroke-width:47.121;stroke-linejoin:round;stroke-miterlimit:10;}
	.st2{fill:none;stroke:#14155A;stroke-width:47.119;stroke-linejoin:round;stroke-miterlimit:10;}
</style>
<path class="st0" d="M957.8,1377.4c0,0-61.6,31.7-10.5,77.5s-14.1,71.5-14.1,71.5"/>
<path class="st1" d="M954.4,1344.1c0,0,27,42.8,20.8,41.3l-58.3-14.2L954.4,1344.1z"/>
<path class="st2" d="M1068.6,473.3c-178.4,0-322.8,126.3-322.8,380.8c0,254.2,152.9,479.2,245.8,479.2
	c134.9,0,399.8-145.4,399.8-479.2C1392,599.6,1246.9,473.8,1068.6,473.3z"/>
<g>
	<path class="st0" d="M838.5,1419.7c-23.4,13.8-39.7,34.4-43.9,59.3c-9.2,54,41.7,107.8,113.7,120.1c72,12.3,137.8-21.6,147.1-75.6
		c4-23.3-3.3-46.6-18.6-66.5"/>
</g>
</svg>
