<svg xmlns="http://www.w3.org/2000/svg" viewBox="0 0 2000 2000" fill="none" stroke="#14165a" stroke-linejoin="round" xmlns:v="https://vecta.io/nano"><path d="M1080.3 1276.9c13.7 29.4 52.7 50.2 85.3 46.9 39.3-4 79-45.3 87.6-86.3 2.5-.1-2.4-.2 0-.5 16 32.3 69.1 43.8 98.9 29.7 35.4-16.7 58-46.1 58-97.6v-.2-404.4c.1 0 .2 0 .3-.1.1-88.5-36.4-165.5-96-224.6-59.5-58.4-142-98.7-232.6-98.3-90.6-.4-173.1 39.9-232.6 98.3-59.5 59-96.1 136.1-96 224.6v404.3.2c0 64.1 36.3 93.6 67.5 101.9 26 6.9 73.6-3.9 89.1-34.8 2.8.5.4.9 3.3 1.2 9.1 41 46.4 82.7 85.1 86.6 32.9 3.3 68.4-17.8 82-47.6l.1.7h0z" stroke-width="47.119" stroke-miterlimit="10"/><path d="M794.6 1477.8c7.9-54.2 77.5-92.3 149.1-76.8 76.6 16.6 118.7 64.8 110.8 119s-72.9 88.7-145.2 77.1-122.5-65.1-114.7-119.3z" stroke-width="47.118" stroke-miterlimit="3.9999"/></svg>