<svg xmlns="http://www.w3.org/2000/svg" viewBox="0 0 2000 2000" xmlns:v="https://vecta.io/nano"><ellipse transform="matrix(.1511 -.9885 .9885 .1511 -702.7612 2189.8076)" cx="923.6" cy="1504.1" rx="94.2" ry="132.5" fill="none" stroke="#14165a" stroke-width="47.117" stroke-linejoin="round"/><path d="M1225.7 567.6s-27.1 80.7 61.5 85.9c88.5 5.2 157.4-5.2 132.8-59.9s-66.4-101.6-118-91.1c-51.7 10.4-76.3 65.1-76.3 65.1zm-185.8 0s27.1 80.7-61.5 85.9-157.4-5.2-132.8-59.9 66.4-101.6 118-91.1c51.7 10.4 76.3 65.1 76.3 65.1z" fill="#fff"/><g fill="none" stroke="#14165a" stroke-linejoin="round" stroke-width="47.119"><path d="M1200.5 656.3s-54.2 51.1-123.2-.6l123.2.6z"/><path d="M1136.5 739.1l2.4-81.3m-85.7-96.2s-35.3-76.8-114.1-64.5c-55.3 8.6-91.7 72.4-108.4 109.6" stroke-linecap="round"/><path d="M1335.9 762.5c15.6 51.6 20.5 114.1 20.5 114.1 2.5 20.6 3.8 41.7 3.8 63.2 0 224.9-141.3 396.1-321.2 396.1s-257-142.5-285.4-240.1c-25.7-90.9-16.4-142.5-16.4-142.5s7.4-154.9 103.5-196.8c67.6-29.5 333-2.8 487.7-14.4l7.5 20.4h0 0z"/><g stroke-linecap="round"><path d="M1308 481c-.3.8 31.8-73.6-42-107s-128 71-128.2 71.1c-39-12.1-86.8-20.4-144.2-20.4-46.3 0-88.6 6.7-126.6 19.9 0-1.6-67.2-122.6-153.1-65.6S706 538 708 540.8C645.9 635.6 542 697.7 542 951s188.6 384.4 264.8 419.4c111.3 51.1 215 49.6 215 49.6s217.2 14.5 348.9-205.4c126.7-211.5 92.4-451.3 81.3-512.2s-76.3-354.1-256.5-125.8"/><path d="M1352.8 580.8v33m-368.4-33v33" stroke-miterlimit="10"/></g></g></svg>