<svg xmlns="http://www.w3.org/2000/svg" viewBox="0 0 2000 2000" xmlns:v="https://vecta.io/nano"><path d="M790 1039c-17.4 24.5-44 40.1-73.9 40.1-52.5 0-95.1-48.5-95.1-108.3s42.6-108.3 95.1-108.3c26.3 0 50 12.1 67.2 31.7" fill="none" stroke="#14165a" stroke-width="47.119" stroke-linecap="round" stroke-miterlimit="10"/><path d="M1192.9 619.8c-9-111-113.2-120.1-113.2-120.1S791.6 435 564.9 752.6c2.9-7.5-52.5 117.9 10 146.7l25.2-3.3c253.2-412.5 592.8-276.2 592.8-276.2" fill="#f0b7d4"/><path d="M790 1039c-17.4 24.5-44 40.1-73.9 40.1-52.5 0-95.1-48.5-95.1-108.3s42.6-108.3 95.1-108.3c26.3 0 50 12.1 67.2 31.7m-41.7 182.9c28.8 98.8 85.7 178.1 158.4 223.1l-23.3 104.6c-43.1 9.8-75.8 37.3-82.1 74.2-9.2 54 41.7 107.8 113.7 120.1s137.8-21.6 147.1-75.6c6.2-36.4-14.9-72.7-51.3-96.2l17.4-86.9c6.5.5 13 .7 19.6.7 177.3 0 321.1-184.7 321.1-412.5 0-122.9-41.9-233.3-108.3-308.9 0 0-347.7-136.3-606.8 276.2m606.6-276.1c-9.2-111-115.9-120.1-115.9-120.1s-294.9-64.7-527 252.9C584 793 557 870.5 621 899.3M1229 546s75.8-52.8 33.8-126.3C1230.4 363 1145 428 1145 428s30.1-81.7-42-99c-67.5-16.2-97 87-97 87s-15.2-113.2-80-97c-66.2 16.6-45 117-45 117s-46.7-89.7-106-60c-59.6 29.8-25 114-25 114s-59.1-100.8-113-36c-56.5 67.9 19 108 19 108s-77.6-63.2-110 7 33 94 33 94-80-11-76 70 80 61 80 61" fill="none" stroke="#14165a" stroke-width="47.119" stroke-linecap="round" stroke-linejoin="round" stroke-miterlimit="10"/></svg>