<?xml version="1.0" encoding="utf-8"?>
<!-- Generator: Adobe Illustrator 27.0.1, SVG Export Plug-In . SVG Version: 6.00 Build 0)  -->
<svg version="1.1" id="Layer_1" xmlns="http://www.w3.org/2000/svg" xmlns:xlink="http://www.w3.org/1999/xlink" x="0px" y="0px"
	 viewBox="0 0 2000 2000" style="enable-background:new 0 0 2000 2000;" xml:space="preserve">
<style type="text/css">
	.st0{fill:none;stroke:#14165A;stroke-width:47.1192;stroke-linecap:round;stroke-miterlimit:10;}
	.st1{fill:none;stroke:#14165A;stroke-width:47.1192;stroke-linejoin:round;stroke-miterlimit:10;}
	.st2{fill:none;stroke:#14165A;stroke-width:47.1192;stroke-miterlimit:10;}
</style>
<path class="st0" d="M790,1039c-17.4,24.5-44,40.1-73.9,40.1c-52.5,0-95.1-48.5-95.1-108.3s42.6-108.3,95.1-108.3
	c26.3,0,50,12.1,67.2,31.7"/>
<path class="st1" d="M704.9,857c0,0-1-96.1,24-149.2c-1.6,1.6-82.8-123.4-82.8-123.4s-16.2,107-141.2,188.3
	c-4.7,1.6-148.4-225,151.6-329.7c1.6-1.6,117.2,193.8,117.2,193.8s195.3-201.6,403.1-67.2l91.1-116.4c0,0,231.2,15.6,209.4,235.9
	c-6.2-3.1-128.1,12.5-187.5-142.2c-1.6,3.1-50.5,61.7-50.5,61.7l29.7,34.9"/>
<path class="st2" d="M1269,643.5c66.4,75.6,93.2,162.2,93.2,285.1c0,227.8-143.8,412.5-321.1,412.5c-6.6,0-13.1-0.2-19.6-0.7
	l-17.4,86.9c36.4,23.5,57.5,59.8,51.3,96.2c-9.3,54-75.1,87.9-147.1,75.6S785.4,1533,794.6,1479c6.3-36.9,39-64.4,82.1-74.2
	l23.3-104.6c-72.7-45-129.6-124.3-158.4-223.1"/>
</svg>
