<?xml version="1.0" encoding="utf-8"?>
<!-- Generator: Adobe Illustrator 27.0.1, SVG Export Plug-In . SVG Version: 6.00 Build 0)  -->
<svg version="1.1" id="Layer_1" xmlns:v="https://vecta.io/nano"
	 xmlns="http://www.w3.org/2000/svg" xmlns:xlink="http://www.w3.org/1999/xlink" x="0px" y="0px" viewBox="0 0 2000 2000"
	 style="enable-background:new 0 0 2000 2000;" xml:space="preserve">
<style type="text/css">
	.st0{fill:none;stroke:#14165A;stroke-width:47.11;stroke-linecap:round;stroke-linejoin:round;}
	.st1{fill:none;stroke:#14165A;stroke-width:47.11;stroke-linejoin:round;}
</style>
<path class="st0" d="M1259.1,567.8c90.8,76.1,148.7,191.7,148.7,321.2c0,229.2-181.5,415-405.4,415S597,1118.2,597,889
	c0-125.9,54.8-238.7,141.3-314.8"/>
<ellipse class="st1" cx="1000.8" cy="576.7" rx="259.4" ry="54.1"/>
<circle class="st1" cx="718.9" cy="889.4" r="50.7"/>
<circle class="st1" cx="718.9" cy="752.1" r="20.4"/>
<path class="st1" d="M897.9,1300.2l-21.2,104.6c-43.1,9.8-75.8,37.3-82.1,74.2c-9.2,54,41.7,107.8,113.7,120.1
	s137.8-21.6,147.1-75.6c6.2-36.4-14.9-72.7-51.3-96.2l24.6-115"/>
</svg>
