<svg xmlns="http://www.w3.org/2000/svg" viewBox="0 0 2000 2000" fill="none" stroke="#14165a" stroke-width="47.119" xmlns:v="https://vecta.io/nano"><g stroke-miterlimit="10"><path d="M798.1 1199.7c28.1 41.9 62.7 76.2 101.9 100.5l-23.3 104.6c-43.1 9.8-75.8 37.3-82.1 74.2-9.2 54 41.7 107.8 113.7 120.1s137.8-21.6 147.1-75.6c6.2-36.4-14.9-72.7-51.3-96.2l17.4-86.9c6.5.5 13 .7 19.6.7 177.3 0 321.1-184.7 321.1-412.5 0-86.6-20.8-167.1-56.4-233.5"/><g stroke-linejoin="round"><path d="M1371.3 577.3c-9.5-43.9-40.8-84.1-85.9-110.4-33.5-19.5-71.8-29.5-107.9-28.1-31.5 1.3-60.1 11.2-82.5 28.2-30.5-18.5-67.6-28.6-106.1-28.6-43.3 0-84.9 12.8-117.3 36-39.5 28.4-62.2 70.2-62.2 114.7s22.7 86.3 62.2 114.7c32.3 23.2 74 36 117.3 36s84.9-12.8 117.3-36c5.3-3.8 10.3-7.9 15-12.2 4.8 3.4 9.8 6.6 14.9 9.6 31.4 18.3 67 28.2 101 28.2l6.9-.1c45.4-1.8 84.8-21.7 108.2-54.7 19.8-28 26.6-62.5 19.1-97.3z"/><path d="M1164.1 424.1c-41.5-35-144.4-93.7-322.7-38.2C707.1 421.1 621.1 530.8 587.1 621c-37.9 118.1.2 236.7 9.3 285.2s109.4 339.7 207.5 290.7c6.2-3.1 46.9-10.9-40.6-342.2 0 0-33.7-126 144.4-127.5" stroke-linecap="round"/></g></g><ellipse cx="988.8" cy="589.1" rx="101.9" ry="73.2" stroke-linejoin="round"/><ellipse transform="matrix(.4374 -.8993 .8993 .4374 156.0611 1417.276)" cx="1210.7" cy="583.9" rx="61.1" ry="91" stroke-linejoin="round"/></svg>