<svg xmlns="http://www.w3.org/2000/svg" viewBox="0 0 2000 2000" xmlns:v="https://vecta.io/nano"><style><![CDATA[.C{stroke-linejoin:round}.D{stroke-miterlimit:10}]]></style><g fill="none" stroke="#14165a" stroke-width="47.119" class="D"><g stroke-linecap="round"><path d="M783.3 894.2c-17.2-19.6-40.9-31.7-67.2-31.7-52.5 0-95.1 48.5-95.1 108.3s42.6 108.3 95.1 108.3c29.9 0 56.5-15.6 73.9-40.1" class="C"/><path d="M695 853.6s-49.9-216.4 108.9-307c0 0 221.5-153.6 449.9 73.1 66.4 75.6 108.3 186 108.3 308.9 0 227.8-143.8 412.5-321.1 412.5-6.6 0-13.1-.2-19.6-.7l-17.4 86.9c36.4 23.5 57.5 59.8 51.3 96.2-9.3 54-75.1 87.9-147.1 75.6S785.4 1533 794.6 1479c6.3-36.9 39-64.4 82.1-74.2l23.3-104.6c-72.7-45-129.6-124.3-158.4-223.1"/><path d="M875.1 513.3l-39.9-101.1" class="C"/></g><path d="M831.7 413.6c23.4-31.7 50.2-66.3 93.3-88.6 36.1-18.5 80.1-16.2 93.9 5.5 17.5 23.4-8.4 63.2-51.4 79.3-48.6 18-96.4 12.2-135.8 3.8z" class="C"/><path d="M834.2 413.8c-23.4 31.7-50.2 66.3-93.3 88.6-36.1 18.5-80.1 16.2-93.9-5.5-17.5-23.4 8.4-63.2 51.4-79.3 48.6-18 96.4-12.2 135.8-3.8z" class="C"/></g></svg>