<svg xmlns="http://www.w3.org/2000/svg" viewBox="0 0 2000 2000" fill="none" stroke="#14165a" stroke-width="47.119" stroke-miterlimit="10" xmlns:v="https://vecta.io/nano"><path d="M790 1039c-17.4 24.5-44 40.1-73.9 40.1-52.5 0-95.1-48.5-95.1-108.3s42.6-108.3 95.1-108.3c26.3 0 50 12.1 67.2 31.7" stroke-linecap="round"/><path d="M741.6 1077.1c28.8 98.8 85.7 178.1 158.4 223.1l-23.3 104.6c-43.1 9.8-75.8 37.3-82.1 74.2-9.2 54 41.7 107.8 113.7 120.1s137.8-21.6 147.1-75.6c6.2-36.4-14.9-72.7-51.3-96.2l17.4-86.9c6.5.5 13 .7 19.6.7 177.3 0 321.1-184.7 321.1-412.5 0-122.9-41.9-233.3-108.3-308.9"/><g stroke-linejoin="round"><path d="M821.1 671.9S961.7 378.1 1232 382.8c284.4 4.9 15.7 230.8 15.7 230.8-256.3-67.4-426.6 58.3-426.6 58.3z"/><path d="M1078.9 407.8c-210.4-102.2-440.4 77-491.8 213.2-56.6 150.1 71.8 252.4 71.8 252.4" stroke-linecap="round"/></g></svg>