<svg xmlns="http://www.w3.org/2000/svg" viewBox="0 0 2000 2000" xmlns:v="https://vecta.io/nano"><g fill="none" stroke="#14165a" stroke-width="47.119" stroke-miterlimit="10"><path d="M1018.5 1356.4l-14.5 70.9c36.4 23.5 57.5 59.8 51.3 96.2-9.3 54-75.1 87.9-147.1 75.6S785.4 1533 794.6 1479c6.3-36.9 39-64.4 82.1-74.2l12.1-57.7"/><path d="M1387.2 1342.4H756V508h631.2v834.4zM623.7 998.6v307.8l132.3 35.9V508l-132.3 62.5V758m-3.4 14.5c-61 0-106.5 49.5-106.5 110.5s45.5 110.5 106.5 110.5 67.6-72.2 67.6-110.5-6.6-110.5-67.6-110.5zM513.8 881.4V723.6m3.1-107.8c-29.3 0-53.1 23.8-53.1 53.1s23.8 53.1 53.1 53.1 53.1-23.8 53.1-53.1-23.7-53.1-53.1-53.1zM1389.3 988c44.1-14.5 76-56 76-105 0-48.6-31.4-89.9-75.1-104.7m75.2 103.1V723.6m-56.3-54.7c0 29.3 23.8 53.1 53.1 53.1s53.1-23.8 53.1-53.1-23.8-53.1-53.1-53.1-53.1 23.8-53.1 53.1z" stroke-linecap="round" stroke-linejoin="round"/></g><g fill="#14165a"><circle cx="1309.8" cy="1258.1" r="26.9"/><circle cx="1309.8" cy="593.5" r="26.9"/><circle cx="839.3" cy="593.5" r="26.9"/><circle cx="839.3" cy="1263" r="26.9"/></g><path d="M1004 1427.3s-64.9 46.1-127.3-22.5" fill="none" stroke="#14165a" stroke-width="47.119" stroke-linecap="round" stroke-linejoin="round" stroke-miterlimit="10"/></svg>