<?xml version="1.0" encoding="utf-8"?>
<!-- Generator: Adobe Illustrator 27.0.1, SVG Export Plug-In . SVG Version: 6.00 Build 0)  -->
<svg version="1.1" id="Layer_1" xmlns="http://www.w3.org/2000/svg" xmlns:xlink="http://www.w3.org/1999/xlink" x="0px" y="0px"
	 viewBox="0 0 2000 2000" style="enable-background:new 0 0 2000 2000;" xml:space="preserve">
<style type="text/css">
	.st0{fill:none;stroke:#14165A;stroke-width:47.119;stroke-linecap:round;stroke-miterlimit:10;}
	.st1{fill:none;stroke:#14165A;stroke-width:47.119;stroke-miterlimit:10;}
	.st2{fill:none;stroke:#14165A;stroke-width:47.119;stroke-linecap:round;stroke-linejoin:round;stroke-miterlimit:10;}
</style>
<path class="st0" d="M790,1039c-17.4,24.5-44,40.1-73.9,40.1c-52.5,0-95.1-48.5-95.1-108.3s42.6-108.3,95.1-108.3
	c26.3,0,50,12.1,67.2,31.7"/>
<path class="st1" d="M741.6,1077.1c28.8,98.8,85.7,178.1,158.4,223.1l-23.3,104.6c-43.1,9.8-75.8,37.3-82.1,74.2
	c-9.2,54,41.7,107.8,113.7,120.1c72,12.3,137.8-21.6,147.1-75.6c6.2-36.4-14.9-72.7-51.3-96.2l17.4-86.9c6.5,0.5,13,0.7,19.6,0.7
	c177.3,0,321.1-184.7,321.1-412.5"/>
<path class="st2" d="M715.9,853.9c0,0,3.1-167.2-146.9-184.4c3.1-3.1,43.8-64.1,131.2-35.9c-1.6-3.1,4.7-109.4-96.9-132.8
	c4.7-1.6,145.3-3.1,189.1,45.3c0-4.7,18.8-93.8-7.8-168.8c3.1,1.6,81.2,65.6,110.9,120.3c3.1,1.6,20.3-95.3,67.2-150
	c3.1,1.6,10.9,106.2,37.5,157.8c0,0,23.4-107.8,156.2-129.7c1.6-1.6-59.4,82.8-37.5,159.4c3.1,6.2,81.2-75,209.4-73.4
	c-4.7,0-95.3,70.3-93.8,146.9c1.6,6.2,53.1-42.2,170.3-48.4c-1.6,0-99.4,88.4-72.3,195.8c19,52.7,29.5,111.4,29.5,173.3
	c0,228.4-144.1,413.6-321.9,413.6"/>
</svg>
