<?xml version="1.0" encoding="utf-8"?>
<!-- Generator: Adobe Illustrator 27.0.1, SVG Export Plug-In . SVG Version: 6.00 Build 0)  -->
<svg version="1.1" id="Layer_1" xmlns="http://www.w3.org/2000/svg" xmlns:xlink="http://www.w3.org/1999/xlink" x="0px" y="0px"
	 viewBox="0 0 2000 2000" style="enable-background:new 0 0 2000 2000;" xml:space="preserve">
<style type="text/css">
	.st0{fill:none;stroke:#14165A;stroke-width:47.1192;stroke-linecap:round;stroke-miterlimit:10;}
	.st1{fill:none;stroke:#14165A;stroke-width:47.1192;stroke-linejoin:round;stroke-miterlimit:10;}
</style>
<path class="st0" d="M790,1039c-17.4,24.5-44,40.1-73.9,40.1c-52.5,0-95.1-48.5-95.1-108.3s42.6-108.3,95.1-108.3
	c26.3,0,50,12.1,67.2,31.7"/>
<path class="st1" d="M1253.9,619.7c0,0-15.4-78.7,85.2-91.3c-3.6-1.8-75.5-62.9-165.3-10.8c0-3.6,26.9-132.9-64.7-143.7
	c1.8-3.6,34.1,82.6-28.7,115c3.6-3.6-104.2-59.3-71.9-124c-1.8-1.8-73.7,53.9-53.9,109.6c-3.6-5.4-41.3-93.4-118.6-89.8
	c5.4-1.8,52.1,61.1,19.8,122.2c1.8-1.8-109.6,0-98.8-93.4c1.8-3.6-64.7,84.4-18,145.5c-3.6-3.6-97-43.1-159.9,0
	c3.6-1.8,71.9,19.8,70.1,75.5C649,634,581,620,554.1,693.7c3.6,0,66.5,14.4,84.4,48.5c1.8-1.8-70.1,9-88,80.8
	c3.6-1.8,100.6-21.6,129.3,39.5"/>
<path class="st1" d="M741.6,1077.1"/>
<path class="st0" d="M741.6,1077.1c28.8,98.8,85.7,178.1,158.4,223.1l-23.3,104.6c-43.1,9.8-75.8,37.3-82.1,74.2
	c-9.2,54,41.7,107.8,113.7,120.1c72,12.3,137.8-21.6,147.1-75.6c6.2-36.4-14.9-72.7-51.3-96.2l17.4-86.9c6.5,0.5,13,0.7,19.6,0.7
	c177.3,0,321.1-184.7,321.1-412.5c0-122.9-41.9-233.3-108.3-308.9"/>
</svg>
