<svg xmlns="http://www.w3.org/2000/svg" viewBox="0 0 2000 2000" fill="none" stroke="#14165a" stroke-width="47.119" xmlns:v="https://vecta.io/nano"><g stroke-linecap="round" stroke-miterlimit="10"><path d="M783.3 894.2c-17.2-19.6-40.9-31.7-67.2-31.7-52.5 0-95.1 48.5-95.1 108.3s42.6 108.3 95.1 108.3c29.9 0 56.5-15.6 73.9-40.1m463.8-419.3c66.4 75.6 108.3 186 108.3 308.9 0 227.8-143.8 412.5-321.1 412.5-6.6 0-13.1-.2-19.6-.7l-17.4 86.9c36.4 23.5 57.5 59.8 51.3 96.2-9.3 54-75.1 87.9-147.1 75.6S785.4 1533 794.6 1479c6.3-36.9 39-64.4 82.1-74.2l23.3-104.6c-72.7-45-129.6-124.3-158.4-223.1"/><path d="M889.3 563.6c-12.6-54.2 21.1-108.4 75.3-121.1 54.2-12.6 108.4 21.1 121.1 75.3M721.6 672.5c-32-45.6-20.9-108.5 24.6-140.4 45.6-32 108.5-20.9 140.4 24.6m-23 153.7c-18-27.7-21.9-63.7-7.4-96.1 22.8-50.7 82.3-73.2 133-50.4 31.4 14.1 52 42.3 57.7 73.8M744.3 867c-36.5-14.2-62.8-49.3-64-90.9-1.6-55.5 42.2-101.8 97.7-103.4 33.8-1 64.1 14.8 83.1 39.8m187.7-74.6c-2.3-19.7 1.1-40.2 11.1-59 26.1-49 87-67.7 136-41.6 30.7 16.3 49.4 46.2 52.8 78.3m-365.4-139s.7-83.4 48.4-129.4" stroke-linejoin="round"/></g><path d="M853.4 500.4s32.1-143.8-139-117.6c4.7-2.3-.9 120.4 139 117.6z" stroke-linejoin="round" stroke-miterlimit="10"/></svg>