<?xml version="1.0" encoding="utf-8"?>
<!-- Generator: Adobe Illustrator 27.0.1, SVG Export Plug-In . SVG Version: 6.00 Build 0)  -->
<svg version="1.1" id="Layer_1" xmlns="http://www.w3.org/2000/svg" xmlns:xlink="http://www.w3.org/1999/xlink" x="0px" y="0px"
	 viewBox="0 0 2000 2000" style="enable-background:new 0 0 2000 2000;" xml:space="preserve">
<style type="text/css">
	.st0{fill:none;stroke:#14165A;stroke-width:47.119;stroke-linecap:round;stroke-miterlimit:10;}
	.st1{fill:none;stroke:#14165A;stroke-width:47.119;stroke-linecap:round;stroke-linejoin:round;stroke-miterlimit:10;}
</style>
<path class="st0" d="M790,1039c-17.4,24.5-44,40.1-73.9,40.1c-52.5,0-95.1-48.5-95.1-108.3s42.6-108.3,95.1-108.3
	c26.3,0,50,12.1,67.2,31.7"/>
<path class="st0" d="M741.6,1077.1c28.8,98.8,85.7,178.1,158.4,223.1l-23.3,104.6c-43.1,9.8-75.8,37.3-82.1,74.2
	c-9.2,54,41.7,107.8,113.7,120.1c72,12.3,137.8-21.6,147.1-75.6c6.2-36.4-14.9-72.7-51.3-96.2l17.4-86.9c6.5,0.5,13,0.7,19.6,0.7
	c177.3,0,321.1-184.7,321.1-412.5c0-107.5-32.1-205.5-84.6-279"/>
<path class="st1" d="M602.9,831.9c23.2-32.4,59.6-64.1,106.1-92.7c64.6-39.6,148.4-73.1,242.9-94c176.6-38.9,338.8-21.7,415.4,36.1
	c7.6,5.7,14.4,11.9,20.2,18.4"/>
<path class="st1" d="M713.3,850c0,0-3.1-50,7.8-115.6"/>
<path class="st1" d="M738.7,1100.1c-150.4-8.7-231.9-52.7-253.9-132.3c-40-145.1,156.1-321.2,445.6-397.4s555.1-19.8,593.5,125.7
	c23.6,89.8-37.8,190.9-160.2,274.1"/>
<path class="st1" d="M1177.3,520.3c0,0-140.6-143.8-292.2-90.6S730.5,635.9,730.5,635.9"/>
</svg>
