<svg xmlns="http://www.w3.org/2000/svg" viewBox="0 0 2000 2000" fill="none" stroke="#14165a" stroke-width="47.119" stroke-linecap="round" xmlns:v="https://vecta.io/nano"><g stroke-linejoin="round" stroke-miterlimit="10"><path d="M783.3 894.2c-17.2-19.6-40.9-31.7-67.2-31.7-52.5 0-95.1 48.5-95.1 108.3s42.6 108.3 95.1 108.3c29.9 0 56.5-15.6 73.9-40.1m-95-185.4s-49.9-216.4 108.9-307c0 0 221.5-153.6 449.9 73.1m-411-102.8c-38.7-38.7-124.6-25.2-126.2-23.6 42.1-55.5 114.5-58.9 114.5-58.9l15.1-87.5s57.2 60.6 55.5 65.6c55.5-52.2 144.8-8.4 148.1-5-79.5 9.2-90.9 85.8-90.9 85.8m208.7 92.3c-28.1 28.3-28 26.4-55.6 59.4m-45-122c-43.1 50.3-68.8 81.8-109 143m-45.5-125.7C863.4 609.7 851.3 632.6 809 717m-84.3-27.5c41.2 12 36.6 9.3 80.3 25.5"/><path d="M771 591c67.3 24.4 111.5 38.9 183 74m-44.7-124.7c84.2 38.1 116.3 51.8 203.7 105.7"/></g><path d="M1253.8 619.7c66.4 75.6 108.3 186 108.3 308.9 0 227.8-143.8 412.5-321.1 412.5-6.6 0-13.1-.2-19.6-.7l-17.4 86.9c36.4 23.5 57.5 59.8 51.3 96.2-9.3 54-75.1 87.9-147.1 75.6S785.4 1533 794.6 1479c6.3-36.9 39-64.4 82.1-74.2l23.3-104.6c-72.7-45-129.6-124.3-158.4-223.1" stroke-miterlimit="10"/></svg>