<?xml version="1.0" encoding="utf-8"?>
<!-- Generator: Adobe Illustrator 27.0.1, SVG Export Plug-In . SVG Version: 6.00 Build 0)  -->
<svg version="1.1" id="Layer_1" xmlns="http://www.w3.org/2000/svg" xmlns:xlink="http://www.w3.org/1999/xlink" x="0px" y="0px"
	 viewBox="0 0 2000 2000" style="enable-background:new 0 0 2000 2000;" xml:space="preserve">
<style type="text/css">
	.st0{fill:none;stroke:#14165A;stroke-width:47.1192;stroke-linecap:round;stroke-linejoin:round;stroke-miterlimit:10;}
	.st1{fill:none;stroke:#14165A;stroke-width:47.1192;stroke-linecap:round;stroke-miterlimit:10;}
</style>
<path class="st0" d="M1210.9,574.8"/>
<path class="st0" d="M744.8,691.6"/>
<g>
	<path class="st1" d="M783.3,894.2c-17.2-19.6-40.9-31.7-67.2-31.7c-52.5,0-95.1,48.5-95.1,108.3s42.6,108.3,95.1,108.3
		c29.9,0,56.5-15.6,73.9-40.1"/>
	<path class="st1" d="M1253.8,619.7c66.4,75.6,108.3,186,108.3,308.9c0,227.8-143.8,412.5-321.1,412.5c-6.6,0-13.1-0.2-19.6-0.7
		l-17.4,86.9c36.4,23.5,57.5,59.8,51.3,96.2c-9.3,54-75.1,87.9-147.1,75.6S785.4,1533,794.6,1479c6.3-36.9,39-64.4,82.1-74.2
		l23.3-104.6c-72.7-45-129.6-124.3-158.4-223.1"/>
	<path class="st1" d="M695,853.6c0,0-11.1-48.3-6.1-108.8"/>
</g>
<polyline class="st0" points="1241.5,612 613.8,526.6 695.2,732.1 "/>
<path class="st0" d="M889,599.2"/>
<line class="st0" x1="1061.9" y1="453" x2="885.1" y2="341.8"/>
<polyline class="st0" points="925,546.8 885.1,341.8 776.8,530.9 "/>
<path class="st0" d="M695.2,732.1l548.9-119.8c-8.2,1.8,8.8-256.1,8.8-256.1L695.2,732.1"/>
</svg>
