<svg xmlns="http://www.w3.org/2000/svg" viewBox="0 0 2000 2000" fill="none" stroke="#14165a" stroke-width="47.119" stroke-miterlimit="10" xmlns:v="https://vecta.io/nano"><path d="M1332.6,755.9c19,52.7,29.5,111.4,29.5,173.3c0,228.4-144.1,413.6-321.9,413.6"/><path d="M790 1039c-17.4 24.5-44 40.1-73.9 40.1-52.5 0-95.1-48.5-95.1-108.3s42.6-108.3 95.1-108.3c26.3 0 50 12.1 67.2 31.7" stroke-linecap="round"/><path d="M741.6 1077.1c28.8 98.8 85.7 178.1 158.4 223.1l-23.3 104.6c-43.1 9.8-75.8 37.3-82.1 74.2-9.2 54 41.7 107.8 113.7 120.1s137.8-21.6 147.1-75.6c6.2-36.4-14.9-72.7-51.3-96.2l17.4-86.9c6.5.5 13 .7 19.6.7 177.3 0 321.1-184.7 321.1-412.5m104-150.5c99.4-2.9-56.6-62.5-126.7-134.4-70-71.9-90.9-260.9-335.3-270.3-251.8-9.6-274.2 246.9-333.8 320.4-59.6 73.4-238.4 156.2-152 173.4 152.8 30.4 344.3-207.7 569.4-206.1 226.5 1.5 114.6 124.8 378.4 117z"/><g stroke-linecap="round"><path d="M703.6 587.8s-53.9-86.4-213.8-53.2c0 0 4.2 133.6 158.7 155.6M513.9 549.7l163.7 90.9" stroke-linejoin="round"/><path d="M1157.9 494.9l-134 95.2"/><path d="M1023.9 492.4l150.2 102.7"/></g></svg>