<svg xmlns="http://www.w3.org/2000/svg" viewBox="0 0 2000 2000" xmlns:v="https://vecta.io/nano"><style><![CDATA[.E{stroke-linejoin:round}.F{stroke-linecap:round}]]></style><g fill="none" stroke="#14165a" stroke-width="47.119"><g stroke-miterlimit="10"><path d="M790 1039c-17.4 24.5-44 40.1-73.9 40.1-52.5 0-95.1-48.5-95.1-108.3s42.6-108.3 95.1-108.3c26.3 0 50 12.1 67.2 31.7" class="F"/><path d="M741.6 1077.1c28.8 98.8 85.7 178.1 158.4 223.1l-23.3 104.6c-43.1 9.8-75.8 37.3-82.1 74.2-9.2 54 41.7 107.8 113.7 120.1s137.8-21.6 147.1-75.6c6.2-36.4-14.9-72.7-51.3-96.2l17.4-86.9c6.5.5 13 .7 19.6.7 177.3 0 321.1-184.7 321.1-412.5 0-122.9-41.9-233.3-108.3-308.9"/><path d="M1256.8 622.4s-76.6-71.5-37-127.6c55.2-78.4 150.6 21.7 150.6 21.7s-155.7-250.1-359.8-56.1c2.6 0-151.8-95.7-255.2-47.2s-77.6 162.7 62.8 262.3c1.3-3.8 3.6-172.9 75-184.4M701.7 579S475.8 555.2 536 786.6c1.3-1.3 29.4-132 130.2-89.3 70 29.7 49.8 165.2 49.8 165.2" class="E F"/></g><circle cx="1411.1" cy="568.9" r="59.9" class="E"/><circle cx="841.7" cy="733.9" r="59.9" class="E"/><circle cx="519.4" cy="845.3" r="59.9" class="E"/></g></svg>