<svg xmlns="http://www.w3.org/2000/svg" viewBox="0 0 2000 2000" fill="none" stroke="#14165a" stroke-width="47.119" stroke-linecap="round" stroke-miterlimit="10" xmlns:v="https://vecta.io/nano"><path d="M790.8 968.4c0 86.7-64.1 157.1-143.2 157.1s-143.2-70.3-143.2-157.1 64.1-157.1 143.2-157.1 143.2 70.4 143.2 157.1zm533 156.4c78.7 0 142.5-69.9 142.5-156.2 0-76.6-50.2-140.2-116.5-153.6m-309.6 527.8c177.8 0 321.9-185.2 321.9-413.6S1218 515.6 1040.2 515.6c-150.4 0-276.7 132.5-312.1 311.6m525.8-207.5c66.4 75.6 108.3 186 108.3 308.9 0 227.8-143.8 412.5-321.1 412.5-6.6 0-13.1-.2-19.6-.7l-17.4 86.9c36.4 23.5 57.5 59.8 51.3 96.2-9.3 54-75.1 87.9-147.1 75.6S785.4 1533 794.6 1479c6.3-36.9 39-64.4 82.1-74.2l23.3-104.6c-72.7-45-126.1-117.1-154.9-215.9M1354 818.8c-34.8-207.6-181-365.4-361.4-365.4-83 0-159.7 33-221.6 88.9-69.8 62.7-120.9 154.4-141.7 260.4m-36.8 69.1c-48.7 0-88.1 43.3-88.1 96.6s39.5 96.6 88.1 96.6c48.7 0 88.1-43.3 88.1-96.6s-39.5-96.6-88.1-96.6z"/><path d="M1244.5 562.5c-7.8-123.4 96.2-100.1 97.8-94.7-44.6-122.2-191-80.8-198.9-77.2 35-18 35.4-98.8 35.4-98.8s-34.1 57.5-113.2 30.5c-107.5-36.6-138.5 53.9-140.1 55.7 31.8-66.5-52.1-106-52.1-106s9.9 100.6-80.8 116.8C643 410.4 686.7 509.4 686.7 509.4S600.9 517 608 587c7.6 74.1 37 156 37 156" stroke-linejoin="round"/></svg>