<svg xmlns="http://www.w3.org/2000/svg" viewBox="0 0 2000 2000" xmlns:v="https://vecta.io/nano"><style><![CDATA[.D{stroke-linejoin:round}.E{stroke-linecap:round}.F{stroke-miterlimit:10}]]></style><g fill="none" stroke="#14155a" class="E F"><g stroke-width="47.119"><path d="M783.3 894.2c-17.2-19.6-40.9-31.7-67.2-31.7-52.5 0-95.1 48.5-95.1 108.3s42.6 108.3 95.1 108.3c29.9 0 56.5-15.6 73.9-40.1" class="D"/><path d="M929.5 582.5c108.6-260.1 359.8-206.2 475.2-118.5 65.7 50 20.1 110.7-40.3 62.9-103-81.5-302-10.1-146 78S1362 928.5 1362 928.5c0 227.8-143.8 412.5-321.1 412.5-6.6 0-13.1-.2-19.6-.7l-17.4 86.9c36.4 23.5 57.5 59.8 51.3 96.2-9.3 54-75.1 87.9-147.1 75.6s-122.7-66-113.5-120c6.3-36.9 39-64.4 82.1-74.2l23.3-104.6c-72.7-45-129.6-124.3-158.4-223.1m-34.2-215.6c2.3-27.5 9.1-55.2 22.2-82.3 77.9-161.4-116.2-96.3-164.4 19.2-33.8 80.9-94.5 49.8-69-28.7 42.4-130.6 209.6-300.2 428-189.8"/><path d="M733.7,542c2.5-95.8,58.8-185.6,98.9-201.7c42.3-17,154.6,12.5,222.2,88.6" class="D"/></g><g stroke-width="36" class="D"><path d="M986.9 373.4s-85.6 50.3-115.8 176.2m40.3-198.8s-80.5 42.8-108.2 183.7"/><path d="M755.2 468s97.5-18.5 203.2 56.3m-165.3-124s92.8-19.9 206.5 67.9"/></g></g></svg>