<?xml version="1.0" encoding="utf-8"?>
<!-- Generator: Adobe Illustrator 27.0.1, SVG Export Plug-In . SVG Version: 6.00 Build 0)  -->
<svg version="1.1" id="Layer_1" xmlns="http://www.w3.org/2000/svg" xmlns:xlink="http://www.w3.org/1999/xlink" x="0px" y="0px"
	 viewBox="0 0 2000 2000" style="enable-background:new 0 0 2000 2000;" xml:space="preserve">
<style type="text/css">
	.st0{fill:none;stroke:#14165A;stroke-width:47.1192;stroke-linecap:round;stroke-miterlimit:10;}
	.st1{fill:#14165A;}
</style>
<path class="st0" d="M1245.8,591.2c21.4-6.6,38.6-24,38.6-63c0-66.4-9.7-89,21-90.7c30.8-1.6,57.1,90.2,56.7,127.9
	s-8.3,75.9-59.2,110.8 M783.3,894.2c-17.2-19.6-40.9-31.7-67.2-31.7c-52.5,0-95.1,48.5-95.1,108.3s42.6,108.3,95.1,108.3
	c29.9,0,56.5-15.6,73.9-40.1 M1253.9,619.7c66.4,75.6,108.3,186,108.3,308.9c0,227.8-143.8,412.5-321.1,412.5
	c-6.6,0-13.1-0.2-19.6-0.7l-17.4,86.9c36.4,23.5,57.5,59.8,51.3,96.2c-9.3,54-75.1,87.9-147.1,75.6S785.4,1533,794.6,1479
	c6.3-36.9,39-64.4,82.1-74.2l23.3-104.6c-72.7-45-129.6-124.3-158.4-223.1 M594.5,615.6c56.6-150.1,327.6-352.9,551.7-172.3
	c0,0,67.8,62.4,101.6,170.3C799.3,498,658,870,658,870s-66.6-50.4-82.2-137.2 M705.5,628.1c191.8-234.1,485.2-128.4,485.2-128.4
	 M704.2,627c0,0-121.4,48.6-121.4-55c0-66.4,9.7-89-21-90.7c-30.8-1.6-58.7,76.1-56.7,127.9c2,51.8,19.4,155.4,205.6,139.2
	C710.6,751.6,785.1,682,704.2,627z"/>
<circle class="st1" cx="842" cy="588" r="24.1"/>
<circle class="st1" cx="981.2" cy="539.9" r="24.1"/>
<circle class="st1" cx="1104" cy="535.4" r="20.6"/>
</svg>
