<?xml version="1.0" encoding="utf-8"?>
<!-- Generator: Adobe Illustrator 27.0.1, SVG Export Plug-In . SVG Version: 6.00 Build 0)  -->
<svg version="1.1" id="Layer_1" xmlns="http://www.w3.org/2000/svg" xmlns:xlink="http://www.w3.org/1999/xlink" x="0px" y="0px"
	 viewBox="0 0 2000 2000" style="enable-background:new 0 0 2000 2000;" xml:space="preserve">
<style type="text/css">
	.st0{fill:none;stroke:#14165A;stroke-width:47.119;stroke-miterlimit:10;}
	.st1{fill:none;stroke:#14165A;stroke-width:47.119;stroke-linecap:round;stroke-linejoin:round;stroke-miterlimit:10;}
</style>
<path class="st0" d="M798.1,1199.7c28.1,41.9,62.7,76.2,101.9,100.5l-23.3,104.6c-43.1,9.8-75.8,37.3-82.1,74.2
	c-9.2,54,41.7,107.8,113.7,120.1c72,12.3,137.8-21.6,147.1-75.6c6.2-36.4-14.9-72.7-51.3-96.2l17.4-86.9c6.5,0.5,13,0.7,19.6,0.7
	c177.3,0,321.1-184.7,321.1-412.5c0-86.6-20.8-167.1-56.4-233.5"/>
<path class="st1" d="M849.2,407.8C714.9,443,621.1,530.8,587.1,621c-37.9,118.1,0.2,236.7,9.3,285.2s109.4,339.7,207.5,290.7
	c6.2-3.1,46.9-10.9-40.6-342.2c0,0-46.9-114.1,131.2-115.6"/>
<path class="st1" d="M1271.1,693.8c1.5-2.5,36,7.2,53.1,1.6c21-6.9,31.6-34.9,20.3-76.6c-8-8,37.5-57.8-20.3-90.6
	c0-10.9,40-67.5-34.4-90.6c-1.3-6.4,10-78.4-101.6-65.6c1.3-2.6-21.9-76.6-115.2-26.9c1.3-2.6-80.9-54.2-112.9,11.2
	c-2.6-2.6-105.6-5-95.3,57.8c-0.2-1.7-68,17-35.9,73.4c0-2.6-52.2,37.1-15.6,82.8c6.2,7.8-45.7,27.2,17.2,87.5
	c0-5.1-32.7,86.7,60.9,68.8c2.6,0,50.9,48.1,100.9-0.7c1.3-1.3,52.6,30.8,93.6-9c-1.3-2.6,48.7,43.6,92.3-11.5
	C1173.1,704.1,1243,742.2,1271.1,693.8z"/>
</svg>
