<?xml version="1.0" encoding="utf-8"?>
<!-- Generator: Adobe Illustrator 27.0.1, SVG Export Plug-In . SVG Version: 6.00 Build 0)  -->
<svg version="1.1" id="Layer_1" xmlns="http://www.w3.org/2000/svg" xmlns:xlink="http://www.w3.org/1999/xlink" x="0px" y="0px"
	 viewBox="0 0 2000 2000" style="enable-background:new 0 0 2000 2000;" xml:space="preserve">
<style type="text/css">
	.st0{fill:none;stroke:#14165A;stroke-width:47.1192;stroke-linecap:round;stroke-miterlimit:10;}
	.st1{fill:none;stroke:#14165A;stroke-width:47.1192;stroke-linecap:round;stroke-linejoin:round;stroke-miterlimit:10;}
</style>
<g>
	<path class="st0" d="M783.3,894.2c-17.2-19.6-40.9-31.7-67.2-31.7c-52.5,0-95.1,48.5-95.1,108.3s42.6,108.3,95.1,108.3
		c29.9,0,56.5-15.6,73.9-40.1"/>
	<path class="st0" d="M1242.2,594.8c66.4,75.6,119.9,210.9,119.9,333.8c0,227.8-143.8,412.5-321.1,412.5c-6.6,0-13.1-0.2-19.6-0.7
		l-17.4,86.9c36.4,23.5,57.5,59.8,51.3,96.2c-9.3,54-75.1,87.9-147.1,75.6S785.4,1533,794.6,1479c6.3-36.9,39-64.4,82.1-74.2
		l23.3-104.6c-72.7-45-129.6-124.3-158.4-223.1"/>
	<path class="st0" d="M695,853.6c0,0-23.1-100.3,12.2-192.9"/>
</g>
<path class="st1" d="M804,354.4l80.2,89.5l28-113.7C912.1,330.2,858,283.6,804,354.4z"/>
<path class="st1" d="M1302.3,597.8l-143.8-18.7l-7.4,95l-125.6-75.6l-62.9,109.1l-98-89.8c0,0-57.3,114-65.6,115.9
	s-56.1-93.4-56.1-93.4s-105.5,43.1-101.3,41.3c0,0,16.6-167.4,221.7-225.1S1246.3,506.6,1302.3,597.8z"/>
</svg>
