<svg xmlns="http://www.w3.org/2000/svg" viewBox="0 0 2000 2000" xmlns:v="https://vecta.io/nano"><path d="M790 1039c-17.4 24.5-44 40.1-73.9 40.1-52.5 0-95.1-48.5-95.1-108.3s42.6-108.3 95.1-108.3c26.3 0 50 12.1 67.2 31.7" fill="none" stroke="#14165a" stroke-width="47.119" stroke-linecap="round" stroke-miterlimit="10"/><path d="M1192.9 619.8c-9-111-113.2-120.1-113.2-120.1S791.6 435 564.9 752.6c2.9-7.5-52.5 117.9 10 146.7l25.2-3.3c253.2-412.5 592.8-276.2 592.8-276.2" fill="#b2dff7"/><g fill="none" stroke="#14165a" stroke-width="47.119" stroke-linecap="round" stroke-miterlimit="10"><path d="M790 1039c-17.4 24.5-44 40.1-73.9 40.1-52.5 0-95.1-48.5-95.1-108.3s42.6-108.3 95.1-108.3c26.3 0 50 12.1 67.2 31.7m470.6-274.5S906.2 483.4 647.1 895.9m606.6-276.1c-9.2-111-115.9-120.1-115.9-120.1s-294.9-64.7-527 252.9c3-7.5-53.8 117.9 10.2 146.7M1160 501s4.9-103.4 81.1-114.8c-2.4-2.3-118-72.9-214.9 11.5-1.7.3-19.6-74.1 14.9-131-1.2-4.6-162.9 70.2-165.3 145.2 0-6.8-39.6-48.6-31.2-105.5 1.3 0-103.5 77.4-94 161.5 2.4 6.8-85.7-34.7-88.1-84.4 4.8-6.6-61.4 73.1-41.4 142.5-1.5-5.7-65-18-124.6 28.4 2.4-3.6 62.4 27.3 94 68.3-4.2-2.3-70.9 25-92.3 100.1 2.4 0 91.9-34 112.6 29.6" stroke-linejoin="round"/><path d="M741.6 1077.1c28.8 98.8 85.7 178.1 158.4 223.1l-23.3 104.6c-43.1 9.8-75.8 37.3-82.1 74.2-9.2 54 41.7 107.8 113.7 120.1s137.8-21.6 147.1-75.6c6.2-36.4-14.9-72.7-51.3-96.2l17.4-86.9c6.5.5 13 .7 19.6.7 177.3 0 321.1-184.7 321.1-412.5 0-122.9-41.9-233.3-108.3-308.9"/></g></svg>