<svg xmlns="http://www.w3.org/2000/svg" viewBox="0 0 2000 2000" fill="none" stroke="#14165a" stroke-width="47.119" stroke-miterlimit="10" xmlns:v="https://vecta.io/nano"><path d="M1161.4 595.1s-36.2-112.5-128.6-110.5-84.4 120.6-84.4 120.6 83.7-35 213-10.1z" stroke-linejoin="round"/><path d="M790 1039c-17.4 24.5-44 40.1-73.9 40.1-52.5 0-95.1-48.5-95.1-108.3s42.6-108.3 95.1-108.3c26.3 0 50 12.1 67.2 31.7" stroke-linecap="round"/><path d="M741.6 1077.1c28.8 98.8 85.7 178.1 158.4 223.1l-23.3 104.6c-43.1 9.8-75.8 37.3-82.1 74.2-9.2 54 41.7 107.8 113.7 120.1s137.8-21.6 147.1-75.6c6.2-36.4-14.9-72.7-51.3-96.2l17.4-86.9c6.5.5 13 .7 19.6.7 177.3 0 321.1-184.7 321.1-412.5 0-122.9-43.1-235.5-109.5-311.1"/><path d="M1253 618c-12.6-98.4-106.8-174.7-106.8-174.7C922.1 262.7 643.7 470.9 587.1 621s71.8 252.4 71.8 252.4m29.2 204.9s12.1-.5-53.1 55.3c-84.4 72.3-146.9 3-86.6-121.6 28.7-59.2 59.6-98.3 91.2-126.8" stroke-linejoin="round" stroke-linecap="round"/></svg>