<?xml version="1.0" encoding="utf-8"?>
<!-- Generator: Adobe Illustrator 27.0.1, SVG Export Plug-In . SVG Version: 6.00 Build 0)  -->
<svg version="1.1" id="Layer_1" xmlns="http://www.w3.org/2000/svg" xmlns:xlink="http://www.w3.org/1999/xlink" x="0px" y="0px"
	 viewBox="0 0 2000 2000" style="enable-background:new 0 0 2000 2000;" xml:space="preserve">
<style type="text/css">
	.st0{fill:none;stroke:#14165A;stroke-width:47.1192;stroke-linecap:round;stroke-miterlimit:10;}
	.st1{fill:none;stroke:#14165A;stroke-width:47.1192;stroke-linejoin:round;stroke-miterlimit:10;}
</style>
<path class="st0" d="M790,1039c-17.4,24.5-44,40.1-73.9,40.1c-52.5,0-95.1-48.5-95.1-108.3s42.6-108.3,95.1-108.3
	c26.3,0,50,12.1,67.2,31.7"/>
<path class="st1" d="M1253.9,619.7c0,0-125-113.4-21.9-216.6c0-1.6-110.9,15.6-134.4,65.6c3.1-1.6-12.5-78.1,40.6-109.4
	c1.6,0-143.8,25-164.1,84.4c0,0,17.2-51.6,42.2-100c0-4.7-284.4,40.6-292.2,231.2C722.5,571.8,621,564,610,645.2
	s56.2,131.2,85.9,212.5"/>
<path class="st0" d="M741.6,1077.1c28.8,98.8,85.7,178.1,158.4,223.1l-23.3,104.6c-43.1,9.8-75.8,37.3-82.1,74.2
	c-9.2,54,41.7,107.8,113.7,120.1c72,12.3,137.8-21.6,147.1-75.6c6.2-36.4-14.9-72.7-51.3-96.2l17.4-86.9c6.5,0.5,13,0.7,19.6,0.7
	c177.3,0,321.1-184.7,321.1-412.5c0-122.9-41.9-233.3-108.3-308.9"/>
</svg>
