<?xml version="1.0" encoding="utf-8"?>
<!-- Generator: Adobe Illustrator 27.0.1, SVG Export Plug-In . SVG Version: 6.00 Build 0)  -->
<svg version="1.1" id="Layer_1" xmlns="http://www.w3.org/2000/svg" xmlns:xlink="http://www.w3.org/1999/xlink" x="0px" y="0px"
	 viewBox="0 0 2000 2000" style="enable-background:new 0 0 2000 2000;" xml:space="preserve">
<style type="text/css">
	.st0{fill:none;stroke:#14165A;stroke-width:47.119;stroke-linecap:round;stroke-miterlimit:10;}
	.st1{fill:none;stroke:#14165A;stroke-width:47.119;stroke-linecap:round;stroke-linejoin:round;stroke-miterlimit:10;}
</style>
<path class="st0" d="M790,1039c-17.4,24.5-44,40.1-73.9,40.1c-52.5,0-95.1-48.5-95.1-108.3s42.6-108.3,95.1-108.3
	c26.3,0,50,12.1,67.2,31.7"/>
<path class="st0" d="M741.6,1077.1c28.8,98.8,85.7,178.1,158.4,223.1l-23.3,104.6c-43.1,9.8-75.8,37.3-82.1,74.2
	c-9.2,54,41.7,107.8,113.7,120.1c72,12.3,137.8-21.6,147.1-75.6c6.2-36.4-14.9-72.7-51.3-96.2l17.4-86.9c6.5,0.5,13,0.7,19.6,0.7
	c177.3,0,321.1-184.7,321.1-412.5c0-107.5-35.7-216.1-88.2-289.6"/>
<path class="st1" d="M651.3,799.8c21.2-29.6,54.4-58.5,96.8-84.6c58.9-36.1,135.4-66.7,221.6-85.8c161.1-35.5,309.1-19.8,379,32.9
	c6.9,5.2,13.1,10.9,18.4,16.8"/>
<path class="st1" d="M720.5,621.9l-43.1-189.1c13.8-19.3,35.5-38.2,63.2-55.3c38.5-23.6,88.5-43.6,144.8-56
	c105.3-23.2,202-12.9,247.6,21.5c4.5,3.4,8.6,7.1,12,11l39.4,161.8"/>
<path class="st1" d="M713.3,850c0,0-3.1-50,7.8-115.6"/>
<path class="st1" d="M621.9,985c-40.5-19.3-65.2-47.2-75.4-83.6c-35.1-126,137.1-279,391.3-345.2s487.4-17.2,521.1,109.2
	c17.1,64.5-16.8,135.8-90,199.4"/>
</svg>
