<?xml version="1.0" encoding="utf-8"?>
<!-- Generator: Adobe Illustrator 27.0.1, SVG Export Plug-In . SVG Version: 6.00 Build 0)  -->
<svg version="1.1" id="Layer_1" xmlns="http://www.w3.org/2000/svg" xmlns:xlink="http://www.w3.org/1999/xlink" x="0px" y="0px"
	 viewBox="0 0 2000 2000" style="enable-background:new 0 0 2000 2000;" xml:space="preserve">
<style type="text/css">
	.st0{fill:none;stroke:#14165A;stroke-width:47.11;stroke-linecap:round;stroke-linejoin:round;}
	.st1{fill:none;stroke:#14165A;stroke-width:47.11;stroke-linecap:round;}
</style>
<g>
	<path class="st0" d="M783.3,894.2c-17.2-19.6-40.9-31.7-67.2-31.7c-52.5,0-95.1,48.5-95.1,108.3s42.6,108.3,95.1,108.3
		c29.9,0,56.5-15.6,73.9-40.1"/>
	<path class="st1" d="M1269.2,638.4c57.4,74.6,92.9,177.1,92.9,290.2c0,227.8-143.8,412.5-321.1,412.5c-6.6,0-13.1-0.2-19.6-0.7
		l-17.4,86.9c36.4,23.5,57.5,59.8,51.3,96.2c-9.3,54-75.1,87.9-147.1,75.6S785.4,1533,794.6,1479c6.3-36.9,39-64.4,82.1-74.2
		l23.3-104.6c-72.7-45-129.6-124.3-158.4-223.1"/>
	<path class="st0" d="M695,853.6c0,0-16.8-72.9,0.1-151.9"/>
</g>
<polyline class="st0" points="1270.6,636.5 1457.8,497.8 938.1,323.4 508.8,649.8 694.6,700.3 "/>
<path class="st0" d="M564.5,670v71.2c0,0-95.9,46.6,6.6,159.8c0,0,85.2-107.9-5.3-161.1"/>
</svg>
