<?xml version="1.0" encoding="utf-8"?>
<!-- Generator: Adobe Illustrator 27.0.1, SVG Export Plug-In . SVG Version: 6.00 Build 0)  -->
<svg version="1.1" id="Layer_1" xmlns="http://www.w3.org/2000/svg" xmlns:xlink="http://www.w3.org/1999/xlink" x="0px" y="0px"
	 viewBox="0 0 2000 2000" style="enable-background:new 0 0 2000 2000;" xml:space="preserve">
<style type="text/css">
	.st0{fill:none;stroke:#14165A;stroke-width:47.119;stroke-linecap:round;stroke-miterlimit:10;}
	.st1{fill:none;stroke:#14165A;stroke-width:47.119;stroke-miterlimit:10;}
	.st2{fill:none;stroke:#14165A;stroke-width:47.119;stroke-linecap:round;stroke-linejoin:round;stroke-miterlimit:10;}
</style>
<path class="st0" d="M790,1039c-17.4,24.5-44,40.1-73.9,40.1c-52.5,0-95.1-48.5-95.1-108.3s42.6-108.3,95.1-108.3
	c26.3,0,50,12.1,67.2,31.7"/>
<path class="st1" d="M741.6,1077.1c28.8,98.8,85.7,178.1,158.4,223.1l-23.3,104.6c-43.1,9.8-75.8,37.3-82.1,74.2
	c-9.2,54,41.7,107.8,113.7,120.1c72,12.3,137.8-21.6,147.1-75.6c6.2-36.4-14.9-72.7-51.3-96.2l17.4-86.9c6.5,0.5,13,0.7,19.6,0.7
	c177.3,0,321.1-184.7,321.1-412.5c0-122.9-26.8-209.5-93.2-285.1"/>
<path class="st2" d="M1269,643.5c0,0,79.8-53.3,37.8-126.8c-32.4-56.7-108-5.4-108-5.4s34.3-112.2-37.8-129.5
	c-67.5-16.2-105.3,48.6-105.3,48.6s-32.4-102.6-97.2-86.4c-66.2,16.6-64.8,99.9-64.8,99.9s-54-78.3-113.3-48.6
	c-59.6,29.8-24.3,129.5-24.3,129.5s-59.4-89.1-113.3-24.3C586.3,568.4,659.1,630,659.1,630s-67.5-51.3-99.9,18.9
	s56.7,97.2,56.7,97.2l54,126.8"/>
</svg>
