<?xml version="1.0" encoding="utf-8"?>
<!-- Generator: Adobe Illustrator 27.0.1, SVG Export Plug-In . SVG Version: 6.00 Build 0)  -->
<svg version="1.1" id="Layer_1" xmlns="http://www.w3.org/2000/svg" xmlns:xlink="http://www.w3.org/1999/xlink" x="0px" y="0px"
	 viewBox="0 0 2000 2000" style="enable-background:new 0 0 2000 2000;" xml:space="preserve">
<style type="text/css">
	.st0{fill:none;stroke:#14165A;stroke-width:47.119;stroke-miterlimit:10;}
	.st1{fill:none;stroke:#14165A;stroke-width:47.119;stroke-linecap:round;stroke-miterlimit:10;}
	.st2{fill:none;stroke:#14165A;stroke-width:47.119;stroke-linecap:round;stroke-linejoin:round;stroke-miterlimit:10;}
</style>
<path class="st0" d="M1324.4,731.6c19,52.7,37.7,135.7,37.7,197.6c0,228.4-144.1,413.6-321.9,413.6"/>
<path class="st1" d="M790,1039c-17.4,24.5-44,40.1-73.9,40.1c-52.5,0-95.1-48.5-95.1-108.3s42.6-108.3,95.1-108.3
	c26.3,0,50,12.1,67.2,31.7"/>
<path class="st0" d="M741.6,1077.1c28.8,98.8,85.7,178.1,158.4,223.1l-23.3,104.6c-43.1,9.8-75.8,37.3-82.1,74.2
	c-9.2,54,41.7,107.8,113.7,120.1c72,12.3,137.8-21.6,147.1-75.6c6.2-36.4-14.9-72.7-51.3-96.2l17.4-86.9c6.5,0.5,13,0.7,19.6,0.7
	c177.3,0,321.1-184.7,321.1-412.5"/>
<path class="st2" d="M649.2,635.9C525.8,606.2,539,504.4,539,504.4S689.8,403.1,794.5,600"/>
<line class="st2" x1="560.4" y1="516.1" x2="761.7" y2="607.8"/>
<path class="st2" d="M1454.1,737.6c0,0-562.7-84.5-907.8,159.6c-6,2-91.8-109.7-21.9-221.5C522.3,677.8,1002.3,468.8,1454.1,737.6z"
	/>
<path class="st2" d="M754,532.3c42-43.6,113.3-87.3,230.5-86.2c232.2,2.2,316,215.7,316,215.7"/>
</svg>
