<?xml version="1.0" encoding="utf-8"?>
<!-- Generator: Adobe Illustrator 27.0.1, SVG Export Plug-In . SVG Version: 6.00 Build 0)  -->
<svg version="1.1" id="Layer_1" xmlns="http://www.w3.org/2000/svg" xmlns:xlink="http://www.w3.org/1999/xlink" x="0px" y="0px"
	 viewBox="0 0 2000 2000" style="enable-background:new 0 0 2000 2000;" xml:space="preserve">
<style type="text/css">
	.st0{fill:none;stroke:#14165A;stroke-width:47.119;stroke-linecap:round;stroke-miterlimit:10;}
	.st1{fill:none;stroke:#14165A;stroke-width:47.119;stroke-linecap:round;stroke-linejoin:round;stroke-miterlimit:10;}
</style>
<g>
	<path class="st0" d="M783.3,894.2c-17.2-19.6-40.9-31.7-67.2-31.7c-52.5,0-95.1,48.5-95.1,108.3s42.6,108.3,95.1,108.3
		c29.9,0,56.5-15.6,73.9-40.1"/>
	<path class="st0" d="M901.8,505.7c85.9-21.1,217.8-19.2,352,114c66.4,75.6,108.3,186,108.3,308.9c0,227.8-143.8,412.5-321.1,412.5
		c-6.6,0-13.1-0.2-19.6-0.7l-17.4,86.9c36.4,23.5,57.5,59.8,51.3,96.2c-9.3,54-75.1,87.9-147.1,75.6S785.4,1533,794.6,1479
		c6.3-36.9,39-64.4,82.1-74.2l23.3-104.6c-72.7-45-129.6-124.3-158.4-223.1"/>
	<path class="st0" d="M695,853.6c0,0-35.8-155.3,49.8-257.8"/>
</g>
<path class="st1" d="M735.2,414.1l21.8,285c0,0,59.5,29.4,147.5-32.8s82.7-117.2,82.7-117.2L735.2,414.1z"/>
<path class="st1" d="M619.5,588.8c0,0,60.8,8.4,54.5-73.3s62.9-100.6,62.9-100.6s-81.7,2.1-98.5,58.7s-69.1,44-69.1,44"/>
<path class="st1" d="M743.9,518.6c0,0,29.7,34.1,157-8.2"/>
<path class="st1" d="M746.7,608c0,0,92.9,32.7,224.4-28"/>
</svg>
