<svg xmlns="http://www.w3.org/2000/svg" viewBox="0 0 2000 2000" xmlns:v="https://vecta.io/nano"><style><![CDATA[.E{stroke-miterlimit:10}.F{stroke-linejoin:round}.G{stroke-linecap:round}]]></style><g fill="none" stroke="#14165a" stroke-width="47.119" class="E"><g class="G"><path d="M716.1,1079.1c-52.5,0-95.1-48.5-95.1-108.3c0-44.2,25.9-76.9,54.8-91.1"/><path d="M811.3 361.7s-148 105.5-146.5 318c0 0-177.4 34.4-168.8-53.1C514.8 437.5 813.2 361 813.2 361" class="F"/></g><path d="M584.1 686c-11.3 57.2-12 121.4 4.2 192.1 0 0 15.6 73.4 25 146.9 0 0 25 134.4-43.8 203.1s108.8 86.3 126.3-149" class="F"/><path d="M1265 643s-179-218-445.9-281.3c0 0 637 27 391 210.2" class="G"/><path d="M1358.2 999.2s35.9 135.9 78.1 193.8-84.4 3.1-120.3-62.5" class="F"/><path d="M805.5 1212.5c24.1 30.1 63.8 68.7 94.5 87.7l-23.3 104.6c-43.1 9.8-75.8 37.3-82.1 74.2-9.2 54 41.7 107.8 113.7 120.1s137.8-21.6 147.1-75.6c6.2-36.4-14.9-72.7-51.3-96.2l17.4-86.9c6.5.5 13 .7 19.6.7 177.3 0 321.1-184.7 321.1-412.5 0-122.9-27.8-206.1-94.2-281.7"/><path d="M832 734.4s-98.4 48.4-53.1 220.3c37.5 142.2 39.1 226.6 9.4 281.2-67 123.4-17-80.4-84.8-257.1-13.6-35.4-29.3-100.8-27.7-99.2" class="F G"/></g></svg>