<svg xmlns="http://www.w3.org/2000/svg" viewBox="0 0 2000 2000" xmlns:v="https://vecta.io/nano"><style><![CDATA[.E{stroke-linecap:round}.F{stroke-linejoin:round}.G{stroke-miterlimit:10}]]></style><g fill="none" stroke="#14165a" stroke-width="47.119"><g class="G"><path d="M790 1039c-17.4 24.5-44 40.1-73.9 40.1-52.5 0-95.1-48.5-95.1-108.3s42.6-108.3 95.1-108.3c26.3 0 50 12.1 67.2 31.7" class="E"/><path d="M741.6 1077.1c28.8 98.8 85.7 178.1 158.4 223.1l-23.3 104.6c-43.1 9.8-75.8 37.3-82.1 74.2-9.2 54 41.7 107.8 113.7 120.1s137.8-21.6 147.1-75.6c6.2-36.4-14.9-72.7-51.3-96.2l17.4-86.9c6.5.5 13 .7 19.6.7 177.3 0 321.1-184.7 321.1-412.5 0-122.9-41.9-233.3-108.3-308.9"/><g class="E F"><path d="M946.1 631.9c74-60.9 117.6-143.1 291.6-165.4C1375 449 1445 524.5 1371 568s-115 52-115 52m-650.3-37.5c-7.5 12.7-13.7 25.6-18.6 38.5-56.6 150.1 71.8 252.4 71.8 252.4m452.6-374.2c-112-90.3-229-97.4-325-63.1"/><path d="M946.1 631.9s107.5 31.4 181.3-33.6c73.7-65 93.9-129.3 193.6-129.3"/></g></g><ellipse transform="matrix(.9411 -.3382 .3382 .9411 -183.3613 293.9357)" cx="751.9" cy="673.2" rx="107.6" ry="64.3" class="F"/><path d="M853.1 636.8L779 430.5c-12-33.4-67.1-44.3-123-24.2s-91.5 63.5-79.5 96.9l74.1 206.3m538.3-231.3l-10.8-30c-12-33.4-67.1-44.3-123-24.2-14 5-26.7 11.5-37.7 18.9M716 696.5L780 878s18 74 108.4 75.4" class="E G F"/></g></svg>