<svg xmlns="http://www.w3.org/2000/svg" viewBox="0 0 2000 2000" xmlns:v="https://vecta.io/nano"><style><![CDATA[.D{stroke-linejoin:round}.E{stroke-miterlimit:10}]]></style><g fill="none" stroke="#14165a" stroke-width="47.119"><g stroke-linecap="round" class="E"><path d="M783.3 894.2c-17.2-19.6-40.9-31.7-67.2-31.7-52.5 0-95.1 48.5-95.1 108.3s42.6 108.3 95.1 108.3c29.9 0 56.5-15.6 73.9-40.1m-92-185s-52.9-216.8 105.9-307.4c108.4-61.9 170.6 38.2 170.6 38.2 128.6-163.9 279.3 34.9 279.3 34.9" class="D"/><path d="M1253.8 619.7c66.4 75.6 108.3 186 108.3 308.9 0 227.8-143.8 412.5-321.1 412.5-6.6 0-13.1-.2-19.6-.7l-17.4 86.9c36.4 23.5 57.5 59.8 51.3 96.2-9.3 54-75.1 87.9-147.1 75.6S785.4 1533 794.6 1479c6.3-36.9 39-64.4 82.1-74.2l23.3-104.6c-72.7-45-129.6-124.3-158.4-223.1"/><path d="M967.6 369s-43.8 112.3 7 215.8c0 0 14.9-112 86.7-165.9" class="D"/></g><ellipse transform="matrix(.3862 -.9224 .9224 .3862 273.6575 1177.4001)" cx="1021.5" cy="383.1" rx="39.9" ry="55.9" class="D"/><path d="M939.7 534.6S995.9 377.5 800 383c5.6-1.9-49.9 117.7 139.7 151.6z" class="D E"/></g></svg>