<svg xmlns="http://www.w3.org/2000/svg" viewBox="0 0 2000 2000" xmlns:v="https://vecta.io/nano"><path d="M790 1039c-17.4 24.5-44 40.1-73.9 40.1-52.5 0-95.1-48.5-95.1-108.3s42.6-108.3 95.1-108.3c26.3 0 50 12.1 67.2 31.7" fill="none" stroke="#14165a" stroke-width="47.119" stroke-linecap="round" stroke-miterlimit="10"/><linearGradient id="A" gradientUnits="userSpaceOnUse" x1="572.6" y1="440.65" x2="972.6" y2="440.65"><stop offset="0" stop-color="#f9ac1b"/><stop offset="1" stop-color="#f7ea2f"/></linearGradient><path d="M661.7 596.9s109.4-100 310.9-117.2c0-1.6-42.2-162.5-42.2-162.5l-57.8 65.6-168.8-98.4-25 167.2-106.2 4.7 89.1 140.6z" fill="url(#A)"/><g fill="none" stroke="#14165a" stroke-width="47.119" stroke-miterlimit="10"><g stroke-linejoin="round"><path d="M707 596.9s109.4-100 310.9-117.2c0-1.6-42.2-162.5-42.2-162.5L918 382.8l-168.8-98.4-25 167.2-106.2 4.6 89 140.7zm309.4-150s71.9-46.9 189.1 3.1 143.8 4.7 143.8 4.7 20.3 144.1-95.3 165"/><path d="M693 570.3s-112.5 10.9-65.6 107.8c1.6-1.6-57.8 17.2-54.7 85.9s90.6 118.8 90.6 118.8"/></g><path d="M1254 619.7c66.4 75.6 108.3 186 108.3 308.9 0 227.8-143.8 412.5-321.1 412.5-6.6 0-13.1-.2-19.6-.7l-17.4 86.9c36.4 23.5 57.5 59.8 51.3 96.2-9.3 54-75.1 87.9-147.1 75.6S785.5 1533 794.7 1479c6.3-36.9 39-64.4 82.1-74.2l23.3-104.6c-72.7-45-129.6-124.3-158.4-223.1" stroke-linecap="round"/></g></svg>