<?xml version="1.0" encoding="utf-8"?>
<!-- Generator: Adobe Illustrator 27.0.1, SVG Export Plug-In . SVG Version: 6.00 Build 0)  -->
<svg version="1.1" id="Layer_1" xmlns="http://www.w3.org/2000/svg" xmlns:xlink="http://www.w3.org/1999/xlink" x="0px" y="0px"
	 viewBox="0 0 2000 2000" style="enable-background:new 0 0 2000 2000;" xml:space="preserve">
<style type="text/css">
	.st0{fill:none;stroke:#14165A;stroke-width:47.1192;stroke-linecap:round;stroke-linejoin:round;stroke-miterlimit:10;}
	.st1{fill:none;stroke:#14165A;stroke-width:47.1192;stroke-linecap:round;stroke-miterlimit:10;}
</style>
<g>
	<path class="st0" d="M783.3,894.2c-17.2-19.6-40.9-31.7-67.2-31.7c-52.5,0-95.1,48.5-95.1,108.3s42.6,108.3,95.1,108.3
		c29.9,0,56.5-15.6,73.9-40.1"/>
	<path class="st1" d="M1311,703c3.3,6.9,9.6,22.6,12.6,29.7c24.5,58.3,38.5,125,38.5,195.9c0,227.8-143.8,412.5-321.1,412.5
		c-6.6,0-13.1-0.2-19.6-0.7l-17.4,86.9c36.4,23.5,57.5,59.8,51.3,96.2c-9.3,54-75.1,87.9-147.1,75.6S785.4,1533,794.6,1479
		c6.3-36.9,39-64.4,82.1-74.2l23.3-104.6c-72.7-45-129.6-124.3-158.4-223.1"/>
	<path class="st0" d="M695,853.6"/>
</g>
<g>
	<path class="st0" d="M1124.1,602.7C1302.3,630.6,1369,803,1424,746s-50.6-108.8-233-274s-427.4,44.9-427.4,44.9
		s-195.3-8.6-180.3,171.7s-93.4,247.8-59.1,292.8c34.3,45.1,77.4,23.8,102-46.1"/>
	<path class="st0" d="M921,604c0,0-113.5,25.3-88.7,138.2c19.3,88-8.6,118-30,120.2c-50.3,5-85.8-98.7-83.7-191"/>
</g>
</svg>
