<?xml version="1.0" encoding="utf-8"?>
<!-- Generator: Adobe Illustrator 27.0.1, SVG Export Plug-In . SVG Version: 6.00 Build 0)  -->
<svg version="1.1" id="Layer_1" xmlns="http://www.w3.org/2000/svg" xmlns:xlink="http://www.w3.org/1999/xlink" x="0px" y="0px"
	 viewBox="0 0 2000 2000" style="enable-background:new 0 0 2000 2000;" xml:space="preserve">
<style type="text/css">
	.st0{fill:none;stroke:#14165A;stroke-width:47.1192;stroke-linecap:round;stroke-linejoin:round;stroke-miterlimit:10;}
	.st1{fill:none;stroke:#14165A;stroke-width:47.1192;stroke-linecap:round;stroke-miterlimit:10;}
</style>
<path class="st0" d="M783.3,894.2c-17.2-19.6-40.9-31.7-67.2-31.7c-52.5,0-95.1,48.5-95.1,108.3s42.6,108.3,95.1,108.3
	c29.9,0,56.5-15.6,73.9-40.1"/>
<path class="st0" d="M830.7,655.6c0,0-85-85-38-210.2"/>
<path class="st0" d="M1217.1,435.4c0,0-57.1,34.2-59.4,100.5"/>
<circle class="st0" cx="811.5" cy="386" r="56.9"/>
<circle class="st0" cx="1274" cy="405.8" r="56.9"/>
<path class="st0" d="M1253.8,619.7c-63-62.6-125.5-96.2-183-112c141.1-111-24.4-223.1-24.4-223.1s13.7,76.5-65.6,103.8
	c-75.6,26.1-68.5,85.3-60.3,113.3c-71.1,13.4-116.6,45-116.6,45c-158.8,90.6-108.9,307-108.9,307"/>
<path class="st1" d="M741.6,1077.1c28.8,98.8,85.7,178.1,158.4,223.1l-23.3,104.6c-43.1,9.8-75.8,37.3-82.1,74.2
	c-9.2,54,41.6,107.8,113.6,120.1s137.8-21.6,147.1-75.6c6.2-36.4-14.9-72.7-51.3-96.2l17.4-86.9c6.5,0.5,13,0.7,19.6,0.7
	c177.3,0,321.1-184.7,321.1-412.5c0-122.9-41.9-233.3-108.3-308.9"/>
</svg>
