<svg xmlns="http://www.w3.org/2000/svg" viewBox="0 0 2000 2000" fill="none" stroke="#14165a" stroke-width="47.119" xmlns:v="https://vecta.io/nano"><g stroke-linejoin="round" stroke-miterlimit="10"><path d="M1021.4 1340.4c6.5.5 13 .7 19.6.7 177.3 0 321.1-184.7 321.1-412.5 0-122.9-41.9-233.3-108.3-308.9-61.1-60.6-121.7-94-177.7-110.5 12.2-57.6 43.8-115.9 40.9-119.9-48.9 0-76.6 34-76.6 34-25.5-29.8-14.9-100-17-100-59.6 14.9-57.4 85.1-68.1 93.6-10.6 8.5-48.9-38.3-51.1-40.4-28.9 50.8-12.6 96 8.3 126.6-66.5 14.1-108.6 43.4-108.6 43.4-99.5 56.8-117.4 150.1-116.7 221.5m106.2 298.4c-11.4 6.7-23.4 11.8-35.8 15.4-53.7 15.6-114 2.2-156.3-40.1-61.8-61.8-61.8-162.1 0-223.9 46.4-46.4 114.4-58 171.5-34.8m574.6 289.4c28-7.3 54.3-22.3 75.6-44.9 59.8-63.8 56.6-164-7.2-223.8-23.6-22.2-50.3-35.7-80-40.7" stroke-linecap="round"/><path d="M765.7 982.2s-20.1 15.4-31.6 18.7c-25.1 7.3-53.3 1.1-73.1-18.7-28.9-28.9-28.9-75.8 0-104.8 28.9-28.9 69.8-28.9 98.8 0 0 0-6.6 46 5.9 104.8h0 0 0z"/></g><path d="M1041 1341.1c-6.6 0-13.1-.2-19.6-.7l-17.4 86.9c36.4 23.5 57.5 59.8 51.3 96.2-9.3 54-75.1 87.9-147.1 75.6S785.4 1533 794.6 1479c6.3-36.9 39-64.4 82.1-74.2l23.3-104.6c-63.9-39.6-124.2-124-155.3-206.6" stroke-linecap="round" stroke-miterlimit="10"/></svg>