<svg xmlns="http://www.w3.org/2000/svg" viewBox="0 0 2000 2000" xmlns:v="https://vecta.io/nano"><g fill="none" stroke="#14165a" stroke-width="47.11"><g stroke-linejoin="round"><ellipse cx="711.5" cy="889.4" rx="47.8" ry="49.4"/><path d="M754.4,843.6c4.1-6.2,149.8-358.2,550.7-218.8" stroke-linecap="round"/></g><path d="M1239.7 1225c-79.1 56.9-372.3 168.1-503.5-281.4M897 1292l-14 109c-43.1 9.8-82.1 41.1-88.4 78-9.2 54 41.7 107.8 113.7 120.1s137.8-21.6 147.1-75.6c6.2-36.4-14.9-72.7-51.3-96.2l18.8-121.1"/><g stroke-linejoin="round"><path d="M987.3 474c-178.2 0-330.8 111.6-392.9 269.4-43.5 34.9-71.9 92.8-71.9 158.2 0 65.7 28.7 123.8 72.5 158.6 62.4 157.2 214.5 237.7 392.4 237.7 233.4 0 422.6-160.9 422.6-396.8S1220.6 474 987.3 474h0 0 0 0z"/><path d="M673.7 926.9s1.7 106.3-78.8 147.9"/></g></g><ellipse transform="matrix(.8245 -.5659 .5659 .8245 -226.1925 685.1633)" cx="991.4" cy="707.2" rx="60" ry="29.5" fill="#fff"/><path d="M594.4 752.1s53.1-12.7 81.3 87.3c2.6 1.4 100.9-356.4 491-323.4" fill="none" stroke="#14165a" stroke-width="47.11" stroke-linecap="round" stroke-linejoin="round"/></svg>