<?xml version="1.0" encoding="utf-8"?>
<!-- Generator: Adobe Illustrator 27.0.1, SVG Export Plug-In . SVG Version: 6.00 Build 0)  -->
<svg version="1.1" id="Layer_1" xmlns="http://www.w3.org/2000/svg" xmlns:xlink="http://www.w3.org/1999/xlink" x="0px" y="0px"
	 viewBox="0 0 2000 2000" style="enable-background:new 0 0 2000 2000;" xml:space="preserve">
<style type="text/css">
	.st0{fill:none;stroke:#14165A;stroke-width:47.1192;stroke-linecap:round;stroke-miterlimit:10;}
	.st1{fill:none;stroke:#14165A;stroke-width:47.1192;stroke-linecap:round;stroke-linejoin:round;stroke-miterlimit:10;}
	.st2{fill:none;stroke:#14165A;stroke-width:47.1192;stroke-miterlimit:10;}
</style>
<path class="st0" d="M790,1039c-17.4,24.5-44,40.1-73.9,40.1c-52.5,0-95.1-48.5-95.1-108.3s42.6-108.3,95.1-108.3
	c26.3,0,50,12.1,67.2,31.7"/>
<path class="st1" d="M1253.9,619.7c38.3-5.8,105.8-47.6,105.8-47.6s-34.9-69.7-37.2-67.4c-93,65.1-367.2-81.3-515.9-53.5
	C657.8,479.1,657.8,665,657.8,665s-93,20.9-79,162.7c13.9,141.8-88.3,306.8-88.3,302.1c0,0,31.3,27.9,79.5,58.2
	c13.4,8.4,60.3-69.3,60.3-69.3S632.8,1220,647,1224c46.4,13,105,24,168.9,8.1"/>
<path class="st2" d="M741.6,1077.1c28.8,98.8,85.7,178.1,158.4,223.1l-23.3,104.6c-43.1,9.8-75.8,37.3-82.1,74.2
	c-9.2,54,41.7,107.8,113.7,120.1c72,12.3,137.8-21.6,147.1-75.6c6.2-36.4-14.9-72.7-51.3-96.2l17.4-86.9c6.5,0.5,13,0.7,19.6,0.7
	c177.3,0,321.1-184.7,321.1-412.5c0-122.9-41.9-233.3-108.3-308.9"/>
</svg>
