<?xml version="1.0" encoding="utf-8"?>
<!-- Generator: Adobe Illustrator 27.0.1, SVG Export Plug-In . SVG Version: 6.00 Build 0)  -->
<svg version="1.1" id="Layer_1" xmlns="http://www.w3.org/2000/svg" xmlns:xlink="http://www.w3.org/1999/xlink" x="0px" y="0px"
	 viewBox="0 0 2000 2000" style="enable-background:new 0 0 2000 2000;" xml:space="preserve">
<style type="text/css">
	.st0{fill:none;stroke:#14165A;stroke-width:47.119;stroke-linecap:round;stroke-miterlimit:10;}
	.st1{fill:none;stroke:#14165A;stroke-width:47.119;stroke-miterlimit:10;}
	.st2{fill:none;stroke:#14165A;stroke-width:47.119;stroke-linecap:round;stroke-linejoin:round;stroke-miterlimit:10;}
</style>
<path class="st0" d="M790,1039c-17.4,24.5-44,40.1-73.9,40.1c-52.5,0-95.1-48.5-95.1-108.3s42.6-108.3,95.1-108.3
	c26.3,0,50,12.1,67.2,31.7"/>
<path class="st1" d="M741.6,1077.1c28.8,98.8,85.7,178.1,158.4,223.1l-23.3,104.6c-43.1,9.8-75.8,37.3-82.1,74.2
	c-9.2,54,41.7,107.8,113.7,120.1c72,12.3,137.8-21.6,147.1-75.6c6.2-36.4-14.9-72.7-51.3-96.2l17.4-86.9c6.5,0.5,13,0.7,19.6,0.7
	c177.3,0,321.1-184.7,321.1-412.5c0-122.9-43.9-233.3-110.3-308.9"/>
<path class="st2" d="M1255,623c-3.6-113.2,98.7-65.8,100.3-60.4c-44.6-122.2-191-80.8-198.9-77.2c35-18,35.4-98.8,35.4-98.8
	s-34.1,57.5-113.2,30.5c-107.5-36.6-138.5,53.9-140.1,55.7c31.8-66.5-52.1-106-52.1-106s9.9,100.6-80.8,116.8
	c-149.6,21.6-120.4,106-120.4,106S604.4,613,611.5,683c7.6,74.1-25.2,158.1-25.2,158.1l71.9-28.7c0,0,1.1,18,19.8,59.3"/>
</svg>
