<svg xmlns="http://www.w3.org/2000/svg" viewBox="0 0 2000 2000" fill="none" stroke="#14165a" stroke-width="47.119" stroke-linecap="round" xmlns:v="https://vecta.io/nano"><g stroke-linejoin="round" stroke-miterlimit="10"><path d="M783.3 894.2c-17.2-19.6-40.9-31.7-67.2-31.7-52.5 0-95.1 48.5-95.1 108.3s42.6 108.3 95.1 108.3c29.9 0 56.5-15.6 73.9-40.1m11.6-490.6l12.9-8.3c46.6-26.7 240.3-118 439.4 79.6M695 853.6s-16.2-70.4-.7-147.7M887 585c-35.2-25.7-103.4-47.8-200.2-20.9-3 0-17.6-12.6-31.3-25.1 8.3-9.2 13.4-21.4 13.4-34.8 0-28.7-23.2-51.9-51.9-51.9-28.1 0-51 22.3-51.8 50.2-2-.2-4-.4-6-.4-28.7 0-51.9 23.2-51.9 51.9s23.2 51.9 51.9 51.9c11.7 0 22.5-3.9 31.2-10.4l148.4 150.1"/><path d="M957 495c11.5-4.7 20.5-17.5 26.2-29.6 12.3-25.9 1.3-56.8-24.6-69.1-25.4-12.1-55.6-1.7-68.4 23.1-1.7-1.1-3.4-2-5.3-2.9-25.9-12.3-56.8-1.3-69.1 24.6s-1.3 56.8 24.6 69.1c10.6 5 22 6.2 32.7 4"/></g><path d="M1253.9 619.7c66.4 75.6 108.3 186 108.3 308.9 0 227.8-143.8 412.5-321.1 412.5-6.6 0-13.1-.2-19.6-.7l-17.4 86.9c36.4 23.5 57.5 59.8 51.3 96.2-9.3 54-75.1 87.9-147.1 75.6S785.4 1533 794.6 1479c6.3-36.9 39-64.4 82.1-74.2l23.3-104.6c-72.7-45-129.6-124.3-158.4-223.1" stroke-miterlimit="10"/></svg>