<?xml version="1.0" encoding="utf-8"?>
<!-- Generator: Adobe Illustrator 27.0.1, SVG Export Plug-In . SVG Version: 6.00 Build 0)  -->
<svg version="1.1" id="Layer_1" xmlns:v="https://vecta.io/nano"
	 xmlns="http://www.w3.org/2000/svg" xmlns:xlink="http://www.w3.org/1999/xlink" x="0px" y="0px" viewBox="0 0 2000 2000"
	 style="enable-background:new 0 0 2000 2000;" xml:space="preserve">
<style type="text/css">
	.st0{fill:none;stroke:#14165A;stroke-width:47.119;stroke-linecap:round;stroke-linejoin:round;stroke-miterlimit:10;}
	.st1{fill:#B2DFF7;}
	.st2{fill:none;stroke:#14165A;stroke-width:47.119;stroke-linejoin:round;stroke-miterlimit:10;}
</style>
<path class="st0" d="M708.7,1460.3c-38.8,28.6-85.2,74.4-95.1,132.8c-7.4,43.8-12.9,76.8-17.5,116.3 M1148.4,1496.8
	c20.8,18.2,55.6,52.9,65.4,79c18.1,48.3,34.5,129.6,46.4,200.2 M1134.1,1722.2l16.6,88.6 M711.9,1704.8l-8.4,61.3"/>
<g>
	<path class="st1" d="M866.8,1657.6l-43.1,144.5l124.2,15.2l-14.5-122.1C933.5,1695.1,904.8,1707.4,866.8,1657.6L866.8,1657.6z"/>
	<g>
		<path id="B" class="st1" d="M951.4,1650.8c0,24.5-24.3,44.4-54.2,44.4s-54.2-19.9-54.2-44.4s24.3-44.4,54.2-44.4
			c15,0,28.5,5,38.3,13S951.4,1638.5,951.4,1650.8z"/>
	</g>
</g>
<g>
	<g>
		<path id="B_00000086650272256342110860000003907757302689890494_" class="st2" d="M987.7,1650.8c0,24.5-24.3,44.4-54.2,44.4
			s-54.2-19.9-54.2-44.4s24.3-44.4,54.2-44.4c15,0,28.5,5,38.3,13S987.7,1638.5,987.7,1650.8z"/>
	</g>
	<path class="st0" d="M963.1,1693.9l22,126.7 M897.2,1694.8l-27,108.1 M866.1,1339.9c-87.2,0-157.8,78.6-157.8,175.6
		c0,58.3,25.6,110,64.9,142c0,0,33-89.1,123.9-51.1 M1023.4,1358.9c67.4,20,117,88.4,117,169.7c0,48.5-17.7,92.4-46.2,124.2
		c0,0-17.2-60.7-94.9-60.7"/>
</g>
</svg>
