<?xml version="1.0" encoding="utf-8"?>
<!-- Generator: Adobe Illustrator 27.0.1, SVG Export Plug-In . SVG Version: 6.00 Build 0)  -->
<svg version="1.1" id="Layer_1" xmlns="http://www.w3.org/2000/svg" xmlns:xlink="http://www.w3.org/1999/xlink" x="0px" y="0px"
	 viewBox="0 0 2000 2000" style="enable-background:new 0 0 2000 2000;" xml:space="preserve">
<style type="text/css">
	.st0{fill:none;stroke:#14165A;stroke-width:47.1192;stroke-linecap:round;stroke-linejoin:round;stroke-miterlimit:10;}
</style>
<path class="st0" d="M875.7,1400.1c0,0-232.4,17.6-262.1,193c-7.4,43.8-12.9,76.8-17.5,116.3"/>
<path class="st0" d="M1026.1,1437.5c0,0,150.7,39.5,187.7,138.3c18.1,48.3,34.5,129.6,46.4,200.2"/>
<line class="st0" x1="1133.3" y1="1689.6" x2="1150.7" y2="1810.8"/>
<line class="st0" x1="716.7" y1="1668.8" x2="703.5" y2="1766.1"/>
<path class="st0" d="M711.7,1461.3c0,0-36.7,209.5,207.1,224.1s218.8-191.7,218.8-191.7"/>
<line class="st0" x1="1054.2" y1="1535.4" x2="1122.9" y2="1577.1"/>
<line class="st0" x1="1014.6" y1="1581.2" x2="1056.2" y2="1658.3"/>
<line class="st0" x1="952.1" y1="1604.2" x2="956.2" y2="1670.8"/>
<line class="st0" x1="875" y1="1600" x2="858.3" y2="1660.4"/>
<line class="st0" x1="827.1" y1="1560.4" x2="775" y2="1614.6"/>
<line class="st0" x1="791.7" y1="1508.3" x2="731.2" y2="1535.4"/>
</svg>
