<?xml version="1.0" encoding="utf-8"?>
<!-- Generator: Adobe Illustrator 27.0.1, SVG Export Plug-In . SVG Version: 6.00 Build 0)  -->
<svg version="1.1" id="Layer_1" xmlns="http://www.w3.org/2000/svg" xmlns:xlink="http://www.w3.org/1999/xlink" x="0px" y="0px"
	 viewBox="0 0 2000 2000" style="enable-background:new 0 0 2000 2000;" xml:space="preserve">
<style type="text/css">
	.st0{fill:none;stroke:#14165A;stroke-width:47.1192;stroke-linecap:round;stroke-linejoin:round;stroke-miterlimit:10;}
</style>
<g>
	<line class="st0" x1="1139.6" y1="1733.3" x2="1150.7" y2="1810.8"/>
	<g>
		<path class="st0" d="M718.9,1447.3c-46,26.9-93.7,77.3-105.3,145.8c-7.4,43.8-12.9,76.8-17.5,116.3"/>
		<path class="st0" d="M1141.4,1485.9c29.5,20.9,59.5,55.3,72.4,89.9c18.1,48.3,34.5,129.6,46.4,200.2"/>
		<line class="st0" x1="710" y1="1696.7" x2="703.5" y2="1766.1"/>
		<g>
			<path class="st0" d="M1023,1362.6c58.3,10.4,93.7,66.6,104.9,104.1c13.2,43.9,13.8,100,13.8,100l-57.2,43.3l14.8,48.6l-111.9,156
				"/>
			<path class="st0" d="M858.3,1806.2l-127.8-180.7l22-45.8l-54.8-55.9c0,0,12.7-71.6,39.3-109.1c21.6-30.4,72.4-85.5,145.3-87.6"/>
			<line class="st0" x1="1050.7" y1="1540.1" x2="947.9" y2="1817"/>
			<line class="st0" x1="798.9" y1="1521.1" x2="900" y2="1805.5"/>
		</g>
	</g>
</g>
</svg>
