<?xml version="1.0" encoding="utf-8"?>
<!-- Generator: Adobe Illustrator 27.0.1, SVG Export Plug-In . SVG Version: 6.00 Build 0)  -->
<svg version="1.1" id="Layer_1" xmlns="http://www.w3.org/2000/svg" xmlns:xlink="http://www.w3.org/1999/xlink" x="0px" y="0px"
	 viewBox="0 0 2000 2000" style="enable-background:new 0 0 2000 2000;" xml:space="preserve">
<style type="text/css">
	.st0{fill:none;stroke:#14165A;stroke-width:47.11;stroke-linecap:round;stroke-linejoin:round;}
</style>
<g>
	<path class="st0" d="M690.3,1468.5c-36.8,28.4-67.2,68.4-76.7,124.6c-7.4,43.8-13,80.5-17.7,119.9"/>
	<path class="st0" d="M1025.8,1353.1c0,0,132.8,65.6,188.1,222.6c17.1,48.7,34.5,129.6,46.4,200.2"/>
	<line class="st0" x1="1124.9" y1="1664.7" x2="1150.7" y2="1810.8"/>
	<line class="st0" x1="714.9" y1="1659.7" x2="703.5" y2="1766.1"/>
</g>
<path class="st0" d="M794.6,1479c0,0,7.7-111.8-109.4-116.5c0,0,60.9-39.1,179.7,25"/>
<path class="st0" d="M694.5,1467.2c0,0-138.6-7.7-117.2-123.4c18.8-101.6,179.7-118.8,309.4-46.9"/>
</svg>
