<?xml version="1.0" encoding="utf-8"?>
<!-- Generator: Adobe Illustrator 27.0.1, SVG Export Plug-In . SVG Version: 6.00 Build 0)  -->
<svg version="1.1" id="Layer_1" xmlns="http://www.w3.org/2000/svg" xmlns:xlink="http://www.w3.org/1999/xlink" x="0px" y="0px"
	 viewBox="0 0 2000 2000" style="enable-background:new 0 0 2000 2000;" xml:space="preserve">
<style type="text/css">
	.st0{fill:none;stroke:#14165A;stroke-width:47.11;stroke-linecap:round;stroke-linejoin:round;}
</style>
<g>
	<path class="st0" d="M689.4,1466c-45.2,28.8-64.6,61.4-75.8,127.1c-7.4,43.8-12.9,76.8-17.5,116.3"/>
	<path class="st0" d="M1170.2,1512.8c23,19,33,34.8,43.6,63c18.1,48.3,34.5,129.6,46.4,200.2"/>
	<line class="st0" x1="1124.9" y1="1664.7" x2="1150.7" y2="1810.8"/>
	<line class="st0" x1="714.9" y1="1659.7" x2="703.5" y2="1766.1"/>
</g>
<path class="st0" d="M1014.9,1376.6c6.4,0,76.6,17,170.2,89.4c2.1-2.1-55.9,148.9-260.1,257.4c-8.5,2.1-229.3-128.8-237.8-313.9
	c2.1-4.3,108.5-60.8,197.9-56.6"/>
<line class="st0" x1="925" y1="1818.6" x2="925" y2="1723.4"/>
</svg>
