<svg xmlns="http://www.w3.org/2000/svg" viewBox="0 0 2000 2000" xmlns:v="https://vecta.io/nano"><path d="M1067.1 1483.8c7.2 52.9-27.9 112.2-79.1 130.2 5.6 7.8 15.2 17.4 19 27 62.1-23.7 101.2-91.7 95-162-.6-7.3-17.4-10.8-22.1-10.7-8.1.3-13.9 7.6-12.8 15.5zm-105.9 168.5c-1.8 14.2-8 29.5-18.8 46.2 9.3 9.8 23.3 22.7 34.8 30-1.4-21-7.8-59.3-16-76.2zm-197.9-282c-72.4-20.6-115.6-5.8-183.5 23.9-101.7 45-228.4-13-321.2-66.1 42.2 71.5 108.7 214.8 108.7 214.8l14.9-18.3-.2-.2c2.6 2 65.9 49.3 174.9-27.4 107.9-73.1 123.2-101.9 206.4-126.7zm28.1 200.6c-34.2-36-52.1-82.8-31.2-124.2-22 7-36.5 19.1-54.5 30.8 10 49.9 65.4 136 117.3 150.5 4.1-14.1 7.8-24.4 10.6-28.1-15.8-8.5-30.5-16.7-42.2-29zm94.2 55.1c-23.1 1.7-25.2 50-22.5 92.4 24-21.4 59.9-70.5 48.9-79.5-13-14.9-23.1-13.4-26.4-12.9z" fill="#f0b7d4"/><path d="M596.1 1709.4c4.6-39.5 10.1-72.5 17.5-116.3 29.7-175.4 234.1-180.6 234.1-180.6m412.5 363.5c-11.9-70.6-28.3-151.9-46.4-200.2-37-98.8-187.7-138.3-187.7-138.3m123.1 360.9L1127 1678m-423.5 88.1l11.4-106.4m292.1 5.9c162.5-50 123.4-181.2 123.4-181.2m-438.1-13.3S720 1634 845 1659m-607.4-361.4s192.3 141 345.3 75c148.4-64.1 292.8 13.3 292.8 13.3m-492.1 151.6s72.8 67.9 199.3-21.1 228.1-100 228.1-100m54.2 198.4s-22.1 27.3-17.9 97.8c2.8 46.8 21.6 41.2 21.6 41.2s105.2-88.1 69.4-129.4c-35.9-41.3-73.1-9.6-73.1-9.6zm59.2 91.6c8.1 9.6 18.6 20.2 32.1 31.5 36.1 30 53.4 21.6 53.4 21.6s-.9-146.2-55.6-148.3" fill="none" stroke="#14165a" stroke-width="47.119" stroke-linecap="round" stroke-linejoin="round" stroke-miterlimit="10"/></svg>