<?xml version="1.0" encoding="utf-8"?>
<!-- Generator: Adobe Illustrator 27.0.1, SVG Export Plug-In . SVG Version: 6.00 Build 0)  -->
<svg version="1.1" id="Layer_1" xmlns="http://www.w3.org/2000/svg" xmlns:xlink="http://www.w3.org/1999/xlink" x="0px" y="0px"
	 viewBox="0 0 2000 2000" style="enable-background:new 0 0 2000 2000;" xml:space="preserve">
<style type="text/css">
	.st0{fill:none;stroke:#14165A;stroke-width:47.11;stroke-linecap:round;stroke-linejoin:round;}
</style>
<g>
	<path class="st0" d="M1053.2,1342.6c0,0,116.8,21.1,89.1,159.4c2.1,2.1,153.4,21.5,83.2,153.4c2.1,4.3,80.9,21.3,44.7,117"/>
	<path class="st0" d="M878.7,1304.3c0,0-156.3-51.8-171.2,86.5c0,4.3-132.1-35-140.6,94.8c2.1,2.1-96.5,3.4-75.2,143.8"/>
	<path class="st0" d="M723.4,1640.4c0,0,14.9,59.6,2.1,127.7"/>
	<path class="st0" d="M1112.8,1657.4c0,0,29.8,55.3,27.7,136.2"/>
	<path class="st0" d="M939.2,1602.1c0,0-83.9,113,7.3,114.9S939.2,1602.1,939.2,1602.1z"/>
	<path class="st0" d="M946.7,1814.5c0-6.4,8-61.4-0.2-97.5"/>
</g>
</svg>
