<svg xmlns="http://www.w3.org/2000/svg" viewBox="0 0 2000 2000" xmlns:v="https://vecta.io/nano"><path d="M1137.3 1723.8l13.4 87m-434-128.3l-13.2 83.6m232.2-59.8l-1.6 108" fill="none" stroke="#14165a" stroke-width="47.119" stroke-linecap="round" stroke-linejoin="round" stroke-miterlimit="10"/><circle cx="1000.1" cy="1755.6" r="23.6" fill="#14165a"/><g fill="#ed75aa"><path d="M878.3 1674.6l-77.9 27.2c-17-3.2-27.5-35.5-23.6-71.8h0c3.9-36.3 21-63.3 37.9-60.1l56.4 44.4c17 3.2 33.3 2.8 29.4 39.1h0c-3.9 36.3-5.3 24.4-22.2 21.2h0z"/><path d="M907.3 1679.7l96.4 32.7c21.4-2 36.4-33.5 33.3-70h0c-3-36.5-23.1-64.7-44.5-62.8l-73.1 40.3c-21.4 2-42 .4-38.9 37h0c3 36.5 5.4 24.7 26.8 22.8z"/><path d="M946.8 1650.8c0 24.5-24.3 44.4-54.2 44.4-30 0-54.2-19.9-54.2-44.4s24.3-44.4 54.2-44.4c15 0 28.5 5 38.3 13s15.9 19.1 15.9 31.4z"/></g><g fill="none" stroke="#14165a" stroke-width="47.119" stroke-linejoin="round" stroke-miterlimit="10"><path d="M889.7 1681.3l-80.7 20.4c-22.4-3.2-36.4-35.5-31.2-71.8h0c5.2-36.3 27.7-63.3 50.1-60.1l74.5 44.4m72.7 73.8l75.8 24.3c22.5-2 38.3-33.5 35-70h0c-3.2-36.5-24.3-64.7-46.8-62.8l-61 32.8" stroke-linecap="round"/><path d="M987.7 1650.8c0 24.5-24.3 44.4-54.2 44.4s-54.2-19.9-54.2-44.4 24.3-44.4 54.2-44.4c15 0 28.5 5 38.3 13s15.9 19.1 15.9 31.4z"/><path d="M1260.2 1776c-11.9-70.6-28.3-151.9-46.4-200.2-18.4-49.1-64.8-83.5-106.9-105.7 18.3-31.6 41-57.6 42.2-57.6-53.9-41.9-123.7-47.9-123.7-47.9m-133.7-31.9s-75.4-21.2-169.6 35.9c1.2.1 6 21.9 21.9 59.9-63.7 25.7-115.1 73.8-130.5 164.6-7.4 43.8-12.9 76.8-17.5 116.3" stroke-linecap="round"/></g></svg>