<?xml version="1.0" encoding="utf-8"?>
<!-- Generator: Adobe Illustrator 27.0.1, SVG Export Plug-In . SVG Version: 6.00 Build 0)  -->
<svg version="1.1" id="Layer_1" xmlns="http://www.w3.org/2000/svg" xmlns:xlink="http://www.w3.org/1999/xlink" x="0px" y="0px"
	 viewBox="0 0 2000 2000" style="enable-background:new 0 0 2000 2000;" xml:space="preserve">
<style type="text/css">
	.st0{fill:none;stroke:#14165A;stroke-width:47.11;stroke-linecap:round;stroke-linejoin:round;}
</style>
<path class="st0" d="M875.7,1400.1c0,0-232.4,17.6-262.1,193c-7.4,43.8-12.9,76.8-17.5,116.3"/>
<path class="st0" d="M1026.1,1437.5c0,0,150.7,39.5,187.7,138.3c18.1,48.3,34.5,129.6,46.4,200.2"/>
<line class="st0" x1="1130" y1="1696" x2="1150.7" y2="1810.8"/>
<line class="st0" x1="715" y1="1672" x2="703.5" y2="1766.1"/>
<path class="st0" d="M1140.5,1493c3.1,13.9,2.1,19.4,0.7,34c-8.7,93.8-111.8,160.8-230.2,149.7s-207.3-96-198.6-189.8
	c1-10.9,3.3-21.4,6.7-31.5"/>
</svg>
