<svg xmlns="http://www.w3.org/2000/svg" viewBox="0 0 2000 2000" xmlns:v="https://vecta.io/nano"><linearGradient id="A" gradientUnits="userSpaceOnUse" x1="879.35" y1="1797.925" x2="879.35" y2="1500.811"><stop offset="0" stop-color="#dfb838"/><stop offset=".839" stop-color="#fbe680"/></linearGradient><path d="M556.4 1664.2c46.3 31.4 95.8 57.9 148.1 79.1 96.2 39 197.8 58.8 302.1 58.8 66.5 0 132-8.1 195.7-24-4.8-44.4-30.4-228.4-132.4-280.4-116.3-59.3-200.5-92.6-358.2-36.4-143.3 51.1-148 104.6-155.3 202.9h0z" fill="url(#A)"/><g fill="#fff" stroke="#fff" stroke-width="22" stroke-linejoin="round" stroke-miterlimit="10"><path d="M973.7 1690.8c37.6 0 68.1 30.5 68.1 68.1 0-36.6 28.9-66.5 65.2-68v-.1c-36.3-1.5-65.2-31.4-65.2-68 0 37.5-30.5 68-68.1 68h0zm-288.2-122.4c21.7 0 39.2 17.6 39.2 39.2 0-21.1 16.6-38.3 37.5-39.2v-.1c-20.9-.9-37.5-18.1-37.5-39.2 0 21.8-17.6 39.3-39.2 39.3h0z"/><path d="M1042.8 1770.6c-.7-3.8-1-7.7-1-11.7 0 4-.3 7.9-1 11.7h2z"/></g><linearGradient id="B" gradientUnits="userSpaceOnUse" x1="973.7" y1="1446.375" x2="973.7" y2="641.972"><stop offset="0" stop-color="#dfb838"/><stop offset=".839" stop-color="#fbe680"/></linearGradient><path d="M973.7 551.5c-178.7 0-323.5 122-323.5 354.1 0 172.8 80.3 321.2 195.1 385.7l-26.4 125c-27.9 6.2-49.9 22.4-57.9 45.9-14.1 41.3 20.3 89.7 76.8 108s113.7-.4 127.8-41.7c10-29.2-4.3-61.9-33.5-85l25-118.3c5.5.4 11 .5 16.6.5 178.7 0 323.5-188.1 323.5-420.2s-144.9-354-323.5-354z" fill="url(#B)"/><g fill="#fff" stroke="#fff" stroke-width="22" stroke-linejoin="round" stroke-miterlimit="10"><path d="M817.6 965.3c34.8 0 63.1 28.3 63.1 63.1 0-33.9 26.8-61.6 60.4-63v-.1c-33.6-1.4-60.4-29.1-60.4-63 0 34.8-28.3 63-63.1 63z"/><path d="M881.6 1039.3c-.6-3.5-.9-7.2-.9-10.9a65.89 65.89 0 0 1-.9 10.9h1.8zm256.1 165.2c21.2 0 38.5 17.3 38.5 38.5 0-20.7 16.3-37.6 36.9-38.5v-.1c-20.6-.9-36.9-17.8-36.9-38.5 0 21.4-17.2 38.6-38.5 38.6zm39.1 45.2c-.4-2.1-.6-4.3-.6-6.6 0 2.3-.2 4.5-.6 6.6h1.2z"/></g></svg>