<?xml version="1.0" encoding="utf-8"?>
<!-- Generator: Adobe Illustrator 27.1.1, SVG Export Plug-In . SVG Version: 6.00 Build 0)  -->
<svg version="1.1" id="Layer_1" xmlns="http://www.w3.org/2000/svg" xmlns:xlink="http://www.w3.org/1999/xlink" x="0px" y="0px"
	 viewBox="0 0 2000 2000" style="enable-background:new 0 0 2000 2000;" xml:space="preserve">
<style type="text/css">
	.st0{fill:#FFFFFF;}
</style>
<path class="st0" d="M1356.3,764.4c0.1-88.5-36.4-165.5-96-224.6c-59.5-58.4-142-98.7-232.6-98.3c-90.6-0.4-173.1,39.9-232.6,98.3
	c-59.5,59-96.1,136.1-96,224.6c0,134.8,0,269.5,0,404.3l0,0c0,0.1,0,0.2,0,0.2c0,64.1,36.3,93.6,67.5,101.9
	c31.2,8.3,146.1,12.4,146.2-34.8c0-0.1,0,0,0,0c0.3,0.1,0.6-0.1,0.9,0c-0.1,46.7,9.2,83.1,55,87.7c46,4.6,120.8-11.4,120.8-59.2
	c0.2,0,0.3,0,0.5,0c0.1,47.8,7.8,63.8,53.7,59.2c46-4.6,102.2-40.2,102.2-86.8c0.1,0,0.3,0,0.4,0c0,0.1,0-20.2,0-20.2
	c0.1,47.2,16.1,66.6,51.5,49.9c35.4-16.7,58-46.1,58-97.6c0-0.1,0-0.1,0-0.2c0,0,0,0,0,0c0-134.8,0-269.6,0-404.4
	C1356.1,764.5,1356.2,764.5,1356.3,764.4z"/>
</svg>
