<?xml version="1.0" encoding="utf-8"?>
<!-- Generator: Adobe Illustrator 27.0.1, SVG Export Plug-In . SVG Version: 6.00 Build 0)  -->
<svg version="1.1" id="Layer_1" xmlns="http://www.w3.org/2000/svg" xmlns:xlink="http://www.w3.org/1999/xlink" x="0px" y="0px"
	 viewBox="0 0 2000 2000" style="enable-background:new 0 0 2000 2000;" xml:space="preserve">
<style type="text/css">
	.st0{fill:#B2DFF7;}
	.st1{fill:#FFFFFF;}
</style>
<path class="st0" d="M553.7,1665.1c46.3,31.4,95.8,57.9,148.1,79.1c96.2,39,197.8,58.8,302.1,58.8c66.5,0,132-8.1,195.7-24
	c-4.8-44.4-30.4-228.4-132.4-280.4c-116.3-59.3-200.5-92.6-358.2-36.4C565.7,1513.3,561,1566.8,553.7,1665.1z"/>
<path class="st1" d="M662.9,1480.9c-8.5,28.2-30.5,109.3-40.8,225.7c13.6,7.4,27.5,14.4,41.6,21c1.4-2.6,2.2-5.5,2.5-8.6
	c11.6-141.6,42.1-232.8,42.7-234.4c2.6-7.4,1-15.3-3.5-21.1C689.6,1469.3,675.4,1475,662.9,1480.9z M726.9,1753.9
	c14.4,5.3,28.9,10.1,43.5,14.6c0.2-0.9,0.4-1.9,0.5-2.9c11.4-108.9,33.1-288.7,38-329c-14.8,2-30.2,5.1-46.4,9.2
	C755.6,1502.9,737.4,1654.5,726.9,1753.9z M947.2,1447.1c3.6,21.8,32.5,201,25.1,355.1c0,0.1,0,0.2,0,0.3c10.5,0.4,21,0.6,31.6,0.6
	c4.5,0,9,0,13.4-0.1c6.1-132.7-12.8-278.7-21.8-338.3C979.3,1457.8,963.3,1451.8,947.2,1447.1z M860.5,1433.7
	c0,2-3,204.2-10.7,354.5c14.8,2.9,29.7,5.3,44.7,7.4c7.4-141.6,10.6-331.9,11-358.2c-14.5-2.4-29.4-3.8-44.9-4
	C860.5,1433.5,860.5,1433.6,860.5,1433.7z M1124,1638.7c-6.2-52-19.6-93.7-33.2-124.8c-7.4-5.9-15.2-11.1-23.6-15.4
	c-18-9.2-35.2-17.7-52-25.4c0.7,1.1,1.4,2.1,2.2,3.1c0.5,0.6,49,58.8,61.9,167.7c10.3,87.1,14.8,135.1,16.3,153.8
	c15-1.7,29.8-3.8,44.6-6.3C1138.6,1770.8,1134.1,1723.3,1124,1638.7z"/>
</svg>
