<?xml version="1.0" encoding="utf-8"?>
<!-- Generator: Adobe Illustrator 27.0.1, SVG Export Plug-In . SVG Version: 6.00 Build 0)  -->
<svg version="1.1" id="Layer_1" xmlns="http://www.w3.org/2000/svg" xmlns:xlink="http://www.w3.org/1999/xlink" x="0px" y="0px"
	 viewBox="0 0 2000 2000" style="enable-background:new 0 0 2000 2000;" xml:space="preserve">
<style type="text/css">
	.st0{fill:#F0B7D4;}
	.st1{fill:#FFFFFF;}
</style>
<path class="st0" d="M553.7,1665.1c46.3,31.4,95.8,57.9,148.1,79.1c96.2,39,197.8,58.8,302.1,58.8c66.5,0,132-8.1,195.7-24
	c-4.8-44.4-30.4-228.4-132.4-280.4c-116.3-59.3-200.5-92.6-358.2-36.4C565.7,1513.3,561,1566.8,553.7,1665.1z"/>
<g>
	<path class="st1" d="M1180.1,1675.4c-64.1,22.8-129.5,34.5-195.4,34.8c-80.2,0.4-161.7-15.9-242-48.5
		c-73.2-29.7-132.4-67.7-171.9-97c-6.2,15-9.8,31.3-12.3,49.3c40.8,28.8,96.8,62.8,164.8,90.6c85.6,34.9,172.5,52.6,258.5,52.6
		c0.6,0,1.3,0,1.9,0c69.9-0.2,139.2-12.2,207-35.8C1188,1707.2,1184.5,1691.6,1180.1,1675.4z"/>
	<path class="st1" d="M815.1,1531.6c58.7,18.1,113.3,25.6,162.4,22.1c44.2-3.1,83.9-15,118.5-35.4c-8.9-7.8-18.5-14.5-28.9-19.8
		c-6.1-3.1-12.1-6.2-18.1-9.1c-22.6,9.6-47.4,15.4-74.3,17.4c-43.1,3.1-91.9-3.6-144.8-19.8c-33.2-10.2-63.9-22.9-89.7-35.1
		c-10.1,3-20.5,6.4-31.2,10.2c-10.7,3.8-20.7,7.7-29.9,11.5C711.2,1491.1,759.5,1514.5,815.1,1531.6z"/>
	<path class="st1" d="M1107.4,1629.5c19.9-6.9,36.4-14.3,49.6-21.1c-6.3-14.5-13.4-28.6-21.5-41.8c-3.4,1.8-7.1,3.6-11,5.4
		c-25.3,11.8-67.1,27-122.4,32.5c-58.4,5.8-119.4-0.4-181.3-18.3c-62.2-18-125.3-47.9-188.2-89.2c-16.1,9.8-28.6,20-38.5,30.8
		C830,1688.1,1015.6,1661.2,1107.4,1629.5z"/>
</g>
</svg>
