<?xml version="1.0" encoding="utf-8"?>
<!-- Generator: Adobe Illustrator 27.0.1, SVG Export Plug-In . SVG Version: 6.00 Build 0)  -->
<svg version="1.1" id="Layer_1" xmlns="http://www.w3.org/2000/svg" xmlns:xlink="http://www.w3.org/1999/xlink" x="0px" y="0px"
	 viewBox="0 0 2000 2000" style="enable-background:new 0 0 2000 2000;" xml:space="preserve">
<style type="text/css">
	.st0{fill:none;stroke:#FFFFFF;stroke-width:34.9999;stroke-miterlimit:10;}
	.st1{fill:#FFFFFF;}
</style>
<ellipse transform="matrix(0.9621 -0.2728 0.2728 0.9621 -61.3924 241.9847)" class="st0" cx="839.5" cy="341.8" rx="186.8" ry="59.5"/>
<path class="st1" d="M767.3,1488c-25.9-62.1-105.4-109.1-105.4-109.1s-117.8,92-156.6,57.4c-38.8-34.7,82.7-129.5,82.7-129.5
	s-156.5,98.6-182.9,53c-29.3-50.5,127.8-128.1,127.8-128.1s-187.6,90.5-205.4,31.4s133.5-134,245.7-102.5
	c143.8,40.4,232.9,279.3,232.9,279.3S771.9,1484.9,767.3,1488z"/>
<path class="st1" d="M1103.8,1565.6c0,0,105.7-249.4,249.6-289.9c112.2-31.5,263.4,43.3,245.7,102.5
	c-17.7,59.2-178.3-23.7-178.3-23.7s130.4,82.9,100.7,120.4c-35,44.1-158.9-42.5-158.9-42.5s97.5,84.3,58.7,118.9
	c-38.8,34.7-171.4-72.7-171.4-72.7s-81.3,58.2-107.2,120.2L1103.8,1565.6z"/>
</svg>
