<?xml version="1.0" encoding="utf-8"?>
<!-- Generator: Adobe Illustrator 27.0.1, SVG Export Plug-In . SVG Version: 6.00 Build 0)  -->
<svg version="1.1" id="Layer_1" xmlns="http://www.w3.org/2000/svg" xmlns:xlink="http://www.w3.org/1999/xlink" x="0px" y="0px"
	 viewBox="0 0 2000 2000" style="enable-background:new 0 0 2000 2000;" xml:space="preserve">
<style type="text/css">
	.st0{fill:none;stroke:#FFFFFF;stroke-width:35;stroke-linecap:round;stroke-linejoin:round;stroke-miterlimit:10;}
</style>
<polygon class="st0" points="292.6,961.1 292.6,1081 396.4,1140.9 500.3,1081 500.3,961.1 396.4,901.1 "/>
<polyline class="st0" points="447.7,1617.3 500.3,1586.9 500.3,1467 396.4,1407.1 316.2,1453.4 "/>
<polyline class="st0" points="275.4,1380.5 350,1337.2 350,1217.3 246.2,1157.4 194,1187.5 "/>
<polygon class="st0" points="440.5,1217.3 440.5,1337.2 544.4,1397.2 648.2,1337.2 648.2,1217.3 544.4,1157.4 "/>
<polygon class="st0" points="1410.5,1112.8 1410.5,1232.7 1514.3,1292.7 1618.2,1232.7 1618.2,1112.8 1514.3,1052.9 "/>
<polygon class="st0" points="1260.2,1369.1 1260.2,1489 1364,1548.9 1467.9,1489 1467.9,1369.1 1364,1309.1 "/>
<polyline class="st0" points="1734.5,1350.8 1662.2,1309.1 1558.4,1369.1 1558.4,1489 1618.2,1523.5 "/>
</svg>
