<?xml version="1.0" encoding="utf-8"?>
<!-- Generator: Adobe Illustrator 27.0.1, SVG Export Plug-In . SVG Version: 6.00 Build 0)  -->
<svg version="1.1" id="Layer_1" xmlns="http://www.w3.org/2000/svg" xmlns:xlink="http://www.w3.org/1999/xlink" x="0px" y="0px"
	 viewBox="0 0 2000 2000" style="enable-background:new 0 0 2000 2000;" xml:space="preserve">
<style type="text/css">
	.st0{fill:#FFFFFF;}
</style>
<circle class="st0" cx="1372.2" cy="1371.6" r="46.5"/>
<circle class="st0" cx="458.5" cy="1198.6" r="42.3"/>
<circle class="st0" cx="1327.4" cy="1507.5" r="22.4"/>
<circle class="st0" cx="594.9" cy="1227.8" r="21.1"/>
<circle class="st0" cx="1507.2" cy="1379.9" r="26.7"/>
<path class="st0" d="M1506.1,1145.3c-39.2,0-70.9,31.7-70.9,70.9s31.7,70.9,70.9,70.9c39.2,0,70.9-31.7,70.9-70.9
	S1545.2,1145.3,1506.1,1145.3z"/>
<path class="st0" d="M522.6,1295.1c-35.2,0-63.9,28.5-63.9,63.8c0,35.2,28.5,63.9,63.9,63.9s63.9-28.5,63.9-63.9
	C586.5,1323.6,558,1295.1,522.6,1295.1z"/>
</svg>
