<svg xmlns="http://www.w3.org/2000/svg" viewBox="0 0 2000 2000" fill="#fff" stroke="#fff" stroke-width="31" stroke-linejoin="round" stroke-miterlimit="10" xmlns:v="https://vecta.io/nano"><path d="M1550.5 1169.6h0c13.1 0 23.8 10.7 23.8 23.8v228c0 13.1-10.7 23.8-23.8 23.8h0c-13.1 0-23.8-10.7-23.8-23.8v-228c.1-13.1 10.7-23.8 23.8-23.8zm-133.8 133.9h-31.8c-13.1 0-23.8-10.7-23.8-23.8v-50.2c0-13.1 10.7-23.8 23.8-23.8h31.8c13.1 0 23.8 10.7 23.8 23.8v50.2c0 13.1-10.7 23.8-23.8 23.8zm300.2-79.4H1685c-13.1 0-23.8-10.7-23.8-23.8v-91.4c0-13.1 10.7-23.8 23.8-23.8h31.8c13.1 0 23.8 10.7 23.8 23.8v91.4c.1 13.2-10.6 23.8-23.7 23.8h0zm-44.7 193.2h12.8c-13.1 0-23.8-10.7-23.8-23.8v-60c0-13.1 10.7-23.8 23.8-23.8h22.4c13.1 0 23.8 10.7 23.8 23.8l-35.2 60c0 13.1-10.6 23.8-23.8 23.8zm-231.7-5.4v9.9c0 13.1-10.7 23.8-23.8 23.8h-129.5c-13.1 0-23.8-10.7-23.8-23.8v-9.9c0-13.1 10.7-23.8 23.8-23.8h129.5c13.1 0 23.8 10.7 23.8 23.8zm-1190-242.3h0c13.1 0 23.8 10.7 23.8 23.8v182.4c0 13.1-47.6-114.7-47.6-127.8v-54.6c0-13.1 10.7-23.8 23.8-23.8h0zm310.1 279.6h-12.3c-13.1 0-23.8-10.7-23.8-23.8v-30.7c0-13.1 10.7-23.8 23.8-23.8h12.3c13.1 0 23.8 10.7 23.8 23.8v30.7c0 13.1-10.7 23.8-23.8 23.8zM414 1176.5h-31.8c-13.1 0-23.8-10.7-23.8-23.8v-37.4c0-13.1 10.7-23.8 23.8-23.8H414c13.1 0 23.8 10.7 23.8 23.8v37.4c0 13.1-10.6 23.8-23.7 23.8h-.1zm0 268.7h-31.8c-13.1 0-23.8-10.7-23.8-23.8v-135.2c0-13.1 10.7-23.8 23.8-23.8H414c13.1 0 23.8 10.7 23.8 23.8v135.2c0 13.1-10.6 23.8-23.8 23.8zm236.3-193v9.9c0 13.1-10.7 23.8-23.8 23.8h-79.1c-13.1 0-23.8-10.7-23.8-23.8v-9.9c0-13.1 10.7-23.8 23.8-23.8h79.1c13.2 0 23.8 10.7 23.8 23.8z"/></svg>