<svg xmlns="http://www.w3.org/2000/svg" xmlns:xlink="http://www.w3.org/1999/xlink" viewBox="0 0 2000 2000" xmlns:v="https://vecta.io/nano"><use xlink:href="#B" fill="#fff"/><use xlink:href="#B" fill="none" stroke="#fff" stroke-width="10" stroke-linejoin="round" stroke-miterlimit="10"/><defs ><path id="B" d="M1351.4 1470.3s39.9-6.2 45.4-4.7-56.4-101.6-56.4-101.6l-61.9 98.4 34.4 7.8-78.4 143.8 63.3-10.9-41.3 68.8 38.5 1.6-37.6 76.1c54.6-21.2 106.3-48.4 154.3-80.9l-32.7-60.8 63.3 17.2-90.9-154.8zm306.3-68.5l-62.4-100.7 39.1-7.8-70.3-98.4s-70.3 103.1-64.1 101.6 51.6 4.7 51.6 4.7l-103.1 154.7 71.9-17.2-51.6 84.4 42.2-4.7-64.1 121.9 6.7-2.1c66.5-51.7 124.7-114.1 172.2-184.6l-13.3-19.5 23.7 3.6c7.5-11.9 14.6-23.8 21.5-35.9zM516.8 1551.4l-64.1-121.9 42.2 4.7-51.6-84.4 71.9 17.2-103.1-154.7s45.3-6.2 51.6-4.7-64.1-101.6-64.1-101.6l-70.3 98.4 39.1 7.8-89.1 143.8 71.9-10.9-44 64.5 2.6 4.4 38.3 1.4-16.5 33.3c56.5 85.2 128.5 158.6 211.8 216.1l11 2.2-111-139 73.4 23.4zm148.4-170.7l43.9.7-63.5-99.6-61.9 99.7 47 .9-70.5 89.6 59.3 3.6s-72.2 73.7-65.9 72.7c6.4-1 77.7 8.3 77.7 8.3l87.7 1.3-44.2-69.7 75.5 15.9-85.1-123.4z"/></defs></svg>