<svg xmlns="http://www.w3.org/2000/svg" viewBox="0 0 2000 2000" fill="#fff" xmlns:v="https://vecta.io/nano"><circle cx="1406.8" cy="1214.6" r="25"/><circle cx="1554.2" cy="1214.6" r="25"/><circle cx="1683.3" cy="1214.6" r="25"/><circle cx="524.2" cy="1214.6" r="25"/><circle cx="452" cy="1288.1" r="29.7"/><circle cx="301.8" cy="1288.1" r="29.7"/><circle cx="600.4" cy="1288.1" r="29.7"/><circle cx="744.3" cy="1288.1" r="29.7"/><circle cx="1336" cy="1288.1" r="29.7"/><circle cx="1484.2" cy="1288.1" r="29.7"/><circle cx="1623.7" cy="1288.1" r="29.7"/><circle cx="1405.8" cy="1362.5" r="34.9"/><circle cx="1555.1" cy="1362.5" r="34.9"/><circle cx="1261.9" cy="1362.5" r="34.9"/><circle cx="677.8" cy="1362.5" r="34.9"/><circle cx="527.4" cy="1362.5" r="34.9"/><circle cx="452.2" cy="1436.6" r="39.8"/><path d="M500.4 1589.4c0 26-7.7 42.3-33.7 42.3s-47.1-21.1-47.1-47.1 7.7-42.3 33.7-42.3 47.1 21.1 47.1 47.1z"/><circle cx="1336" cy="1589.4" r="47.1"/><circle cx="1483.1" cy="1589.4" r="47.1"/><circle cx="1407.9" cy="1674.4" r="54.8"/><path d="M1315.6 1674.4c0 30.2-24.5 54.8-54.8 54.8s-25.4-30.2-25.4-60.4-4.8-49.1 25.4-49.1 54.8 24.5 54.8 54.7zM346 1436.6c0 22-5.3 23.8-27.2 23.8s-39.8-17.8-39.8-39.8 5.3-23.8 27.2-23.8 39.8 17.8 39.8 39.8z"/><circle cx="597.2" cy="1436.6" r="39.8"/><circle cx="1186.7" cy="1436.6" r="39.8"/><circle cx="1333.8" cy="1436.6" r="39.8"/><circle cx="1483.1" cy="1436.6" r="39.8"/><circle cx="1621.5" cy="1436.6" r="39.8"/><circle cx="1405.8" cy="1516.4" r="42.8"/><circle cx="1259.7" cy="1516.4" r="42.8"/><circle cx="524.2" cy="1516.4" r="42.8"/><path d="M417.6 1516.4c0 23.6-6.5 25.3-30.1 25.3s-42.8-19.2-42.8-42.8 6.5-25.3 30.1-25.3c23.7 0 42.8 19.2 42.8 42.8z"/><circle cx="1554" cy="1516.4" r="42.8"/><circle cx="379.2" cy="1362.5" r="34.9"/><circle cx="674.5" cy="1214.6" r="25"/><circle cx="376" cy="1214.6" r="25"/></svg>