<svg xmlns="http://www.w3.org/2000/svg" viewBox="0 0 2000 2000" fill="#fff" stroke="#fff" stroke-width="22" stroke-linejoin="round" stroke-miterlimit="10" xmlns:v="https://vecta.io/nano"><path d="M1404.4 1350.6s64.1-60.3-12.9-122.6c-.1 0-66.5 68.7 12.9 122.6zm142.4-227.1s44.2-21.8 13.2-67.8c0 0-46.8 25.9-13.2 67.8zm-221.1 333.3s51.2-90.1-57.1-133.5c0 0-50.9 100.4 57.1 133.5zm156.5-239.5s39.6-53.8-26.5-89.8c.1 0-40.1 60.4 26.5 89.8zm62.9 215.1s-55.2-72.8-128 0c0 0 63.7 76.1 128 0zm62.5-260.6s-53.9-10.8-57.7 51.1c0-.1 59.1 8.8 57.7-51.1zm-313.2 370.6s54.6 102.8 161 26c0 0-64.7-108.6-161-26zm205.2-213.7s73.3 51.2 119.2-38.5c0 .1-82.1-51.7-119.2 38.5zm-889.2 30.2s-78.6-73.8 15.9-150.2c0 0 81.4 84.2-15.9 150.2zm-161-233.3s-44.2-21.8-13.2-67.8c0 0 46.9 25.9 13.2 67.8zm58.3 100s-39.6-53.8 26.5-89.8c0 .1 40.2 60.5-26.5 89.8zM449 1436.5s62.4-82.3 144.7 0c.1 0-72 86-144.7 0zm-70.8-271s53.9-10.8 57.7 51.1c0 0-59.1 8.9-57.7-51.1zm113.4 163.2s-72.8 50.9-118.4-38.2c-.1 0 81.6-51.4 118.4 38.2z"/></svg>