<?xml version="1.0" encoding="utf-8"?>
<!-- Generator: Adobe Illustrator 27.1.1, SVG Export Plug-In . SVG Version: 6.00 Build 0)  -->
<svg version="1.1" id="Layer_1" xmlns:v="https://vecta.io/nano"
	 xmlns="http://www.w3.org/2000/svg" xmlns:xlink="http://www.w3.org/1999/xlink" x="0px" y="0px" viewBox="0 0 2000 2000"
	 style="enable-background:new 0 0 2000 2000;" xml:space="preserve">
<style type="text/css">
	.st0{fill:none;stroke:#FFFFFF;stroke-width:34;stroke-linejoin:round;stroke-miterlimit:10;}
	.st1{fill:none;stroke:#FFFFFF;stroke-width:34;stroke-linecap:round;stroke-linejoin:round;stroke-miterlimit:10;}
	.st2{fill:#FFFFFF;}
</style>
<g>
	<polygon class="st0" points="1631.7,1033.7 1466.2,1246.2 1797.2,1246.2 	"/>
	<polygon class="st0" points="1466.2,1671.3 1631.7,1458.8 1300.7,1458.8 	"/>
	<path class="st1" d="M1299.2,1458.6"/>
	<polyline class="st0" points="1233.3,1670.1 1466.2,1670.1 1300.7,1457.6 1210.6,1573.3 	"/>
	<polygon class="st0" points="1631.7,1458.7 1797.2,1246.2 1466.2,1246.2 	"/>
	<polyline class="st0" points="1246,1246.2 1466.2,1246.2 1344.5,1089.9 	"/>
	<polyline class="st0" points="1178.4,1301.6 1300.7,1458.7 1466.2,1246.2 	"/>
	<line class="st0" x1="1466.2" y1="1669.8" x2="1233.3" y2="1669.8"/>
</g>
<g>
	<polygon class="st0" points="655.5,1033.7 489.9,1246.2 821,1246.2 	"/>
	<polyline class="st0" points="503.1,1654.4 655.5,1458.8 324.4,1458.8 	"/>
	<polygon class="st0" points="655.5,1458.7 821,1246.2 489.9,1246.2 	"/>
	<polyline class="st0" points="489.9,1246.2 324.4,1033.7 196.2,1198.4 	"/>
	<polyline class="st0" points="324.4,1458.7 489.9,1246.2 217.7,1246.2 	"/>
</g>
<path class="st2" d="M1136.5,1466.4l43.8-12.8v-11.7c0,0-76.5,0.2-76.3,0"/>
<line class="st1" x1="1300.7" y1="1458.7" x2="1141.7" y2="1458.7"/>
</svg>
