<?xml version="1.0" encoding="utf-8"?>
<!-- Generator: Adobe Illustrator 27.1.1, SVG Export Plug-In . SVG Version: 6.00 Build 0)  -->
<svg version="1.1" id="Layer_1" xmlns="http://www.w3.org/2000/svg" xmlns:xlink="http://www.w3.org/1999/xlink" x="0px" y="0px"
	 viewBox="0 0 2000 2000" style="enable-background:new 0 0 2000 2000;" xml:space="preserve">
<style type="text/css">
	.st0{fill:#FFFFFF;stroke:#FFFFFF;stroke-width:20;stroke-linejoin:round;stroke-miterlimit:10;}
</style>
<g>
	<path class="st0" d="M1451.3,1349.7c0,0-47.2,11.4-55.1,71.5c-0.1,1.5-3-71.4-73.8-106.9c1.4,1.2,47.2,47.3,75,193.8
		C1401.5,1504,1426.9,1374.4,1451.3,1349.7z"/>
	<path class="st0" d="M503.8,1279.9c0,0,48.1,11.6,56.1,72.8c0.1,1.5-11.6-73,75-119.6c-1.4,1.2-44.1,40.9-72.5,189.9
		C558.3,1418.8,528.8,1305,503.8,1279.9z"/>
	<path class="st0" d="M1488.3,1170.5c0,0-32.8,3.9-41.1,50.4c-0.1,1.1,23-21.9-41.5-60.7c1,1,12.1,8.9,37.8,86.2
		C1446.8,1243.3,1468.3,1188.8,1488.3,1170.5z"/>
	<path class="st0" d="M430.2,1212.6c0,0-35.5,9.7-37,62.2c0,1.3,10.4-38-67.1-70c1.3,0.9,34.6,33.5,67.9,141.8
		C397.1,1342.6,411.2,1236.1,430.2,1212.6z"/>
	<path class="st0" d="M1610.5,1270.1c0,0-37.4,3.9-45.7,50.4c-0.1,1.1,18.9-18.4-45.7-57.2c1,1,15.9,28.4,41.5,121
		C1564,1381.2,1590.6,1288.4,1610.5,1270.1z"/>
	<path class="st0" d="M542.7,1096.1c0,0-32.5,2.3-39,37c-0.1,0.9,16.2-13.5-40.7-43.6c0.9,0.8,14.1,10.7,37.9,80.5
		C503.7,1167.8,525.6,1109.5,542.7,1096.1z"/>
</g>
</svg>
