<?xml version="1.0" encoding="utf-8"?>
<!-- Generator: Adobe Illustrator 27.1.1, SVG Export Plug-In . SVG Version: 6.00 Build 0)  -->
<svg version="1.1" id="Layer_1" xmlns="http://www.w3.org/2000/svg" xmlns:xlink="http://www.w3.org/1999/xlink" x="0px" y="0px"
	 viewBox="0 0 2000 2000" style="enable-background:new 0 0 2000 2000;" xml:space="preserve">
<style type="text/css">
	.st0{fill:none;stroke:#232256;stroke-width:47.1192;stroke-linecap:round;stroke-linejoin:round;stroke-miterlimit:10;}
	.st1{fill:none;stroke:#FFFFFF;stroke-width:35;stroke-linecap:round;stroke-linejoin:round;stroke-miterlimit:10;}
	.st2{fill:#FFFFFF;stroke:#FFFFFF;stroke-width:6;stroke-miterlimit:10;}
</style>
<g>
	<path class="st0" d="M1545.9,1543"/>
	<path class="st0" d="M1551.8,1537.2"/>
	<path class="st0" d="M1612.1,1627"/>
	<path class="st1" d="M481.9,1385.2c0,0,16.2-32.5-8.1-92l92,5.4c0,0,8.1-16.2,2.7-67.6"/>
	<circle class="st1" cx="354.7" cy="1135.2" r="36.5"/>
	<circle class="st1" cx="1544.2" cy="1328.9" r="36.5"/>
	<path class="st1" d="M451.9,1007.3c0,0,26.4-14.9,41.7,64.5s79.8,37.8,79.8,37.8"/>
	<path class="st1" d="M1264.6,1395.6c8.9-8.9,32.5-50.2,32.5-50.2l73.8,50.2l41.3-70.8"/>
	<circle class="st2" cx="667.6" cy="1232.4" r="19.4"/>
	<circle class="st2" cx="378.7" cy="1302.5" r="19.4"/>
	<circle class="st2" cx="359.9" cy="995" r="19.4"/>
	<circle class="st2" cx="1421" cy="1208.1" r="19.4"/>
	<circle class="st2" cx="1657.1" cy="1071.9" r="19.4"/>
	<circle class="st2" cx="1449.7" cy="1471.8" r="19.4"/>
	<circle class="st2" cx="543.2" cy="1453.9" r="19.4"/>
	<path class="st1" d="M1499.7,1078.1c2.2,11.4-0.1,79.5,32.8,88.3s71.5-22.2,81.6-7.8c10.1,14.4,23.2,75.6,23.2,75.6"/>
	<path class="st1" d="M1330.8,1533.1c0,0,18.8,41.7,68.8,39.6"/>
</g>
</svg>
