<svg xmlns="http://www.w3.org/2000/svg" xmlns:xlink="http://www.w3.org/1999/xlink" viewBox="0 0 2000 2000" xmlns:v="https://vecta.io/nano"><style><![CDATA[.E{stroke:#fff}.F{stroke-linejoin:round}.G{stroke-width:22}.H{stroke-miterlimit:10}]]></style><use xlink:href="#B" fill="#fff"/><use xlink:href="#B" fill="none" class="E F G H"/><use xlink:href="#C" fill="#fff"/><g fill="none" class="E F H"><use xlink:href="#C" class="G"/><path d="M1570.1 1232.6c51.5-13.4 87.4-16.3 91.7-5.4 7.1 18.1-74.8 67.1-182.9 109.6s-201.5 62.3-208.6 44.2c-5.7-14.6 46.9-49.6 124.7-85" stroke-width="32" stroke-linecap="round"/></g><g fill="#fff" class="G E F"><circle cx="491.8" cy="1047.5" r="30.3"/><circle cx="1374.5" cy="1541.2" r="30.3"/><circle cx="1475.8" cy="1060.6" r="15.7"/><circle cx="452.5" cy="1416.3" r="15.7"/><circle cx="344.6" cy="958.6" r="15.7"/></g><defs ><path id="B" d="M359 1260c4 .5 25.2-10.3 54.8-14.2 29.5-4.5 67.4-2.2 102 10.3 34.8 12 66.3 34.2 86.7 56.4 20.8 21.6 30.4 43.1 31.2 41.3-1.4 1.4-7-21.8-24.2-48.9-16.7-27.4-45.1-58.7-80-80.1-34.5-21.9-75.6-33.9-109.8-35.5-34.1-2.3-61.5 5.8-65.7 5.6-20.9 5.9-34.9 27.5-31.3 44.6 3.5 17.3 19.8 25.2 36.3 20.5z"/><path id="C" d="M1522 1362.2c-50.3 0-91.1-40.8-91.1-91.1 0-23.6 9-45.1 23.7-61.3-44.9 5.6-79.7 43.9-79.7 90.4 0 50.3 40.8 91.1 91.1 91.1 26.7 0 50.7-11.5 67.4-29.8-3.7.5-7.5.7-11.4.7z"/></defs></svg>