<svg xmlns="http://www.w3.org/2000/svg" viewBox="0 0 2000 2000" xmlns:v="https://vecta.io/nano"><path d="M488.9 1232.5c58.5 4.8 110.3 42.5 146.8 82.4 24.5-50.6-41.1-119.6-95.4-122.7 38.7-13.5 83-3.8 118.6-.3-4.2-34.2-52.3-55-87.3-57.3-26.6-1.5-53.4 6.5-74.1 22-2.2-21.1-21.8-49.3-48.5-50.7-2-.7-32 37.3-21 63.2-24.9-7.5-53-5.8-77.6 4.9-27.7 9.6-79.4 61.3-59.1 84.5 30.3-21.4 69.2-38.5 108.5-41.3-50.1 22.1-86.7 107.3-47.8 148.3 21.6-48.2 55.1-102.2 107.6-127.3-40.1 127.2 12.9 439.4 248.2 524 .3-.1-263.7-251.3-218.9-529.7zm0 0c58.5 4.8 110.3 42.5 146.8 82.4 24.5-50.6-41.1-119.6-95.4-122.7 38.7-13.5 83-3.8 118.6-.3-4.2-34.2-52.3-55-87.3-57.3-26.6-1.5-53.4 6.5-74.1 22-2.2-21.1-21.8-49.3-48.5-50.7-2-.7-32 37.3-21 63.2-24.9-7.5-53-5.8-77.6 4.9-27.7 9.6-79.4 61.3-59.1 84.5 30.3-21.4 69.2-38.5 108.5-41.3-50.1 22.1-86.7 107.3-47.8 148.3 21.6-48.2 55.1-102.2 107.6-127.3-40.1 127.2 12.9 439.4 248.2 524 .3-.1-263.7-251.3-218.9-529.7zM1598.8 1337c-15-50.2-82.4-76.3-129.4-52.8 4.4-25.3-22.7-55.3-30.3-50.4-19.8 14.1-29.8 28.2-29.3 48.1-19.2-10.4-42.5-13.9-64.6-9.4-27.7 5.6-71 31.7-64.7 59.2 29.3-10.9 64.4-20 97.9-14.8-46.8 11.2-81.8 64.2-69.9 110.4 7.2 11.4 12.1-6.4 17.4-12.9 22.1-32.4 59.6-58.4 98-69.6 64.9 172.2-160.3 392.1-160.3 392.1 193.1-3.6 209-360.5 187.7-391.3 45.5 15.2 82.3 52.9 103.7 93 32.2-33.6-12.4-106.9-56.1-117.8 26.1-1.3 55.5 3.3 78.3 13.4 7.9 2.3 19.7 14.8 21.6 2.8zm0 0c-15-50.2-82.4-76.3-129.4-52.8 4.4-25.3-22.7-55.3-30.3-50.4-19.8 14.1-29.8 28.2-29.3 48.1-19.2-10.4-42.5-13.9-64.6-9.4-27.7 5.6-71 31.7-64.7 59.2 29.3-10.9 64.4-20 97.9-14.8-46.8 11.2-81.8 64.2-69.9 110.4 7.2 11.4 12.1-6.4 17.4-12.9 22.1-32.4 59.6-58.4 98-69.6 64.9 172.2-160.3 392.1-160.3 392.1 193.1-3.6 209-360.5 187.7-391.3 45.5 15.2 82.3 52.9 103.7 93 32.2-33.6-12.4-106.9-56.1-117.8 26.1-1.3 55.5 3.3 78.3 13.4 7.9 2.3 19.7 14.8 21.6 2.8z" fill="#fff"/></svg>