<?xml version="1.0" encoding="utf-8"?>
<!-- Generator: Adobe Illustrator 27.0.1, SVG Export Plug-In . SVG Version: 6.00 Build 0)  -->
<svg version="1.1" id="Layer_1" xmlns="http://www.w3.org/2000/svg" xmlns:xlink="http://www.w3.org/1999/xlink" x="0px" y="0px"
	 viewBox="0 0 2000 2000" style="enable-background:new 0 0 2000 2000;" xml:space="preserve">
<style type="text/css">
	.st0{fill:#FFFFFF;stroke:#FFFFFF;stroke-width:19;stroke-linejoin:round;stroke-miterlimit:10;}
	.st1{fill:#FFFFFF;stroke:#FFFFFF;stroke-width:12;stroke-linejoin:round;stroke-miterlimit:10;}
</style>
<polygon class="st0" points="504.2,1115.8 520.7,1166.7 574.2,1166.7 530.9,1198.2 547.5,1249.1 504.2,1217.6 460.9,1249.1 
	477.4,1198.2 434.1,1166.7 487.6,1166.7 "/>
<polygon class="st0" points="1414.5,1330.4 1432.1,1384.4 1488.8,1384.4 1442.9,1417.7 1460.4,1471.7 1414.5,1438.3 1368.6,1471.7 
	1386.2,1417.7 1340.2,1384.4 1397,1384.4 "/>
<polygon class="st0" points="1613.2,1086.4 1623.6,1118.6 1657.4,1118.6 1630.1,1138.5 1640.5,1170.7 1613.2,1150.8 1585.8,1170.7 
	1596.2,1138.5 1568.9,1118.6 1602.7,1118.6 "/>
<ellipse transform="matrix(0.1602 -0.9871 0.9871 0.1602 -942.6751 1666.6183)" class="st1" cx="508.1" cy="1387.3" rx="22.5" ry="22.5"/>
<circle class="st1" cx="313.4" cy="1081.7" r="16.7"/>
<circle class="st1" cx="1585.5" cy="1340.8" r="16.7"/>
<circle class="st1" cx="1448.3" cy="1180.7" r="22.5"/>
</svg>
