<svg xmlns="http://www.w3.org/2000/svg" viewBox="0 0 2000 2000" fill="#fff" xmlns:v="https://vecta.io/nano"><path d="M464.9 1257.9c23.8 24.4 49.2 51.9 54.2 86.9 4 29.3-18 58.1-47.4 61.4-32.9 5.3-64.4-23-62.7-56.3 2-37.5 29.4-67.9 55.9-92zM1507 1113c23.8 24.4 49.2 51.9 54.2 86.9 4 29.3-18 58.1-47.4 61.4-32.9 5.3-64.4-23-62.7-56.3 2-37.5 29.4-67.8 55.9-92zm-932.5 48.1c15.4 15.8 31.8 33.5 35 56.1 2.6 18.9-11.6 37.6-30.6 39.7-21.3 3.4-41.6-14.9-40.6-36.4 1.3-24.2 19-43.8 36.2-59.4zm801 100.9c13.5 13.8 27.9 29.4 30.7 49.2 2.3 16.6-10.2 32.9-26.9 34.8-18.6 3-36.5-13-35.5-31.9 1.2-21.3 16.7-38.4 31.7-52.1zm146.9 80.4c13.5 13.8 27.9 29.4 30.7 49.2 2.3 16.6-10.2 32.9-26.9 34.8-18.6 3-36.5-13-35.5-31.9 1.1-21.2 16.6-38.4 31.7-52.1zM388.8 1106.3c13.4 13.8 27.7 29.3 30.5 49 2.3 16.5-10.1 32.8-26.7 34.7-18.5 3-36.3-13-35.4-31.7 1.2-21.3 16.7-38.4 31.6-52zm974 313.3c20.3 20.9 42 44.3 46.3 74.2 3.4 25-15.4 49.7-40.5 52.5-28.1 4.5-55.1-19.7-53.6-48.1 1.7-32 25.1-57.9 47.8-78.6z"/></svg>