<?xml version="1.0" encoding="utf-8"?>
<!-- Generator: Adobe Illustrator 27.0.1, SVG Export Plug-In . SVG Version: 6.00 Build 0)  -->
<svg version="1.1" id="Layer_1" xmlns="http://www.w3.org/2000/svg" xmlns:xlink="http://www.w3.org/1999/xlink" x="0px" y="0px"
	 viewBox="0 0 2000 2000" style="enable-background:new 0 0 2000 2000;" xml:space="preserve">
<style type="text/css">
	.st0{fill:#FFFFFF;}
</style>
<path class="st0" d="M1580.3,1272.4h-133.7c-11.2,0-20.4-9.2-20.4-20.4v-67.8c0-11.2,9.2-20.4,20.4-20.4h133.7
	c11.2,0,20.4,9.2,20.4,20.4v67.8C1600.7,1263.2,1591.5,1272.4,1580.3,1272.4z"/>
<path class="st0" d="M1469.5,1429.9h-133.7c-11.2,0-20.4-9.2-20.4-20.4v-67.8c0-11.2,9.2-20.4,20.4-20.4h133.7
	c11.2,0,20.4,9.2,20.4,20.4v67.8C1489.9,1420.8,1480.7,1429.9,1469.5,1429.9z"/>
<path class="st0" d="M1694.7,1429.9H1561c-11.2,0-20.4-9.2-20.4-20.4v-67.8c0-11.2,9.2-20.4,20.4-20.4h133.7
	c11.2,0,20.4,9.2,20.4,20.4v67.8C1715.1,1420.8,1705.9,1429.9,1694.7,1429.9z"/>
<path class="st0" d="M333.2,1321.3h133.7c11.2,0,20.4,9.2,20.4,20.4v67.8c0,11.2-9.2,20.4-20.4,20.4H333.2
	c-11.2,0-20.4-9.2-20.4-20.4v-67.8C312.8,1330.6,322,1321.3,333.2,1321.3z"/>
<path class="st0" d="M333.2,1009.5h133.7c11.2,0,20.4,9.2,20.4,20.4v67.8c0,11.2-9.2,20.4-20.4,20.4H333.2
	c-11.2,0-20.4-9.2-20.4-20.4v-67.8C312.8,1018.7,322,1009.5,333.2,1009.5z"/>
<path class="st0" d="M446.6,1164.4h133.7c11.2,0,20.4,9.2,20.4,20.4v67.8c0,11.2-9.2,20.4-20.4,20.4H446.6
	c-11.2,0-20.4-9.2-20.4-20.4v-67.8C426.2,1173.5,435.3,1164.4,446.6,1164.4z"/>
<path class="st0" d="M220,1164.4h133.7c11.2,0,20.4,9.2,20.4,20.4v67.8c0,11.2-9.2,20.4-20.4,20.4H237.5c-11.2,0-20.4-9.2-20.4-20.4
	l-17.5-67.8C199.7,1173.5,208.8,1164.4,220,1164.4z"/>
<path class="st0" d="M1540.6,1586.8h-95.4c-11.2,0-20.4-9.2-20.4-20.4v-67.8c0-11.2,9.2-20.4,20.4-20.4h133.7
	c11.2,0,20.4,9.2,20.4,20.4l-38.3,67.8C1561.1,1577.6,1551.9,1586.8,1540.6,1586.8z"/>
</svg>
