<?xml version="1.0" encoding="utf-8"?>
<!-- Generator: Adobe Illustrator 27.0.1, SVG Export Plug-In . SVG Version: 6.00 Build 0)  -->
<svg version="1.1" id="Layer_1" xmlns="http://www.w3.org/2000/svg" xmlns:xlink="http://www.w3.org/1999/xlink" x="0px" y="0px"
	 viewBox="0 0 2000 2000" style="enable-background:new 0 0 2000 2000;" xml:space="preserve">
<style type="text/css">
	.st0{fill:#FFFFFF;}
</style>
<path class="st0" d="M1758.1,1132.1c4,0-13.4,161.8-13.4,161.8h-342.5c0,0,41.5-91.8,124.5-68.7c0,2.1,11.2-71.5,110.5-53.5
	c-5.6,1,37.1-105.2,121.6-96.3C1843.2,1084.4,1758.1,1132.1,1758.1,1132.1z"/>
<path class="st0" d="M627,1358.4c2.7,6.2-258.9,0-258.9,0s44.1-82.8,125.5-57.1C496.1,1297.3,560.8,1210.7,627,1358.4z"/>
<path class="st0" d="M377.6,1069.8c2.1-4.3-23.1-92.6-113.5-65.3c2.1,0,0-73.6-65.2-71.5c-2.2,0.1-4.3,0.4-6.3,0.8
	c-7.2,43.9-11,89-11,135c0,26.7,1.3,53.2,3.8,79.2c73,5.8,328.8-3.9,328.8-3.9S510,1025.8,377.6,1069.8z"/>
</svg>
