<?xml version="1.0" encoding="utf-8"?>
<!-- Generator: Adobe Illustrator 27.1.1, SVG Export Plug-In . SVG Version: 6.00 Build 0)  -->
<svg version="1.1" id="Layer_1" xmlns:v="https://vecta.io/nano"
	 xmlns="http://www.w3.org/2000/svg" xmlns:xlink="http://www.w3.org/1999/xlink" x="0px" y="0px" viewBox="0 0 2000 2000"
	 style="enable-background:new 0 0 2000 2000;" xml:space="preserve">
<style type="text/css">
	.st0{fill:#FFFFFF;stroke:#FFFFFF;stroke-width:47.1208;stroke-linecap:round;stroke-linejoin:round;stroke-miterlimit:10;}
	.st1{fill:#FFFFFF;}
</style>
<g>
	<path class="st0" d="M1584.2,1307.9c-18.2,22.4-46.1,36.7-77.2,36.7c-30.8,0-58.4-14.1-76.6-36.2l0-1c18.3-22,45.8-36,76.7-36
		c31.2,0,58.9,14.4,77.1,36.9L1584.2,1307.9z"/>
	<path class="st0" d="M1423.3,1307.9l-36.5-36.5c0,0,21,38.2,0,72.3C1387.6,1345.3,1423.3,1307.9,1423.3,1307.9z"/>
</g>
<g>
	<path class="st0" d="M632.7,1264.3c-16.6,20.5-42,33.5-70.4,33.5c-28.1,0-53.3-12.9-69.9-33l0-0.9c16.6-20.1,41.8-32.9,69.9-32.8
		c28.4,0,53.8,13.1,70.4,33.6L632.7,1264.3z"/>
	<path class="st0" d="M485.9,1264.3l-33.3-33.3c0,0,19.1,34.8,0,66C453.3,1298.4,485.9,1264.3,485.9,1264.3z"/>
</g>
<g>
	<path class="st0" d="M1409.9,1465.8c-8.2,10.1-20.7,16.5-34.8,16.5c-13.9,0-26.3-6.4-34.5-16.3l0-0.4c8.2-9.9,20.6-16.2,34.5-16.2
		c14,0,26.5,6.5,34.7,16.6L1409.9,1465.8z"/>
	<path class="st0" d="M1337.4,1465.8l-16.4-16.4c0,0,9.4,17.2,0,32.6C1321.3,1482.6,1337.4,1465.8,1337.4,1465.8z"/>
</g>
<g>
	<path class="st0" d="M408.6,1085.1c-8.2,10.1-20.7,16.5-34.8,16.5c-13.9,0-26.3-6.4-34.5-16.3l0-0.4c8.2-9.9,20.6-16.2,34.5-16.2
		c14,0,26.5,6.5,34.7,16.6L408.6,1085.1z"/>
	<path class="st0" d="M336.2,1085.1l-16.4-16.4c0,0,9.4,17.2,0,32.6C320.1,1101.9,336.2,1085.1,336.2,1085.1z"/>
</g>
<circle class="st1" cx="452.7" cy="1421.5" r="26.9"/>
<circle class="st1" cx="1491.5" cy="1104" r="26.9"/>
<circle class="st1" cx="552.1" cy="1112.5" r="19.3"/>
<circle class="st1" cx="1614.4" cy="1181.6" r="19.3"/>
</svg>
