<?xml version="1.0" encoding="utf-8"?>
<!-- Generator: Adobe Illustrator 27.1.1, SVG Export Plug-In . SVG Version: 6.00 Build 0)  -->
<svg version="1.1" id="Layer_1" xmlns="http://www.w3.org/2000/svg" xmlns:xlink="http://www.w3.org/1999/xlink" x="0px" y="0px"
	 viewBox="0 0 2000 2000" style="enable-background:new 0 0 2000 2000;" xml:space="preserve">
<style type="text/css">
	.st0{fill:none;stroke:#FFFFFF;stroke-width:34;stroke-linecap:round;stroke-linejoin:round;stroke-miterlimit:10;}
</style>
<g>
	<circle class="st0" cx="396.9" cy="1021.4" r="101.3"/>
	<path class="st0" d="M324.7,1460.3c18.4-18.7,43.9-30.2,72.2-30.2c56,0,101.3,45.4,101.3,101.3c0,31.5-14.4,59.6-36.9,78.2"/>
	<circle class="st0" cx="547.3" cy="1276.4" r="101.3"/>
	<path class="st0" d="M203.8,1186.8c14.2-7.5,30.3-11.8,47.5-11.8c56,0,101.3,45.4,101.3,101.3c0,47.4-32.6,87.2-76.6,98.3"/>
	<circle class="st0" cx="1517.5" cy="1170" r="101.3"/>
	<path class="st0" d="M1616.6,1512.5c-30-17.6-50.1-50.2-50.1-87.5c0-56,45.4-101.3,101.3-101.3c27.7,0,52.8,11.1,71.1,29.1"/>
	<circle class="st0" cx="1371.8" cy="1425" r="101.3"/>
</g>
</svg>
