<?xml version="1.0" encoding="utf-8"?>
<!-- Generator: Adobe Illustrator 27.0.1, SVG Export Plug-In . SVG Version: 6.00 Build 0)  -->
<svg version="1.1" id="Layer_1" xmlns="http://www.w3.org/2000/svg" xmlns:xlink="http://www.w3.org/1999/xlink" x="0px" y="0px"
	 viewBox="0 0 2000 2000" style="enable-background:new 0 0 2000 2000;" xml:space="preserve">
<style type="text/css">
	.st0{fill:#FFFFFF;stroke:#FFFFFF;stroke-width:12;stroke-linejoin:round;stroke-miterlimit:10;}
</style>
<path class="st0" d="M375.2,1256.1c-32.9,40-74.5,69.4-110.9,89.8l12.2,28c54.7-12.2,92.1-31.5,92.3-32.7
	c49.2,45.7,189.6,49,192.9,49C434.1,1373.9,371.9,1259.4,375.2,1256.1z"/>
<path class="st0" d="M1475.8,1164.1c20.3,18.9,78.6,20.3,80,20.3c-52.9-6.8-78.7-54.2-77.3-55.6c-31.2,38-81.4,52.9-81.4,52.9
	C1440.5,1183.1,1477.1,1164.1,1475.8,1164.1z"/>
<path class="st0" d="M293.9,1119.7c20.8,19.4,80.3,20.8,81.7,20.8c-54-6.9-80.3-55.4-78.9-56.8c-31.9,38.8-83.1,54-83.1,54
	C257,1139,293.7,1120.5,293.9,1119.7z"/>
<path class="st0" d="M504.1,1142.1c-41.7,50.7-108.7,70.6-108.7,70.6c56.6,1.8,104.7-22.5,105-23.5c27.2,25.4,105.1,27.2,106.9,27.2
	C536.7,1207.3,502.3,1143.9,504.1,1142.1z"/>
<path class="st0" d="M1425,1265.8c-56,68.1-146,94.9-146,94.9c76.3,2.4,140.9-30.3,141.3-31.7c36.5,34.1,141,36.5,143.4,36.5
	C1468.8,1353.4,1422.6,1268.2,1425,1265.8z"/>
<path class="st0" d="M1779.2,1282.1c-71.8-20.3-106.6-85.2-104.6-87.2c-51.5,62.8-134.4,87.4-134.4,87.4
	c70.2,2.2,129.6-27.8,130-29.1c23.2,21.6,76.3,29.4,107.7,32.1L1779.2,1282.1z"/>
</svg>
