<?xml version="1.0" encoding="utf-8"?>
<!-- Generator: Adobe Illustrator 27.0.1, SVG Export Plug-In . SVG Version: 6.00 Build 0)  -->
<svg version="1.1" id="Layer_1" xmlns:v="https://vecta.io/nano"
	 xmlns="http://www.w3.org/2000/svg" xmlns:xlink="http://www.w3.org/1999/xlink" x="0px" y="0px" viewBox="0 0 2000 2000"
	 style="enable-background:new 0 0 2000 2000;" xml:space="preserve">
<style type="text/css">
	.st0{fill:#FFFFFF;stroke:#FFFFFF;stroke-width:15;stroke-linejoin:round;stroke-miterlimit:10;}
</style>
<path class="st0" d="M1544.2,1252.8L1544.2,1252.8c13.1,0,23.8,10.7,23.8,23.8v144.8c0,13.1-10.7,23.8-23.8,23.8l0,0
	c-13.1,0-23.8-10.7-23.8-23.8v-144.8C1520.6,1263.5,1531.2,1252.8,1544.2,1252.8z M1439.6,1170.2L1439.6,1170.2
	c13.1,0,23.8,10.7,23.8,23.8v227.4c0,13.1-10.7,23.8-23.8,23.8l0,0c-13.1,0-23.8-10.7-23.8-23.8V1194
	C1415.9,1180.9,1426.5,1170.2,1439.6,1170.2L1439.6,1170.2z M1334.9,1338.7L1334.9,1338.7c13.1,0,23.8,10.7,23.8,23.8v58.9
	c0,13.1-10.7,23.8-23.8,23.8l0,0c-13.1,0-23.8-10.7-23.8-23.8v-58.9C1311.2,1349.4,1321.8,1338.7,1334.9,1338.7z M1648.9,1016.8
	L1648.9,1016.8c13.1,0,23.8,10.7,23.8,23.8v380.8c0,13.1-10.7,23.8-23.8,23.8l0,0c-13.1,0-23.8-10.7-23.8-23.8v-380.8
	C1625.2,1027.5,1635.8,1016.8,1648.9,1016.8L1648.9,1016.8z M498.9,1140.7L498.9,1140.7c13.1,0,23.8,10.7,23.8,23.8v256.9
	c0,13.1-10.7,23.8-23.8,23.8l0,0c-13.1,0-23.8-10.7-23.8-23.8v-256.9C475.2,1151.4,485.8,1140.7,498.9,1140.7z M394.2,1219.6
	L394.2,1219.6c13.1,0,23.8,10.7,23.8,23.8v178c0,13.1-10.7,23.8-23.8,23.8l0,0c-13.1,0-23.8-10.7-23.8-23.8v-178
	C370.6,1230.3,381.2,1219.6,394.2,1219.6z M289.6,1018.4L289.6,1018.4c13.1,0,23.8,10.7,23.8,23.8v395.6c0,13.1-47.6-74.2-47.6-87.3
	v-308.3C265.9,1029.1,276.5,1018.4,289.6,1018.4L289.6,1018.4z M603.6,1298.5L603.6,1298.5c13.1,0,23.8,10.7,23.8,23.8v99.1
	c0,13.1-10.7,23.8-23.8,23.8l0,0c-13.1,0-23.8-10.7-23.8-23.8v-99.1C579.9,1309.2,590.5,1298.5,603.6,1298.5z"/>
</svg>
