<?xml version="1.0" encoding="utf-8"?>
<!-- Generator: Adobe Illustrator 27.0.1, SVG Export Plug-In . SVG Version: 6.00 Build 0)  -->
<svg version="1.1" id="Layer_1" xmlns="http://www.w3.org/2000/svg" xmlns:xlink="http://www.w3.org/1999/xlink" x="0px" y="0px"
	 viewBox="0 0 2000 2000" style="enable-background:new 0 0 2000 2000;" xml:space="preserve">
<style type="text/css">
	.st0{fill:#FFFFFF;stroke:#FFFFFF;stroke-width:12;stroke-linejoin:round;stroke-miterlimit:10;}
</style>
<path class="st0" d="M1452.7,1345.5c-9.1-7.1,112.7-110.5,112.7-110.5s155.1,122.1,142.5,132.9s-103.8-59.2-103.8-59.2
	s27.3,34.9,11.6,38.7c-15.6,3.8-40.6-36.8-40.6-36.8s-12,47.2-23.2,40.7c-11.3-6.5-7.8-50.4-7.8-50.4S1461.7,1352.7,1452.7,1345.5z"
	/>
<path class="st0" d="M325.6,1379.8C314,1366,483.3,1219,483.3,1219S682,1357.2,672,1371.6s-116.2-54.3-116.2-54.3s11.8,77.5-5,81.6
	s-59.3-76.6-59.3-76.6s-23.7,76.5-39.6,74.1s-24.6-76.7-24.6-76.7S337.2,1393.6,325.6,1379.8z"/>
<path class="st0" d="M1584.3,1512.1c13.7-16.1-248.8-215.1-248.8-215.1S1096,1481,1116,1494.5s162.5-91.6,162.5-91.6
	s-6.3,62.7,8.1,67.9s46.2-48.9,46.2-48.9s53.4,83.9,65.3,81.5s16.3-81.5,16.3-81.5S1570.6,1528.2,1584.3,1512.1z"/>
</svg>
