<svg xmlns="http://www.w3.org/2000/svg" xmlns:xlink="http://www.w3.org/1999/xlink" viewBox="0 0 2000 2000" xmlns:v="https://vecta.io/nano"><use xlink:href="#B" fill="#fff"/><use xlink:href="#B" fill="none" stroke="#fff" stroke-width="10" stroke-linejoin="round" stroke-miterlimit="10"/><defs ><path id="B" d="M1561.9 1165.5c87-32.4 174-70.6 261.1-56.3 2.7-20.3 4.6-40.9 5.8-61.7-89 8.2-177.9 68.3-266.9 118zm-245 244.4c130 79 259.9 22.6 389.9 24.7 5.4-8.7 10.6-17.5 15.6-26.3v-45.2c-135.1 24.9-270.3 113.2-405.5 46.8zm487.1-202.8c4.8-18.5 8.9-37.3 12.4-56.3-136 2.7-272 121.7-408.1 135 131.9-.1 263.8-93.9 395.7-78.7zm-424.5 302.5c83.9 35 167.7 27.1 251.6 28.4 18.2-21.2 35.3-43.3 51.3-66.2-101 20.3-201.9 63.2-302.9 37.8zm-82.3-180.2c153.1 95 306.2-12.1 459.4-4.4v-74.2c-153.1 26.4-306.3 158.3-459.4 78.6zM197.8 1182.2c4.1 18.3 8.8 36.3 14.1 54.1 97.6 2.4 195.2-53.4 292.8-57.6-102.3-8.9-204.6 34.4-306.9 3.5zm73.8 200.9c10 19.1 20.7 37.7 32.1 55.9 93-42.7 186-106.4 279.1-96-103.7-28.5-207.5 28.7-311.2 40.1zM416.4 1107c-78.4 0-156.8 8.7-235.2-30.7 1.9 20.5 4.5 40.8 7.8 60.8 75.8 12.6 151.6-14.6 227.4-30.1zM241 1280.2v37.7c4.5 10.7 9.1 21.3 14 31.8 125.1-29.4 250.3-127.5 375.4-63.1-129.8-83-259.6.9-389.4-6.4zm114.1 231.6c56.8-36.5 113.5-73.9 170.3-90.6-67 3.1-134 31.3-201 49.1 9.8 14.2 20.1 28 30.7 41.5z"/></defs></svg>