<svg xmlns="http://www.w3.org/2000/svg" viewBox="0 0 2000 2000" xmlns:v="https://vecta.io/nano"><circle cx="1003.9" cy="1000.2" r="826.2" fill="#fff"/><linearGradient id="A" gradientUnits="userSpaceOnUse" x1="395.581" y1="850" x2="395.581" y2="499.901"><stop offset="0" stop-color="#ec76aa"/><stop offset="1" stop-color="#d9b9d8"/></linearGradient><path d="M181.6 994.8c0 78.8 11 155 31.6 227C410 836.8 565 574.6 609.6 277.3c-254.1 133.3-428 404.5-428 717.5z" fill="url(#A)"/><linearGradient id="B" gradientUnits="userSpaceOnUse" x1="1334.722" y1="1687.517" x2="1334.722" y2="674.997"><stop offset="0" stop-color="#8dc540"/><stop offset="1" stop-color="#fbed21"/></linearGradient><path d="M1726 1194.2c-223.7-378.3-403.8-634.6-449.7-939-95.2-42.2-200.1-65.5-310.4-65.5l-22.4.3c1.8 437.2 17 825.3 37.7 1609.9 359.4-7.1 659.6-262.3 744.8-605.7z" fill="url(#B)"/><linearGradient id="C" gradientUnits="userSpaceOnUse" x1="1513.278" y1="422.917" x2="1513.278" y2="1156.262"><stop offset="0" stop-color="#5acaf4"/><stop offset=".999" stop-color="#c3e7f9"/></linearGradient><path d="M1276.4 255.2c45.9 304.4 226 560.6 449.7 938.7 15.8-63.7 24.2-130.4 24.2-199.1-.1-331.5-195.2-616.2-473.9-739.6z" fill="url(#C)"/><linearGradient id="D" gradientUnits="userSpaceOnUse" x1="596.023" y1="566.683" x2="596.023" y2="1583.736"><stop offset="0" stop-color="#f6aa1c"/><stop offset="1" stop-color="#fe0"/></linearGradient><path d="M980 1799.9L943.1 190c-120.4 3.5-234 34.9-334.9 88.1-44.8 296-199.7 557.1-396.1 939.5 94.1 336.3 396 582.4 753.9 582.4l14-.1z" fill="url(#D)"/></svg>