<svg xmlns="http://www.w3.org/2000/svg" viewBox="0 0 2000 2000" xmlns:v="https://vecta.io/nano"><circle cx="1003.9" cy="1000.2" r="826.2" fill="#fff"/><linearGradient id="A" gradientUnits="userSpaceOnUse" x1="663.145" y1="1521.293" x2="1999.857" y2="1521.293"><stop offset="0" stop-color="#f6aa1c"/><stop offset="1" stop-color="#fe0"/></linearGradient><path d="M965.9 1800c345.4 0 638.6-229.2 743.3-547.5-364.1-82.2-728.2 370.4-1092.3 463.6 105.1 53.7 223.6 83.9 349 83.9z" fill="url(#A)"/><linearGradient id="B" gradientUnits="userSpaceOnUse" x1="-292.275" y1="823.148" x2="2123.931" y2="823.148"><stop offset="0" stop-color="#6dcdf4"/><stop offset="1" stop-color="#e46ea8"/></linearGradient><path d="M1688.8 681.9c-61.4-149.3-165.3-275.6-296.3-362.9-382.3 160.3-764.7 624.4-1147 357-41.1 97.8-63.9 205.5-63.9 318.8 0 61.1 6.6 120.6 19.2 177.8 496 563.9 992-604.2 1488-490.7z" fill="url(#B)"/><linearGradient id="C" gradientUnits="userSpaceOnUse" x1="1036.634" y1="473.389" x2="253.683" y2="473.389"><stop offset="0" stop-color="#ed83b1"/><stop offset="1" stop-color="#d9b9d8"/></linearGradient><path d="M245.5 675.9C627.8 943.2 1010.1 479.3 1392.4 319c-122.8-81.8-269.2-129.4-426.5-129.4-322.8 0-600.1 200.2-720.4 486.3z" fill="url(#C)"/><linearGradient id="D" gradientUnits="userSpaceOnUse" x1="474.565" y1="1195.819" x2="1889.934" y2="1195.819"><stop offset="0" stop-color="#8dc540"/><stop offset="1" stop-color="#fbed21"/></linearGradient><path d="M201 1173.4c52.7 238.9 208.9 437.5 417.6 543.6 363.3-93.8 726.5-543.1 1089.8-462.1 27.1-81.6 41.8-169 41.8-260 0-110.7-21.8-216.2-61.2-312.2-496-114.1-992 1054.2-1488 490.7z" fill="url(#D)"/></svg>