<svg xmlns="http://www.w3.org/2000/svg" viewBox="0 0 2000 2000" xmlns:v="https://vecta.io/nano"><circle cx="1003.9" cy="1000.2" r="826.2" fill="#fff"/><linearGradient id="A" gradientUnits="userSpaceOnUse" x1="1924.795" y1="79.001" x2="70.629" y2="1849.835"><stop offset="0" stop-color="#6dccf2"/><stop offset="1" stop-color="#f8ec1d"/></linearGradient><ellipse cx="965.9" cy="994.8" rx="784.3" ry="805.2" fill="url(#A)"/><linearGradient id="B" gradientUnits="userSpaceOnUse" x1="343.765" y1="688.006" x2="1242.97" y2="1131.185"><stop offset="0" stop-color="#f6aa1c"/><stop offset="1" stop-color="#fe0"/></linearGradient><path d="M991.8 991.2c217.9 94.2 332.4 270 330.5 523.1 2.3 61.2.4 128.5-4.8 200.4-201.6 108.7-476.8 113.1-682.2 10.4 486.8-309.5 421.9-521.8 356.5-733.9zm326.6-715.9c-191.5-103.2-451-113.8-651.3-25.2-6.1 78.2-8.6 151-6.1 216.8-2.1 253.4 113.2 429.3 330.8 524.2-64.1-208-128.7-416.1 326.6-715.8z" fill="url(#B)"/><linearGradient id="C" gradientUnits="userSpaceOnUse" x1="1567.731" y1="865.573" x2="136.518" y2="1115.567"><stop offset=".016" stop-color="#7faada"/><stop offset="1" stop-color="#9ed8f5"/></linearGradient><path d="M991.1 990.8c-94.2 217.9-270 332.4-523.1 330.5-67.3 2.6-141.9 0-222-6.5-90.5-205.1-84.1-474.4 15.3-674 307.3 479.7 518.6 415.1 729.8 350zm689.4-328.3c-292.5-31-580.5 44.7-689.4 328.3 204.9-63.2 409.7-126.8 702.1 305.8 79.8-194.3 74.6-444-12.7-634.1z" fill="url(#C)"/><linearGradient id="D" gradientUnits="userSpaceOnUse" x1="266.227" y1="367.417" x2="974.56" y2="967.417"><stop offset="0" stop-color="#6dccf2"/><stop offset="1" stop-color="#e585b3"/></linearGradient><path d="M839.6 881.2c49.1 40.4 96 78.4 151.6 109.5-211.2 65.1-422.5 129.7-729.8-350 84-175.8 228.5-315.6 405.8-390.6-16.5 230.2-8.9 486.2 172.4 631.1zm853.6 415.5c-292.4-432.6-497.2-369-702.1-305.9 310.9 155 351 394.2 326.4 723.9 169.6-87.4 304.1-236.2 375.7-418z" fill="url(#D)"/></svg>