<svg xmlns="http://www.w3.org/2000/svg" viewBox="0 0 2000 2000" xmlns:v="https://vecta.io/nano"><circle cx="997.5" cy="970.3" r="826.2" fill="#fff"/><linearGradient id="A" gradientUnits="userSpaceOnUse" x1="420.532" y1="977.385" x2="1660.115" y2="1016.968"><stop offset="0" stop-color="#ee89b5"/><stop offset="1" stop-color="#d9b9d8"/></linearGradient><ellipse cx="965.9" cy="994.8" rx="784.3" ry="805.2" fill="url(#A)"/><linearGradient id="B" gradientUnits="userSpaceOnUse" x1="621.545" y1="1287.455" x2="2696.63" y2="1287.455"><stop offset="0" stop-color="#99ce8d"/><stop offset=".996" stop-color="#0088b8"/></linearGradient><path d="M232.8 1281.5l1282.8 287.6c142.4-143.7 231.6-342.8 234.5-563.3L219.9 1244a829.02 829.02 0 0 0 12.9 37.5z" fill="url(#B)"/><linearGradient id="C" gradientUnits="userSpaceOnUse" x1="332.381" y1="643.416" x2="1832.703" y2="643.416"><stop offset="0" stop-color="#f6aa1c"/><stop offset="1" stop-color="#fe0"/></linearGradient><path d="M241.6 685.3l1508.5 303.5c-2.1-295.1-158.8-552.4-391-690.8L274.2 615a831.01 831.01 0 0 0-32.6 70.3z" fill="url(#C)"/><linearGradient id="D" gradientUnits="userSpaceOnUse" x1="1479.546" y1="974.665" x2="156.759" y2="969.183"><stop offset="0" stop-color="#8dc540"/><stop offset="1" stop-color="#fbed21"/></linearGradient><path d="M1750.2 994.8l-.2-19.6L249.1 667.6c-43.4 100-67.5 210.7-67.5 327.2 0 97.2 16.8 190.4 47.5 276.7l1520.6-247.4.5-29.3z" fill="url(#D)"/><linearGradient id="E" gradientUnits="userSpaceOnUse" x1="185.075" y1="1503.256" x2="1137.158" y2="1588.673"><stop offset="0" stop-color="#6dcdf4"/><stop offset="1" stop-color="#e46ea8"/></linearGradient><path d="M231.4 1277.6C342.9 1582.8 629.7 1800 965.9 1800c221.4 0 421.3-94.2 563.9-245.6L231.4 1277.6z" fill="url(#E)"/></svg>