<svg xmlns="http://www.w3.org/2000/svg" viewBox="0 0 2000 2000" xmlns:v="https://vecta.io/nano"><circle cx="1003.9" cy="1000.2" r="826.2" fill="#fff"/><linearGradient id="A" gradientUnits="userSpaceOnUse" x1="352.344" y1="1606.565" x2="1992.981" y2="1606.565"><stop offset="0" stop-color="#6dcdf4"/><stop offset="1" stop-color="#e46ea8"/></linearGradient><path d="M295.6,1413.1C433.3,1645.1,682,1800,965.9,1800s532.6-154.9,670.3-386.9H295.6z" fill="url(#A)"/><linearGradient id="B" gradientUnits="userSpaceOnUse" x1="-138.281" y1="793.799" x2="1908.615" y2="793.799"><stop offset="0" stop-color="#6dcdf4"/><stop offset="1" stop-color="#fbed1d"/></linearGradient><path d="M181.6 994.8v5.8h1568.5v-5.8c0-148.8-39.3-288.2-107.9-407.8H289.5c-68.6 119.6-107.9 259-107.9 407.8z" fill="url(#B)"/><linearGradient id="C" gradientUnits="userSpaceOnUse" x1="1222.656" y1="388.235" x2="299.214" y2="388.235"><stop offset="0" stop-color="#f9ae42"/><stop offset="1" stop-color="#fbed1d"/></linearGradient><path d="M289.6 586.9h1352.7C1506 349.2 1254.1 189.6 966 189.6S425.9 349.1 289.6 586.9z" fill="url(#C)"/><linearGradient id="D" gradientUnits="userSpaceOnUse" x1="458.594" y1="1207.885" x2="1891.573" y2="1207.885"><stop offset=".016" stop-color="#80abdb"/><stop offset="1" stop-color="#9ddaf7"/></linearGradient><path d="M296.5 1414.7h1338.7c71.9-120.6 113.8-262.1 114.9-413.6H181.6c1.2 151.5 43 293 114.9 413.6z" fill="url(#D)"/></svg>